<svg fill="#0d4a7c" xmlns="http://www.w3.org/2000/svg" viewBox="0 0 449.46 144.1"><path class="st0" d="M445.19 101.81l-.6-.9c-.11-.16-1.29-.02-1.48-.02-.83 0-.62-.21-.62-1.15 0-.44-.99-.21-1.31-.21-.74 0 .03.94-.31 1.37-.15.21-1.54 0-1.79 0-.42 0-.54.16-.54-.3v-6.79c0-.66-.39-2.41.49-2.18-.65-1.37-1.71-2.64-2.53-3.9-.85-1.29-1.7-2.57-2.53-3.87-.89 1.37-1.79 2.71-2.67 4.08-.79 1.19-1.77 2.39-2.4 3.69.85-.23.51 1.15.51 1.79v4.72c0 .37.25 2.43 0 2.69-.15.16-1.16 0-1.33 0h-1.5c-.09 0 .06-1.29-.06-1.29h-1.46c-.12 0 .06 1.29-.06 1.29h-1.66c-.63 0-1.26 1.54-1.62 2.09l-1.74 2.7V78.56c0-.41-.42-.21-.72-.21-.76 0-.72.11-.72-.74v-4.49c0-.78-.59-.48-1.16-.48h-2.27c-.4 0-.18-2-.18-2.41V57.52c0-.05-1.53-.02-1.68-.02-.52 0-.26-1.29-.26-1.81 0-.09-1.63-.04-1.8-.04-.96 0-.72.19-.72 1.28 0 .8-.23.57-.91.57h-2.59c-.48 0-.26-.69-.26-1.15V53.7c0-.05-1.56-.04-1.73-.04-.25 0-.11-1.74-.11-2.04 0-.64.08-.62-.43-.62h-6.49c-.03 0-.02 1.88-.02 2.04 0 .96-.45.62-1.23.62-.76 0-.62.05-.62.92v2.82c0 .19-1.14.09-1.31.09h-2.37c-.15 0-.08-1.56-.08-1.81 0-.09-1.8-.04-1.99-.04-.79 0-.52.41-.52 1.28 0 .44.11.57-.26.57h-1.25c-.43 0-.43-.11-.43.35v14.7c0 .2-2.57.09-2.99.09-.83 0-.63.23-.63 1.12v2.48c0 .34.2 1.86 0 2.11-.14.19-1.43-.21-1.43.07v4.56a18.44 18.44 0 00-25.28.43V43.14c0-.82-1.34-.37-1.9-.37-.12 0 .06-.82-.03-.92-.08-.09-.77 0-.89 0-.23 0-.66.11-.88 0-.08-.02.08-.37-.05-.37h-16.56c-.32 0-.34.37-.34.37-.23 0-1.74-.07-1.74.07 0 .25.12.85-.12.85h-1.17c-.23 0-.63-.16-.63.16v27.22l-1.25-2.48c-.15-.28-.8-2.02-1.09-2.02h-2.87c-.31 0-.55.14-.55-.23 0-.62.11-.69-.42-.69h-1.33c-.23 0-.12.46-.12.69 0 .37-.25.23-.55.23h-10.64c-.02 0-.02-.76-.02-.85 0-.14-.51-.07-.62-.07h-1.22c-.06 0-.03.74-.03.85 0 .14-1.36.07-1.53.07-.42 0-1.59-.25-1.96 0-.18.12-.35.71-.46.9l-4.24 8.42c.45 0 .88-.27.88.32v12.36c0 .37-2.71.16-3.13.16-.11 0-.54.09-.54-.05 0-.12.05-.85-.03-.85-.31 0-1.65-.21-1.83 0-.06.09.08.9-.02.9h-3.11c-.34 0-.17-2.82-.17-3.48V19.89c0-.3.08-4.4-.08-4.4-.52 0-.48.05-.48-.53v-1.21c0-.18-.42-.51-.51-.62l-6.52-7.32c-.48-.53-1.85-.21-2.56-.18v-3.1h-1.97V0h-7.91v2.53h-1.97v3.1c-.76-.02-2.07-.37-2.62.25l-3.13 3.51-3.42 3.83c-.28.3-.43.37-.43.82v1.31c0 .39-.39-.05-.54.14-.18.23 0 1.49 0 1.88v57.98c0 .9.12 7.16-.14 7.16h-18.05c-.65 0-.03-2.77-.28-2.77-.37 0-3.76.02-3.76-.04V65.94c0-.67-.29-2.41.08-3.01l2.53-4.29c.43-.73.12-2.48.12-3.32V46.2c0-.28.18-1.88 0-2.09-.22-.21-1.53 0-1.8 0-.51 0-1.39.21-1.59-.19-.22-.44 0-1.67 0-2.2 0-.07-3.61-.04-3.96-.04-.59 0-.6.09-.6-.57V38.7c0-.07-1.76-.04-1.96-.04-.26 0-.12-1.61-.12-1.9 0-1.13-.11-.89-1.09-.89-.89 0-.86-.14-.86.89 0 .2.06 1.9-.05 1.9h-12.13c-.12 0-.06-1.47-.06-1.65 0-1.15.15-1.13-.86-1.13-.79 0-1.08-.3-1.08.64 0 .32.14 2.15-.12 2.15-.35 0-1.73-.25-1.97 0-.22.23 0 2.07 0 2.45 0 .57.06.57-.45.57h-2.59c-.23 0-1.34-.18-1.53 0-.31.35.23 1.77 0 2.23-.18.37-.88.19-1.36.19-.32 0-1.79-.25-2.02 0-.17.18 0 1.6 0 1.84v11.77c0 .25-.06.6.06.82.85 1.44 1.7 2.85 2.54 4.29.23.39.12 1.13.12 1.6v24.72c0 .18-4.18.09-4.52.09h-19.53c-.65 0-1.2.3-1.2-.51 0-.57-1.34-.28-1.76-.28-.09 0-.65-.07-.71 0-.06.09.06.8-.02.8h-2.16c-.43 0-1.34-.21-1.73 0-.45.23-.94 1.35-1.25 1.77-.37.53-.74 1.05-1.09 1.58V41.22c0-.85-.28-.53-1.08-.53-.76 0 .17-1.1-.63-1.1-.23 0-.76.11-.96 0-.08-.05.11-.48-.05-.48h-12.02c-.17 0 .06.48-.09.48h-1.08c-.51 0 .23 1.1-.46 1.1-1 0-1.08-.27-1.08.76v34.33c0 .67-1.54.48-1.54 0 0-.37.18-1.91-.17-1.91h-2.31c-.89 0-.79-.05-.79.99 0 .87.25 1.22-.52 1.22h-2V21.03c0-.34-.94-.14-1.17-.14-.79 0-.49-.62-.49-1.45 0-.23-1.54.16-1.54-.16 0-.57.08-.55-.35-.55h-13.58c-.09 0-.65-.09-.72 0-.15.19.22.66-.12.66h-1.13c-.66 0-.08 1.51-.32 1.51-.17 0-1.62-.02-1.62.02v54.17c0 1.29-.08 1.01-1.3 1.01h-5.84c-.42 0-.99.25-.99-.3 0-.37.2-1.91-.17-1.91h-2.31c-.89 0-.79-.05-.79.99 0 .62.25 1.22-.35 1.22h-2.62c-.25 0-1.09-.16-1.26.05-.89 1.12-1.79 2.23-2.7 3.33V72l.76.96c.23-.35 1.19-1.31.88-1.7-.43-.55-.85-1.1-1.28-1.63l-5.16-6.61-8.23-10.51-8.22 10.51a1069.38 1069.38 0 00-6.44 8.24c-.31.39.72 1.21.99 1.52l.54-.69V91.9c-1.74-1.51-3.36-3.28-5.04-4.91-.54-.51-.97-1.26-1.7-1.26h-4.16c-.54 0-7.92.02-7.92 0v-13.3c0-.07 3.24-.05 3.61-.05l-4.53-6.51-6.81-9.79-2.39-3.44c-.2-.28-.54-1.06-.88-1.06h-6.75c-.57 0-.4-.18-.4-.85 0-.83-.15-.62-.85-.62h-4.3c-.06 0 .06 1.47-.05 1.47h-4.16c-.42 0-2.85-.35-3.11.02l-3.99 5.74L23.1 72.38l3.19.02c.45 0 .4-.05.4.46v21.21c0 .32.22 2.02 0 2.27-.17.21-1.51 0-1.76 0h-2.42c-.49 0-.45-.05-.45.51v7.11c-1.2-.78-2.4-1.56-3.62-2.32-.8-.53-1.62-1.05-2.44-1.58-.11-.07-.69-.57-.8-.5l-.11.07V79.35H0v63.72h1.27v1.03h447.05v-35.52c0-.3.91-.12 1.13-.12-1.41-2.22-2.85-4.44-4.26-6.65z"/></svg>