<svg version="1.1" id="Слой_1" xmlns="http://www.w3.org/2000/svg" x="0" y="0" viewBox="0 0 450 144.09" xml:space="preserve"><style>.st1{fill:#69c43f}</style><path d="M445.19 101.8l-.6-.9c-.11-.16-1.3-.02-1.48-.02-.83 0-.62-.21-.62-1.15 0-.44-.98-.21-1.31-.21-.74 0 .03.94-.31 1.36-.15.21-1.54 0-1.78 0-.42 0-.54.16-.54-.3v-6.79c0-.66-.39-2.41.49-2.18-.65-1.37-1.71-2.64-2.53-3.9l-2.53-3.87c-.89 1.37-1.79 2.72-2.66 4.08-.79 1.19-1.78 2.39-2.41 3.69.85-.23.51 1.15.51 1.79v4.72c0 .37.25 2.43 0 2.69-.15.16-1.16 0-1.33 0h-1.49c-.09 0 .06-1.29-.06-1.29h-1.47c-.12 0 .06 1.29-.06 1.29h-1.66c-.64 0-1.27 1.54-1.62 2.09l-1.75 2.7V78.56c0-.41-.41-.21-.72-.21-.76 0-.72.1-.72-.75v-4.48c0-.78-.59-.48-1.16-.48h-2.27c-.4 0-.18-2.01-.18-2.41V57.51c0-.05-1.53-.02-1.68-.02-.53 0-.26-1.29-.26-1.8 0-.09-1.64-.04-1.81-.04-.95 0-.72.2-.72 1.28 0 .8-.23.56-.91.56h-2.59c-.48 0-.26-.69-.26-1.15V53.7c0-.05-1.56-.04-1.73-.04-.25 0-.11-1.73-.11-2.03 0-.64.08-.62-.43-.62h-6.49c-.03 0-.02 1.87-.02 2.03 0 .96-.44.62-1.23.62-.75 0-.62.06-.62.93v2.82c0 .19-1.14.08-1.31.08h-2.37c-.15 0-.08-1.56-.08-1.8 0-.09-1.8-.04-1.99-.04-.78 0-.52.41-.52 1.28 0 .44.11.56-.26.56h-1.25c-.43 0-.43-.1-.43.36v14.7c0 .19-2.58.09-2.99.09-.84 0-.64.23-.64 1.11v2.49c0 .33.2 1.86 0 2.11-.13.19-1.43-.22-1.43.07v4.55a18.44 18.44 0 00-25.28.43V43.13c0-.81-1.34-.37-1.9-.37-.12 0 .06-.82-.03-.92-.08-.09-.77 0-.89 0-.23 0-.67.1-.88 0-.08-.02.08-.37-.05-.37h-16.55c-.33 0-.34.37-.34.37-.24 0-1.75-.07-1.75.07 0 .25.13.85-.12.85h-1.17c-.23 0-.63-.16-.63.16v27.22c-.42-.84-.84-1.65-1.25-2.49-.16-.28-.8-2.02-1.1-2.02H328c-.31 0-.56.14-.56-.23 0-.62.11-.69-.42-.69h-1.32c-.23 0-.12.46-.12.69 0 .37-.25.23-.56.23h-10.64l-.01-.85c0-.14-.51-.07-.62-.07h-1.22c-.06 0-.03.75-.03.85 0 .14-1.35.07-1.52.07-.42 0-1.59-.25-1.96 0-.19.13-.36.71-.46.91l-4.24 8.42c.44 0 .88-.27.88.32v12.36c0 .37-2.72.16-3.13.16-.11 0-.54.09-.54-.06 0-.12.04-.85-.03-.85-.31 0-1.65-.21-1.84 0-.06.09.08.91-.01.91h-3.12c-.08 0-.13-.16-.16-.41a4.78 4.78 0 01-.04-.71l-.01-.17c-.01-.84.04-1.83.04-2.19V19.89c0-.3.08-4.4-.07-4.4-.53 0-.48.05-.48-.53v-1.21c0-.17-.42-.51-.51-.62l-6.52-7.32c-.48-.53-1.85-.21-2.56-.18v-3.1h-1.97V0h-7.91v2.53h-1.98v3.1c-.75-.02-2.06-.37-2.62.25l-3.13 3.51-3.42 3.83c-.28.3-.43.37-.43.82v1.31c0 .39-.39-.05-.54.14-.19.23 0 1.49 0 1.88v57.98c0 .9.12 7.16-.14 7.16h-18.05c-.65 0-.03-2.76-.28-2.76-.37 0-3.76.01-3.76-.04V65.93c0-.67-.29-2.41.08-3.01l2.52-4.29c.44-.73.13-2.48.13-3.32V46.2c0-.28.18-1.88 0-2.09-.22-.21-1.53 0-1.81 0-.5 0-1.38.21-1.58-.2-.22-.44 0-1.66 0-2.2 0-.07-3.61-.03-3.97-.03-.58 0-.6.09-.6-.57V38.7c0-.07-1.75-.04-1.95-.04-.27 0-.13-1.61-.13-1.89 0-1.14-.11-.89-1.09-.89-.9 0-.87-.14-.87.89 0 .19.07 1.89-.04 1.89h-12.13c-.13 0-.07-1.47-.07-1.64 0-1.16.16-1.14-.86-1.14-.79 0-1.08-.3-1.08.64 0 .32.14 2.14-.12 2.14-.36 0-1.73-.24-1.98 0-.21.23 0 2.08 0 2.45 0 .57.07.57-.44.57h-2.59c-.23 0-1.34-.18-1.53 0-.31.35.23 1.77 0 2.23-.18.38-.88.2-1.36.2-.32 0-1.78-.25-2.01 0-.17.18 0 1.59 0 1.84v11.78c0 .24-.07.6.06.81.84 1.44 1.69 2.86 2.54 4.29.23.39.12 1.14.12 1.6v24.71c0 .18-4.17.09-4.51.09h-19.55l-.18.01c-.56.04-1.01.21-1.01-.52 0-.31-.4-.37-.83-.36l-.18.01c-.3.02-.59.06-.75.06-.09 0-.64-.07-.7 0-.07.09.06.8-.02.8h-2.16c-.14 0-.34-.02-.55-.05l-.18-.02c-.37-.03-.77-.05-.99.07-.41.21-.85 1.14-1.16 1.64l-.09.14-.09.13c-.34.48-.68.95-1.01 1.44V41.22c0-.85-.28-.53-1.08-.53-.75 0 .17-1.1-.63-1.1-.23 0-.75.1-.95 0-.08-.06.1-.48-.05-.48h-12.03c-.17 0 .07.48-.09.48h-1.08c-.51 0 .23 1.1-.46 1.1-1 0-1.08-.27-1.08.76v34.33c0 .67-1.54.47-1.54 0 0-.38.18-1.92-.17-1.92h-2.31c-.9 0-.79-.05-.79.99 0 .87.25 1.23-.52 1.23h-2.01V21.02c0-.33-.94-.14-1.17-.14-.79 0-.49-.62-.49-1.45 0-.23-1.54.16-1.54-.16 0-.57.07-.55-.36-.55h-13.58c-.09 0-.65-.09-.72 0-.16.19.21.65-.13.65h-1.12c-.67 0-.08 1.51-.33 1.51-.17 0-1.62-.02-1.62.02v54.17c0 1.29-.07 1.01-1.29 1.01h-5.84c-.37 0-.86.19-.96-.14a.38.38 0 01-.03-.16v-.03l.01-.2c.04-.56.14-1.69-.18-1.69h-2.31c-.9 0-.79-.05-.79.99 0 .25.04.5.05.7l-.01.2a.3.3 0 01-.06.19c-.05.09-.15.14-.33.14h-2.62c-.25 0-1.1-.16-1.27.05-.89 1.12-1.79 2.23-2.7 3.33v-7.48l.76.96c.23-.36 1.19-1.31.88-1.7l-1.28-1.64-5.17-6.61c-2.74-3.51-5.48-7.02-8.23-10.51l-8.21 10.51c-1.73 2.2-3.46 4.4-5.17 6.61l-1.28 1.64c-.31.39.73 1.2.99 1.52l.54-.69v19.82c-1.74-1.5-3.36-3.28-5.04-4.91-.54-.51-.97-1.26-1.7-1.26h-4.16c-.54 0-7.93.02-7.93 0v-13.3c0-.07 3.24-.05 3.61-.05l-4.53-6.51-6.81-9.78c-.79-1.16-1.59-2.29-2.39-3.44-.2-.29-.54-1.07-.88-1.07h-6.75c-.58 0-.41-.17-.41-.85 0-.83-.15-.62-.84-.62h-4.3c-.07 0 .06 1.47-.05 1.47h-4.16c-.42 0-2.86-.35-3.12.02-1.32 1.92-2.66 3.83-3.99 5.75L23.02 72.37l3.19.02c.45 0 .4-.05.4.46v21.21c0 .31.22 2.02 0 2.27-.17.21-1.51 0-1.76 0h-2.42c-.49 0-.45-.06-.45.51v7.11c-1.2-.78-2.4-1.56-3.62-2.32-.8-.54-1.62-1.05-2.43-1.58-.11-.07-.7-.57-.81-.5l-.11.08V79.35H0v32.55h.01v31.17h1.27v1.02h447.05v-35.51c0-.3.91-.13 1.13-.13l-4.27-6.65zM52.3 109.27v4.47h-3.93v-4.47h3.93zm-3.93-.36v-1.62h3.93v1.62h-3.93zm-5.3.36v4.47h-3.92v-4.47h3.92zm-3.92-.36v-1.62h3.92v1.62h-3.92zm3.92 14.69v4.47h-3.92v-4.47h3.92zm-3.92-.36v-1.62h3.92v1.62h-3.92zm13.15.36v4.47h-3.93v-4.47h3.93zm-3.93-.36v-1.62h3.93v1.62h-3.93z" fill="#8ddd64"/><path class="st1" d="M176.63 53.7v81.61h18.88V53.7h-18.88zm4.36 80.1h-2.9v-5.08h2.9v5.08zm0-8.17h-2.9v-5.08h2.9v5.08zm0-8.17h-2.9v-5.08h2.9v5.08zm0-8.17h-2.9v-5.08h2.9v5.08zm0-8.18h-2.9v-5.08h2.9v5.08zm0-8.17h-2.9v-5.08h2.9v5.08zm0-8.17h-2.9v-5.08h2.9v5.08zm0-8.17h-2.9v-5.08h2.9v5.08zm0-8.17h-2.9v-5.08h2.9v5.08zm0-8.17h-2.9v-5.08h2.9v5.08zm4.35 73.54h-2.9v-5.08h2.9v5.08zm0-8.17h-2.9v-5.08h2.9v5.08zm0-8.17h-2.9v-5.08h2.9v5.08zm0-8.17h-2.9v-5.08h2.9v5.08zm0-8.18h-2.9v-5.08h2.9v5.08zm0-8.17h-2.9v-5.08h2.9v5.08zm0-8.17h-2.9v-5.08h2.9v5.08zm0-8.17h-2.9v-5.08h2.9v5.08zm0-8.17h-2.9v-5.08h2.9v5.08zm0-8.17h-2.9v-5.08h2.9v5.08zm5.81-5.08h2.9v5.08h-2.9v-5.08zm0 8.17h2.9v5.08h-2.9v-5.08zm0 8.17h2.9v5.08h-2.9v-5.08zm0 8.17h2.9v5.08h-2.9v-5.08zm0 8.17h2.9v5.08h-2.9v-5.08zm0 8.17h2.9v5.08h-2.9v-5.08zm0 8.17h2.9v5.08h-2.9v-5.08zm0 8.18h2.9v5.08h-2.9v-5.08zm0 8.17h2.9v5.08h-2.9v-5.08zm0 8.17h2.9v5.08h-2.9v-5.08zm-4.36-73.54h2.9v5.08h-2.9v-5.08zm0 8.17h2.9v5.08h-2.9v-5.08zm0 8.17h2.9v5.08h-2.9v-5.08zm0 8.17h2.9v5.08h-2.9v-5.08zm0 8.17h2.9v5.08h-2.9v-5.08zm0 8.17h2.9v5.08h-2.9v-5.08zm0 8.17h2.9v5.08h-2.9v-5.08zm0 8.18h2.9v5.08h-2.9v-5.08zm0 8.17h2.9v5.08h-2.9v-5.08zm0 8.17h2.9v5.08h-2.9v-5.08zM300.04 112.23a7.05 7.05 0 010-2.67h-.27a7.05 7.05 0 000 2.67h.27zM300.58 112.23a7.98 7.98 0 010-2.67h-.27a7.49 7.49 0 000 2.67h.27zM301.13 112.23a8.54 8.54 0 010-2.67h-.27a8.54 8.54 0 000 2.67h.27zM301.67 112.23a9.95 9.95 0 010-2.67h-.27a9.55 9.55 0 000 2.67h.27zM302.21 112.23c-.1-.88-.1-1.79 0-2.67h-.27c-.11.88-.11 1.79 0 2.67h.27zM302.76 112.23c-.09-.88-.09-1.79 0-2.67h-.27c-.09.88-.09 1.79 0 2.67h.27zM303.3 112.23a17 17 0 010-2.67h-.27c-.08.88-.08 1.79 0 2.67h.27zM303.85 112.23c-.05-.88-.05-1.79 0-2.67h-.27c-.06.88-.06 1.79 0 2.67h.27zM304.39 112.23c-.04-.88-.04-1.79 0-2.67h-.27c-.04.88-.04 1.79 0 2.67h.27zM304.94 112.23c-.02-.88-.02-1.79 0-2.67h-.27c-.03.88-.03 1.79 0 2.67h.27zM305.48 112.23v-2.67h-.27v2.67h.27zM306.03 109.55h-.27v2.67h.27v-2.67zM306.57 109.55h-.27c.02.88.02 1.79 0 2.67h.27c.03-.87.03-1.78 0-2.67zM307.12 109.55h-.27c.04.88.04 1.79 0 2.67h.27c.04-.87.04-1.78 0-2.67zM307.66 112.23c.06-.88.06-1.79 0-2.67h-.27c.05.88.05 1.79 0 2.67h.27zM308.21 112.23c.08-.88.08-1.79 0-2.67h-.27a17 17 0 010 2.67h.27zM308.75 112.23c.09-.88.09-1.79 0-2.67h-.27c.08.88.08 1.79 0 2.67h.27zM309.3 112.23c.11-.88.11-1.79 0-2.67h-.27c.1.88.1 1.79 0 2.67h.27zM309.84 112.23c.13-.88.13-1.79 0-2.67h-.27c.12.88.12 1.79 0 2.67h.27zM310.38 112.23c.14-.88.14-1.79 0-2.67h-.27c.13.88.13 1.79 0 2.67h.27zM310.93 112.23c.16-.88.16-1.79 0-2.67h-.27c.15.88.15 1.79 0 2.67h.27zM311.47 112.23c.18-.88.18-1.79 0-2.67h-.27c.17.88.17 1.79 0 2.67h.27zM300.04 123.68a7.05 7.05 0 010-2.67h-.27a7.05 7.05 0 000 2.67h.27zM300.58 123.68a7.98 7.98 0 010-2.67h-.27a7.49 7.49 0 000 2.67h.27zM301.13 123.68a8.54 8.54 0 010-2.67h-.27a8.54 8.54 0 000 2.67h.27zM301.67 123.68a9.95 9.95 0 010-2.67h-.27a9.55 9.55 0 000 2.67h.27zM302.21 123.68c-.1-.88-.1-1.79 0-2.67h-.27c-.11.88-.11 1.79 0 2.67h.27zM302.76 123.68c-.09-.88-.09-1.79 0-2.67h-.27c-.09.88-.09 1.79 0 2.67h.27zM303.3 123.68a17 17 0 010-2.67h-.27c-.08.88-.08 1.79 0 2.67h.27zM303.85 123.68c-.05-.88-.05-1.79 0-2.67h-.27c-.06.88-.06 1.79 0 2.67h.27zM304.39 123.68c-.04-.88-.04-1.79 0-2.67h-.27c-.04.88-.04 1.79 0 2.67h.27zM304.94 123.68c-.02-.88-.02-1.79 0-2.67h-.27c-.03.88-.03 1.79 0 2.67h.27zM306.03 121.01h-.27v2.67h.27v-2.67zM306.57 121.01h-.27c.02.88.02 1.79 0 2.67h.27c.03-.88.03-1.79 0-2.67zM307.12 121.01h-.27c.04.88.04 1.79 0 2.67h.27c.04-.88.04-1.79 0-2.67zM307.66 123.68c.06-.88.06-1.79 0-2.67h-.27c.05.88.05 1.79 0 2.67h.27zM308.21 123.68c.08-.88.08-1.79 0-2.67h-.27a17 17 0 010 2.67h.27zM308.75 123.68c.09-.88.09-1.79 0-2.67h-.27c.08.88.08 1.79 0 2.67h.27zM309.3 123.68c.11-.88.11-1.79 0-2.67h-.27c.1.88.1 1.79 0 2.67h.27zM309.84 123.68c.13-.88.13-1.79 0-2.67h-.27c.12.88.12 1.79 0 2.67h.27zM310.38 123.68c.14-.88.14-1.79 0-2.67h-.27c.13.88.13 1.79 0 2.67h.27zM310.93 123.68c.16-.88.16-1.79 0-2.67h-.27c.15.88.15 1.79 0 2.67h.27zM311.47 123.68c.18-.88.18-1.79 0-2.67h-.27c.17.88.17 1.79 0 2.67h.27z"/><g><path class="st1" d="M450 116.34v-1.75l-1.67-2.25-2.31-3.11h-2.26v-1.29H442v1.29h-17.03v-1.29h-1.76v1.29h-2.26l-3.86 5.19V99.3l-9.56.02v-.51a6.68 6.68 0 00-6.64-6.65h-.09a6.77 6.77 0 00-3.07.75 6.8 6.8 0 00-3.26 3.87 6.68 6.68 0 00-.32 2.03v.51l-9.56-.02v14.73l-3.14-2.66v-4.65h-5.47l-6.18-5.24h-15.57l-6.18 5.24h-5.47v4.65l-3.79 3.21-2.14-3.69h-4.52v-.62h-1.48v.62h-8.9v-.62h-1.48v.62h-3.17v6.44h19.67l.3.35v26.41h22.37v-3.24h-20.25v-.23h2.07v-1.55h-2.07v-.22h2.07v-1.47h-2.07v-.22h2.07v-1.48h-2.07v-.22h2.07v-1.48h-2.07v-.22h2.07v-1.47h-2.07v-.22h2.07v-1.48h-2.07v-.22h2.07v-1.48h-2.07v-.22h2.07v-1.47h-2.07v-.22h2.07v-1.48h-2.07v-.22h2.07v-1.48h-2.07v-.22h2.07v-1.47h-2.07v-.22h2.07v-1.48h-2.07v-.22h2.07v-1.48h-2.07v-.22h2.07v-2.53l-1.11.94-.13-.21 15.09-12.81h13.81l15.67 13.31v.31l-1.82-1.54v2.53h1.28v.22h-1.28v1.48h1.28v.22h-1.28v1.48h1.82v.22h-1.82v1.47h1.82v.22h-1.82v1.48h1.82v.22h-1.82v1.48h1.82v.22h-1.82v1.47h1.82v.22h-1.82v1.48h1.82v.22h-1.82v1.48h1.82v.22h-1.82v1.47h1.82v.22h-1.82v1.48h1.82v.22h-1.82v1.48h1.82v.22h-1.82v1.47h1.82v.22h-1.82v1.55h1.82v.23h-20v3.24h33.82v-2.4h-13.52v-.34h13.52v-5.6h4.87v5.6h13.7v.34h-13.7v2.4h46.71v-1.89h-10.02v-.13h10.02V116.6h-32.9v-.26H450zm-121.04-.85h-4.14v-.19c.02-1.12.95-2.04 2.07-2.04s2.05.92 2.07 2.04v.19zm10.23 2.23v-.12h-.24l.32-.27h.37l-.45.39zm102.28 1.71c0-.57.46-1.02 1.02-1.02h2.96c.57 0 1.02.45 1.02 1.02v6.48h-5v-6.48zm0 6.73h5v.79h-5v-.79zm0 6.05c0-.57.46-1.02 1.02-1.02h2.97a1 1 0 011.01 1.02v6.48h-5v-6.48zm0 6.73h5v.79h-5v-.79zm-4.4-1.38h2.7v6.32h-2.7v-6.32zm-6.09-17.89c0-.56.46-1.02 1.02-1.02h2.97c.56 0 1.02.46 1.02 1.02v6.48h-5.01v-6.48zm0 6.73h5.01v.79h-5.01v-.79zm-10.48-6.97c0-.57.45-1.02 1.02-1.02h2.96c.56 0 1.02.45 1.02 1.02v6.48h-5v-6.48zm0 6.73h5v.79h-5v-.79zm-1.89 5.75c0-.4.32-.72.72-.72h15.46c.4 0 .72.32.72.72v1.57c0 .2-.07.37-.2.5a.77.77 0 01-.31.19l-.21.03h-.42v2.88c0 .34-.25.63-.56.63-.31 0-.55-.29-.55-.63v-2.88h-1.12v2.88c0 .34-.25.63-.55.63-.31 0-.56-.29-.56-.63v-2.88h-1.11v2.88c0 .3-.19.56-.44.62l-.11.01c-.08 0-.15-.02-.22-.05s-.13-.08-.18-.14a.66.66 0 01-.16-.44v-2.88h-1.11v2.88c0 .34-.25.63-.56.63s-.56-.29-.56-.63v-2.88h-1.11v2.88c0 .34-.25.63-.55.63-.31 0-.56-.29-.56-.63v-2.88h-1.11v2.88c0 .17-.07.33-.16.44l-.09.08c-.06.04-.12.08-.2.1l-.11.01-.11-.01c-.26-.06-.44-.32-.44-.62v-2.88h-1.12v2.88c0 .34-.25.63-.55.63-.31 0-.56-.29-.56-.63v-2.88h-.58a.7.7 0 01-.52-.22.7.7 0 01-.2-.5v-1.57zm16.5 9.07v-3.11a.7.7 0 00.23-.11v3.45h-16.53v-3.57c.07.08.15.14.24.19v3.15h16.06zm-15.8-.26v-2.83l.04.01a.7.7 0 00.56-.27c.14.17.34.27.56.27.22 0 .42-.1.55-.27.14.17.34.27.56.27.22 0 .42-.1.56-.27.1.13.25.22.42.25a.5.5 0 00.13.02c.22 0 .42-.1.56-.27.13.17.33.27.55.27.22 0 .42-.1.56-.27.14.17.34.27.56.27.22 0 .42-.1.55-.27.14.17.34.27.56.27s.42-.1.55-.27c.14.17.34.27.56.27.22 0 .42-.1.56-.27.13.17.33.27.55.27.22 0 .42-.1.56-.27.14.17.34.27.56.27l.13-.02a.73.73 0 00.42-.25c.13.17.33.27.55.27.22 0 .42-.1.56-.27.14.17.34.27.56.27.22 0 .42-.1.55-.27.14.17.34.27.56.27.22 0 .42-.1.56-.27.13.17.33.27.55.27.22 0 .42-.1.56-.27a.7.7 0 00.48.26v2.83h-15.54zm-1.68 1.35h19.21v.13h-19.21v-.13zm-10.12-38.61h5.89v9.09h-5.89v-9.09zm-.32 9.44h6.53v.68h-6.53v-.68zm-11.5-14.49a5.13 5.13 0 015.12-4.85h.06a5.13 5.13 0 015.12 4.85l.01.35h-10.31v-.35zm8.42 14.49v.68h-6.53v-.68h6.53zm-6.21-.35v-9.09h5.89v9.09h-5.89zm-9.62-9.09h5.89v9.09h-5.89v-9.09zm-.32 9.44h6.53v.68h-6.53v-.68zm-3.07 5.07h.62l.4.34h-1.02v-.34zm9.6 16.89h-6.53v-.68h6.53v.68zm-6.21-1.02v-9.1h5.89v9.1h-5.89zm12.56-4.09a2.4 2.4 0 110-4.81 2.4 2.4 0 010 4.81zm12.88 5.11h-6.53v-.68h6.53v.68zm-6.21-1.02v-9.1h5.89v9.1h-5.89zm9.47-12.93h-32.09v-.34h32.09v.34zm0-2.6h-30.56l.29-.34h30.27v.34zM294.53 102.01h23.53l-3.74-6.43h-2.77v-.63h-1.48v.63h-8.9v-.63h-1.48v.63h-2.77l-2.39 4.11v-9.43h-12.18v53.83h4.63v-5.13h2.94v2.08h4.51v.16h-4.51v2.89h6.63v-41.77h-2.02v-.31zm9.02-2.4a2.08 2.08 0 012.07-2.04c1.12 0 2.05.91 2.07 2.04v.18h-4.14v-.18zm-10.32 37.07h-10v-3.67h10v3.67zm0-5.84h-10v-3.66h10v3.66zm0-5.83h-10v-3.67h10v3.67zm0-5.83h-10v-3.67h10v3.67zm0-5.84h-10v-3.66h10v3.66zm0-5.83h-10v-3.67h10v3.67zm0-5.83h-10v-3.67h10v3.67zm0-5.84h-10v-3.66h10v3.66z"/><path class="st1" d="M368.83 104.13H355.2l-13.71 11.63v24.86h17.95v-2.82c0-1.23 1.09-2.22 2.45-2.22h.25c1.35 0 2.45.99 2.45 2.22v2.82h17.95v-24.86l-13.71-11.63zm-18.64 34.41h-5.25v-.83h5.25v.83zm0-1.09h-5.25v-6.81c0-.59.48-1.07 1.07-1.07h3.11c.59 0 1.07.48 1.07 1.07v6.81zm0-12.82h-5.25v-.83h5.25v.83zm0-1.09h-5.25v-6.81c0-.59.48-1.07 1.07-1.07h3.11c.59 0 1.07.48 1.07 1.07v6.81zm9.8 10.71h-5.26v-3.61c0-.59.48-1.07 1.07-1.07h3.11c.6 0 1.08.48 1.08 1.07v3.61zm0-9.62h-5.26v-.83h5.26v.83zm0-1.09h-5.26v-6.81c0-.59.48-1.07 1.07-1.07h3.11c.6 0 1.08.48 1.08 1.07v6.81zm-2.63-11.94a4.66 4.66 0 019.31 0h-9.31zm12.42 22.65h-5.25v-3.61c0-.59.48-1.07 1.07-1.07h3.11c.59 0 1.07.48 1.07 1.07v3.61zm0-9.62h-5.25v-.83h5.25v.83zm0-1.09h-5.25v-6.81c0-.59.48-1.07 1.07-1.07h3.11c.59 0 1.07.48 1.07 1.07v6.81zm9.8 15h-5.26v-.83h5.26v.83zm0-1.09h-5.26v-6.81c0-.59.48-1.07 1.07-1.07h3.12c.59 0 1.07.48 1.07 1.07v6.81zm0-12.82h-5.26v-.83h5.26v.83zm0-1.09h-5.26v-6.81c0-.59.48-1.07 1.07-1.07h3.12c.59 0 1.07.48 1.07 1.07v6.81z"/><path class="st1" d="M362.01 107.42a4.3 4.3 0 00-4.24 3.8h8.48a4.3 4.3 0 00-4.24-3.8zm-.16 3.47h-3.7c.1-.47.29-.92.55-1.32h3.15v1.32zm0-1.65h-2.9a3.96 3.96 0 012.9-1.49v1.49zm.33-1.49c1.15.05 2.2.62 2.9 1.49h-2.9v-1.49zm0 1.82h3.15c.25.4.44.85.54 1.32h-3.69v-1.32zM349.1 115.9h-3.08c-.44 0-.79.37-.79.84v6.49h4.67v-6.49a.82.82 0 00-.8-.84zm-1.72 7h-1.82v-4.68h1.82v4.68zm0-5.08h-1.82v-1.08c0-.28.21-.5.46-.5h1.36v1.58zm2.18 5.08h-1.81v-4.68h1.81v4.68zm0-5.08h-1.81v-1.58h1.35c.26 0 .46.22.46.5v1.08zM358.9 115.9h-3.08c-.44 0-.8.37-.8.84v6.49h4.67v-6.49c0-.47-.35-.84-.79-.84zm-1.72 7h-1.82v-4.68h1.82v4.68zm0-5.08h-1.82v-1.08c0-.28.21-.5.46-.5h1.36v1.58zm2.18 5.08h-1.82v-4.68h1.82v4.68zm0-5.08h-1.82v-1.58h1.36c.25 0 .46.22.46.5v1.08zM368.69 115.9h-3.08c-.44 0-.79.37-.79.84v6.49h4.67v-6.49a.82.82 0 00-.8-.84zm-1.72 7h-1.82v-4.68h1.82v4.68zm0-5.08h-1.82v-1.08c0-.28.21-.5.46-.5h1.36v1.58zm2.18 5.08h-1.81v-4.68h1.81v4.68zm0-5.08h-1.81v-1.58h1.35c.26 0 .46.22.46.5v1.08zM378.49 115.9h-3.08c-.44 0-.8.37-.8.84v6.49h4.68v-6.49a.82.82 0 00-.8-.84zm-1.72 7h-1.82v-4.68h1.82v4.68zm0-5.08h-1.82v-1.08c0-.28.21-.5.46-.5h1.36v1.58zm2.18 5.08h-1.82v-4.68h1.82v4.68zm0-5.08h-1.82v-1.58h1.36c.25 0 .46.22.46.5v1.08zM349.1 129.81h-3.08c-.44 0-.79.38-.79.84v6.5h4.67v-6.5a.82.82 0 00-.8-.84zm-1.72 7h-1.82v-4.67h1.82v4.67zm0-5.08h-1.82v-1.08c0-.28.21-.5.46-.5h1.36v1.58zm2.18 5.08h-1.81v-4.67h1.81v4.67zm0-5.08h-1.81v-1.58h1.35c.26 0 .46.22.46.5v1.08zM358.9 129.81h-3.08c-.44 0-.8.38-.8.84v3.3h4.67v-3.3c0-.46-.35-.84-.79-.84zm-1.72 3.8h-1.82v-1.47h1.82v1.47zm0-1.88h-1.82v-1.08c0-.28.21-.5.46-.5h1.36v1.58zm2.18 1.88h-1.82v-1.47h1.82v1.47zm0-1.88h-1.82v-1.58h1.36c.25 0 .46.22.46.5v1.08zM368.69 129.81h-3.08c-.44 0-.79.38-.79.84v3.3h4.67v-3.3a.82.82 0 00-.8-.84zm-1.72 3.8h-1.82v-1.47h1.82v1.47zm0-1.88h-1.82v-1.08c0-.28.21-.5.46-.5h1.36v1.58zm2.18 1.88h-1.81v-1.47h1.81v1.47zm0-1.88h-1.81v-1.58h1.35c.26 0 .46.22.46.5v1.08zM378.49 129.81h-3.08c-.44 0-.8.38-.8.84v6.5h4.68v-6.5a.82.82 0 00-.8-.84zm-1.72 7h-1.82v-4.67h1.82v4.67zm0-5.08h-1.82v-1.08c0-.28.21-.5.46-.5h1.36v1.58zm2.18 5.08h-1.82v-4.67h1.82v4.67zm0-5.08h-1.82v-1.58h1.36c.25 0 .46.22.46.5v1.08zM362.13 135.85h-.23c-1.2 0-2.18.96-2.18 2.15v6.09h4.59V138c0-1.19-.98-2.15-2.18-2.15zm1.64 4.61c-.12 0-.22-.11-.22-.25 0-.13.1-.24.22-.24s.21.11.21.24c0 .14-.09.25-.21.25zM317.02 117.6v24.79h7.99v-5.05h3.75v5.05h8.1V117.6h-19.84zm1.82 2.11h3.46v4.7h-3.46v-4.7zm3.64 21.35h-3.78v-.45h3.78v.45zm-3.64-.6v-4.69h3.46v4.69h-3.46zm3.64-6.97h-3.78v-.44h3.78v.44zm-3.64-.6v-4.69h3.46v4.69h-3.46zm3.64-7.89h-3.78v-.44h3.78v.44zm9.07-5.29h3.46v4.7h-3.46v-4.7zm-6.35 0h3.46v4.7h-3.46v-4.7zm3.64 13.78h-3.79v-.44h3.79v.44zm-3.64-.6v-4.69h3.46v4.69h-3.46zm3.64-7.89h-3.79v-.44h3.79v.44zm6.35 16.06h-3.79v-.45h3.79v.45zm-3.64-.6v-4.69h3.46v4.69h-3.46zm3.64-6.97h-3.79v-.44h3.79v.44zm-3.64-.6v-4.69h3.46v4.69h-3.46zm3.64-7.89h-3.79v-.44h3.79v.44zM317.02 142.57h7.99v1.52h-7.99zM328.76 142.57h8.1v1.52h-8.1zM296.76 102.32v33h17.72v-33h-17.72zm3.3 2.44h11.12v4.52H311v-4.34h-10.76v4.34h-.18v-4.52zm8.5 1.62v-1.17h2.21v1.17h-2.21zm2.21.28v2.32h-2.21v-2.32h2.21zm-2.49-1.45v3.77h-5.31v-3.77h5.31zm-7.81 1.17v-1.17h2.23v1.17h-2.23zm2.23.28v2.32h-2.23v-2.32h2.23zm1 26.83h-3.79v-.44h3.79v.44zm-3.64-.6v-4.69h3.46v4.69h-3.46zm11.3.6h-3.78v-.44h3.78v.44zm-3.64-.6v-4.69h3.47v4.69h-3.47zm3.9-9.15h-12a6.95 6.95 0 010-2.8h12c.19.92.19 1.87 0 2.8zm-11.38-7.34v4.33h-.18v-4.51h11.12v4.51H311v-4.33h-10.76zm8.32 1.43v-1.17h2.21v1.17h-2.21zm2.21.28v2.33h-2.21v-2.33h2.21zm-2.49-1.45v3.78h-5.31v-3.78h5.31zm-7.81 1.17v-1.17h2.23v1.17h-2.23zm2.23.28v2.33h-2.23v-2.33h2.23zm8.92-5.83h-12a6.95 6.95 0 010-2.8h12c.19.93.19 1.88 0 2.8zM311.25 142.57h3.23v1.52h-3.23zM303.73 142.57h3.77v1.52h-3.77zM296.76 142.39h3.22v-5.05h3.75v5.05h3.77v-5.05h3.75v5.05h3.23v-6.91h-17.72zM296.76 142.57h3.23v1.52h-3.23zM328.73 114.93a1.89 1.89 0 00-3.68 0c-.03.12-.04.25-.05.37h3.77c0-.12-.02-.25-.04-.37zm-1.93.19h-1.6a1.7 1.7 0 011.6-1.48v1.48zm.18 0v-1.48a1.7 1.7 0 011.59 1.48h-1.59zM314.69 144.09h2.12v-41.77h-2.12z"/><path class="st1" d="M305.48 123.68v-2.67h-.27v2.67h.27zM300.24 128.38v4.33h3.11v-4.33h-3.11zm2.87 4.04h-2.64v-2.32h2.64v2.32zm0-2.61h-2.64v-1.17h2.64v1.17zM307.9 128.38v4.33h3.11v-4.33h-3.11zm2.87 4.04h-2.63v-2.32h2.63v2.32zm0-2.61h-2.63v-1.17h2.63v1.17zM319.02 119.89v4.34h3.11v-4.34h-3.11zm2.87 4.04h-2.63v-2.32h2.63v2.32zm0-2.61h-2.63v-1.16h2.63v1.16zM325.37 119.89v4.34h3.11v-4.34h-3.11zm2.88 4.04h-2.64v-2.32h2.64v2.32zm0-2.61h-2.64v-1.16h2.64v1.16zM331.73 119.89v4.34h3.11v-4.34h-3.11zm2.87 4.04h-2.64v-2.32h2.64v2.32zm0-2.61h-2.64v-1.16h2.64v1.16zM319.02 128.38v4.33h3.11v-4.33h-3.11zm2.87 4.04h-2.63v-2.32h2.63v2.32zm0-2.61h-2.63v-1.17h2.63v1.17zM325.37 128.38v4.33h3.11v-4.33h-3.11zm2.88 4.04h-2.64v-2.32h2.64v2.32zm0-2.61h-2.64v-1.17h2.64v1.17zM331.73 128.38v4.33h3.11v-4.33h-3.11zm2.87 4.04h-2.64v-2.32h2.64v2.32zm0-2.61h-2.64v-1.17h2.64v1.17zM319.02 135.95v4.33h3.11v-4.33h-3.11zm2.87 4.04h-2.63v-2.33h2.63v2.33zm0-2.61h-2.63v-1.17h2.63v1.17zM331.73 135.95v4.33h3.11v-4.33h-3.11zm2.87 4.04h-2.64v-2.33h2.64v2.33zm0-2.61h-2.64v-1.17h2.64v1.17zM307.83 137.71v6.38h3.09v-6.38h-3.09zm2.87 3.72c-.03 0-.06-.14-.06-.3 0-.17.03-.3.06-.3s.05.13.05.3c0 .16-.02.3-.05.3zM325.34 137.71v6.38h3.09v-6.38h-3.09zm2.87 3.72c-.04 0-.06-.14-.06-.3 0-.17.02-.3.06-.3.03 0 .05.13.05.3 0 .16-.02.3-.05.3zM300.31 137.71v6.38h3.09v-6.38h-3.09zm2.87 3.72c-.03 0-.06-.14-.06-.3 0-.17.03-.3.06-.3s.06.13.06.3c0 .16-.03.3-.06.3zM305.62 97.75c-1.03 0-1.87.83-1.88 1.86h3.76a1.88 1.88 0 00-1.88-1.86zm-.09 1.68h-1.6a1.7 1.7 0 011.6-1.48v1.48zm.18-1.48a1.7 1.7 0 011.6 1.48h-1.6v-1.48zM400.87 93.9h-.06a4.75 4.75 0 00-4.77 4.51h9.61a4.77 4.77 0 00-4.78-4.51zm-2.86 4.04h-1.33c.07-.94.54-1.83 1.33-2.5v2.5zm5.07 0h-4.47v-2.93a4.3 4.3 0 012.21-.63h.05c.76 0 1.52.22 2.21.63v2.93zm.59-2.5a3.66 3.66 0 011.34 2.5h-1.34v-2.5z"/><path class="st1" d="M393.81 98.81a7.02 7.02 0 016.99-7h.07a6.86 6.86 0 013.24.8 6.9 6.9 0 013.42 4.07c.22.69.33 1.41.33 2.13v.16l12.05-.02-11.34-14.18h-5.71v-.99h-4.05v.99h-5.71l-11.34 14.18 12.05.02v-.16zM388.51 124.97v8.64h5.44v-8.64h-5.44zm4.88 8.08h-4.33v-5.01h4.33v5.01zm0-5.69h-4.33v-1.71h4.33v1.71zM407.74 124.97v8.64h5.44v-8.64h-5.44zm4.88 8.08h-4.33v-5.01h4.33v5.01zm0-5.69h-4.33v-1.71h4.33v1.71zM388.51 103.69v8.64h5.44v-8.64h-5.44zm4.88 8.08h-4.33v-5.02h4.33v5.02zm0-5.69h-4.33v-1.71h4.33v1.71zM398.12 103.69v8.64h5.44v-8.64h-5.44zm4.89 8.08h-4.33v-5.02h4.33v5.02zm0-5.69h-4.33v-1.71h4.33v1.71zM407.74 103.69v8.64h5.44v-8.64h-5.44zm4.88 8.08h-4.33v-5.02h4.33v5.02zm0-5.69h-4.33v-1.71h4.33v1.71zM400.84 125.18a2.17 2.17 0 000 4.34 2.17 2.17 0 000-4.34zm-.19 3.98a1.82 1.82 0 01-1.63-1.66h1.63v1.66zm0-2.04h-1.62c.11-.84.78-1.5 1.62-1.59v1.59zm.38-1.59c.85.09 1.52.75 1.62 1.59h-1.62v-1.59zm0 3.63v-1.66h1.63a1.82 1.82 0 01-1.63 1.66zM398.78 136.12v7.6h4.13v-7.6h-4.13zm3.56 4.15c-.13 0-.24-.1-.24-.22s.11-.22.24-.22.24.1.24.22-.11.22-.24.22zM445.44 118.68h-2.94c-.39 0-.71.34-.71.75v6.14h4.36v-6.14c0-.41-.32-.75-.71-.75zm-1.59 6.66h-1.83v-4.57h1.83v4.57zm0-4.8h-1.83v-1.11c0-.28.22-.52.48-.52h1.35v1.63zm2.07 4.8h-1.83v-4.57h1.83v4.57zm0-4.8h-1.83v-1.63h1.35c.26 0 .48.24.48.52v1.11zM424.47 118.68h-2.94c-.39 0-.71.34-.71.75v6.14h4.36v-6.14c0-.41-.32-.75-.71-.75zm-1.59 6.66h-1.83v-4.57h1.83v4.57zm0-4.8h-1.83v-1.11c0-.28.22-.52.48-.52h1.35v1.63zm2.07 4.8h-1.83v-4.57h1.83v4.57zm0-4.8h-1.83v-1.63h1.35c.26 0 .48.24.48.52v1.11zM434.95 118.92h-2.93c-.4 0-.71.34-.71.76v6.13h4.35v-6.13c0-.42-.32-.76-.71-.76zm-1.58 6.66h-1.83v-4.56h1.83v4.56zm0-4.8h-1.83v-1.1c0-.29.21-.53.48-.53h1.35v1.63zm2.06 4.8h-1.83v-4.56h1.83v4.56zm0-4.8h-1.83v-1.63h1.35c.27 0 .48.24.48.53v1.1zM445.44 131.47h-2.93c-.4 0-.72.33-.72.74v6.14h4.36v-6.14a.73.73 0 00-.71-.74zm-1.58 6.66h-1.84v-4.58h1.84v4.58zm0-4.81h-1.84v-1.11c0-.28.22-.52.49-.52h1.35v1.63zm2.06 4.81h-1.83v-4.58h1.83v4.58zm0-4.81h-1.83v-1.63h1.35c.26 0 .48.24.48.52v1.11z"/><g><path class="st1" d="M176.63 135.49v8.6h.37v-5.99h18.14v5.99h.36v-8.6h-9.43zM172.76 111.63h1.17v-2.47h-1.17v-1.73h-1.06v-3.65h-2.65v-9.66h-1.42v-1.16h-1.85v1.16h-2.76v-2.43h-1.35v-1.7h-5.08v1.7h-1.35v2.43h-2.76v-1.16h-1.85v1.16h-1.42v9.66h-2.65v3.65h-1.06v34.72h1.68v-1.31h2.03v1.31h7.38V94.12h5.08v48.03h7.38v-1.31h2.03v1.31h1.21v.15h-11.81v1.79h12.28v-.18h1.17v-2.47h-1.17v-2.91h1.17v-2.47h-1.17v-2.91h1.17v-2.47h-1.17v-2.91h1.17v-2.47h-1.17v-2.91h1.17v-2.47h-1.17v-2.91h1.17v-2.47h-1.17v-2.91zm-23.55 27.64h-2.03v-1.47h2.03v1.47zm0-3.04h-2.03v-1.46h2.03v1.46zm0-3.04h-2.03v-1.46h2.03v1.46zm0-3.03h-2.03v-1.47h2.03v1.47zm0-3.04h-2.03v-1.46h2.03v1.46zm0-3.03h-2.03v-1.47h2.03v1.47zm0-3.04h-2.03v-1.47h2.03v1.47zm0-3.04h-2.03v-1.46h2.03v1.46zm0-3.03h-2.03v-1.47h2.03v1.47zm0-3.04h-2.03v-1.46h2.03v1.46zm0-3.04h-2.03v-1.46h2.03v1.46zm0-3.03h-2.03v-1.47h2.03v1.47zm1.52-4.79h1.66v2.12h-1.66v-2.12zm0 10.45h1.66v2.11h-1.66v-2.11zm0 10.45h1.66v2.11h-1.66v-2.11zm0 10.44h1.66v2.11h-1.66v-2.11zm4.51 7.95h-4.51v-2.83h4.51v2.83zm0-5.84h-1.65v-2.11h1.65v2.11zm0-4.6h-4.51v-2.84h4.51v2.84zm0-5.84h-1.65v-2.11h1.65v2.11zm0-4.61h-4.51v-2.83h4.51v2.83zm0-5.84h-1.65v-2.11h1.65v2.11zm0-4.61h-4.51v-2.83h4.51v2.83zm0-5.83h-1.65v-2.12h1.65v2.12zm0-4.61h-4.51v-2.83h4.51v2.83zm7.78 2.49h1.66v2.12h-1.66v-2.12zm0 10.45h1.66v2.11h-1.66v-2.11zm0 10.45h1.66v2.11h-1.66v-2.11zm0 10.44h1.66v2.11h-1.66v-2.11zm4.52 7.95h-4.52v-2.83h4.52v2.83zm0-5.84h-1.66v-2.11h1.66v2.11zm0-4.6h-4.52v-2.84h4.52v2.84zm0-5.84h-1.66v-2.11h1.66v2.11zm0-4.61h-4.52v-2.83h4.52v2.83zm0-5.84h-1.66v-2.11h1.66v2.11zm0-4.61h-4.52v-2.83h4.52v2.83zm0-5.83h-1.66v-2.12h1.66v2.12zm0-4.61h-4.52v-2.83h4.52v2.83zm3.54 40.68h-2.03v-1.47h2.03v1.47zm0-3.04h-2.03v-1.46h2.03v1.46zm0-3.04h-2.03v-1.46h2.03v1.46zm0-3.03h-2.03v-1.47h2.03v1.47zm0-3.04h-2.03v-1.46h2.03v1.46zm0-3.03h-2.03v-1.47h2.03v1.47zm0-3.04h-2.03v-1.47h2.03v1.47zm0-3.04h-2.03v-1.46h2.03v1.46zm0-3.03h-2.03v-1.47h2.03v1.47zm0-3.04h-2.03v-1.46h2.03v1.46zm0-3.04h-2.03v-1.46h2.03v1.46zm0-3.03h-2.03v-1.47h2.03v1.47z"/><path class="st1" d="M188.91 143.84v.25h2.83v-5.7h-2.83zM192.01 143.84v.25h2.86v-5.7h-2.86zM186.19 138.39v5.7h2.45v-5.7h-2.45zm.46 3.59h-.16v-1.2h.16v1.2zM180.4 138.39h2.83v5.7h-2.83zM177.27 138.39h2.86v5.7h-2.86zM183.5 138.39v5.7h2.44v-5.7h-2.44zm2.15 3.59h-.16v-1.31h.16v1.31zM156.74 94.28v47.87h1.04v-2.88h2.7v2.88h1.04V94.28h-4.78zm3.69 37.4h-2.6v-2.83h2.6v2.83zm0-10.34h-2.6v-2.83h2.6v2.83zm0-10.34h-2.6v-2.83h2.6V111zm0-10.34h-2.6v-2.83h2.6v2.83zM147.18 142.3h-1.68v1.79H157.78v-1.79h-8.57z"/><path class="st1" d="M157.94 139.43v4.55h2.39v-4.55h-2.39zm.24 2.78c-.02 0-.04-.09-.04-.21s.02-.22.04-.22.04.1.04.22-.02.21-.04.21zM150.84 95.87v2.6h4.3v-2.6h-4.3zm4.14 2.45h-3.99v-2.29h3.99v2.29zM150.84 106.32v2.6h4.3v-2.6h-4.3zm4.14 2.44h-3.99v-2.29h3.99v2.29zM150.84 116.77v2.59h4.3v-2.59h-4.3zm4.14 2.44h-3.99v-2.29h3.99v2.29zM150.84 127.21v2.6h4.3v-2.6h-4.3zm4.14 2.44h-3.99v-2.28h3.99v2.28zM150.84 137.66v2.59h4.3v-2.59h-4.3zm4.14 2.44h-3.99v-2.29h3.99v2.29zM150.82 101.18v1.92h1.48v-1.92h-1.48zm1.32 1.77h-1.17v-1.61h1.17v1.61zM153.67 101.18v1.92h1.49v-1.92h-1.49zm1.33 1.77h-1.17v-1.61H155v1.61zM150.82 111.63v1.92h1.48v-1.92h-1.48zm1.32 1.76h-1.17v-1.61h1.17v1.61zM153.67 111.63v1.92h1.49v-1.92h-1.49zm1.33 1.76h-1.17v-1.61H155v1.61zM150.82 122.07v1.92h1.48v-1.92h-1.48zm1.32 1.77h-1.17v-1.61h1.17v1.61zM153.67 122.07v1.92h1.49v-1.92h-1.49zm1.33 1.77h-1.17v-1.61H155v1.61zM150.82 132.52v1.92h1.48v-1.92h-1.48zm1.32 1.76h-1.17v-1.61h1.17v1.61zM153.67 132.52v1.92h1.49v-1.92h-1.49zm1.33 1.76h-1.17v-1.61H155v1.61zM163.13 95.87v2.6h4.3v-2.6h-4.3zm4.15 2.45h-4v-2.29h4v2.29zM163.13 106.32v2.6h4.3v-2.6h-4.3zm4.15 2.44h-4v-2.29h4v2.29zM163.13 116.77v2.59h4.3v-2.59h-4.3zm4.15 2.44h-4v-2.29h4v2.29zM163.13 127.21v2.6h4.3v-2.6h-4.3zm4.15 2.44h-4v-2.28h4v2.28zM163.13 137.66v2.59h4.3v-2.59h-4.3zm4.15 2.44h-4v-2.29h4v2.29zM163.11 101.18v1.92h1.48v-1.92h-1.48zm1.33 1.77h-1.17v-1.61h1.17v1.61zM165.97 101.18v1.92h1.48v-1.92h-1.48zm1.32 1.77h-1.17v-1.61h1.17v1.61zM163.11 111.63v1.92h1.48v-1.92h-1.48zm1.33 1.76h-1.17v-1.61h1.17v1.61zM165.97 111.63v1.92h1.48v-1.92h-1.48zm1.32 1.76h-1.17v-1.61h1.17v1.61zM163.11 122.07v1.92h1.48v-1.92h-1.48zm1.33 1.77h-1.17v-1.61h1.17v1.61zM165.97 122.07v1.92h1.48v-1.92h-1.48zm1.32 1.77h-1.17v-1.61h1.17v1.61zM163.11 132.52v1.92h1.48v-1.92h-1.48zm1.33 1.76h-1.17v-1.61h1.17v1.61zM165.97 132.52v1.92h1.48v-1.92h-1.48zm1.32 1.76h-1.17v-1.61h1.17v1.61zM157.95 97.97v2.56h2.36v-2.56h-2.36zm2.2 2.41h-2.04v-2.26h2.04v2.26zM157.95 108.31v2.56h2.36v-2.56h-2.36zm2.2 2.4h-2.04v-2.25h2.04v2.25zM157.95 118.65v2.56h2.36v-2.56h-2.36zm2.2 2.4h-2.04v-2.25h2.04v2.25zM157.95 128.99v2.56h2.36v-2.56h-2.36zm2.2 2.4h-2.04v-2.25h2.04v2.25zM38.79 106.94v7.16h4.64v-7.16h-4.64zm4.28 6.8h-3.92v-4.47h3.92v4.47zm0-4.83h-3.92v-1.62h3.92v1.62zm-4.28-1.97v7.16h4.64v-7.16h-4.64zm4.28 6.8h-3.92v-4.47h3.92v4.47zm0-4.83h-3.92v-1.62h3.92v1.62zm-4.28-1.97v7.16h4.64v-7.16h-4.64zm4.28 6.8h-3.92v-4.47h3.92v4.47zm0-4.83h-3.92v-1.62h3.92v1.62zm-4.28 12.35v7.17h4.64v-7.17h-4.64zm4.28 6.81h-3.92v-4.47h3.92v4.47zm0-4.83h-3.92v-1.62h3.92v1.62zm4.95-16.3v7.16h4.64v-7.16h-4.64zm4.28 6.8h-3.93v-4.47h3.93v4.47zm0-4.83h-3.93v-1.62h3.93v1.62zm-4.28-1.97v7.16h4.64v-7.16h-4.64zm4.28 6.8h-3.93v-4.47h3.93v4.47zm0-4.83h-3.93v-1.62h3.93v1.62zm-13.51-1.97v7.16h4.64v-7.16h-4.64zm4.28 6.8h-3.92v-4.47h3.92v4.47zm0-4.83h-3.92v-1.62h3.92v1.62zm-4.28 12.35v7.17h4.64v-7.17h-4.64zm4.28 6.81h-3.92v-4.47h3.92v4.47zm0-4.83h-3.92v-1.62h3.92v1.62zm102.39 7.33v-79.6H117.5v44.17a21.17 21.17 0 00-13.61-4.73c-6.13 0-11.78 2.38-15.48 6.52l1.3 1.16v-.01a16.58 16.58 0 015.35-3.97 20.82 20.82 0 018.83-1.95c3.52 0 6.87.84 9.7 2.39 1.45.8 2.76 1.8 3.91 2.95v.27c-3.34-3.45-8.25-5.44-13.61-5.44-5.59 0-10.71 2.14-14.05 5.88l-.12.13-.01-.01v15.5l-3.58-4.82h-2.26v-1.28h-1.75v1.28h-2.98v7.11h10.57v.34H78.85V99.69h-10.5v16.77H57.1v.02h-1.19v1.17h1.19v.21h-1.4v-1.59h1.53v-.15h10.83v-7.11h-2.98v-1.28h-1.76v1.28h-2.25l-3.67 4.93v-.62h-2.09v1.64h1.33l-.15.21H55.1v-2.06h2.13v-1.08H55.7v-1.59h1.53v-1.1H55.1v-2.05h2.13v-1.08H55.7v-1.59h1.53v-1.1H55.1v-2.06h1.42l-10.8-9.83-10.77 9.83h1.4v2.06h-2.13v1.1h1.53v1.59h-1.53v1.08h2.13v2.05h-2.13v1.1h1.53v1.59h-1.53v1.08h2.13v2.06h-1.19l-.37-.21h1.35v-1.64h-2.1v1.22l-1.15-.64-6.88-3.87-8.99-5.04-17.01 9.55v2.13l17.01-9.56 17.02 9.56v.27l-17.02-9.55-17.01 9.55v24.72h14.9v-4.03c0-.64.52-1.15 1.16-1.15h1.83c.68 0 1.24.55 1.24 1.23v3.95H34.2v-.71h1.34v-1.17H34.2v-1.51h1.94v-1.65H34.2v-1.49h1.34v-1.18H34.2v-1.51h1.94v-1.64H34.2v-1.5h1.34v-1.17H34.2v-1.52h1.94v-1.64H34.2v-1.49h1.34v-1.18H34.2v-1.51h1.94v-1.64H34.2v-1.5h1.34v-1.17h-.13l.02-.04.09-.17h.23v1.59h-1.53v1.08h2.13V121h-2.13v1.1h1.53v1.58h-1.53v1.08h2.13v2.06h-2.13v1.1h1.53v1.59h-1.53v1.08h2.13v2.06h-2.13v1.1h1.53v1.59h-1.53v1.08h2.13v2.05h-2.13v1.1h1.53v1.59h-1.53v1.08h9.15v-5.74h4.71v5.74h9.02v.21h-9.02v1.64h9.32v-.02h13.75v-2.63H57.23v-.27h13.92v-3.07c0-1.17 1.04-2.12 2.33-2.12h.24c1.29 0 2.33.95 2.33 2.12v3.07h13.31v.27H76.05v2.63h13.31v.02h12.22v-1.02H90.1v-.21h11.48v-.72H90.1v-.18h11.48v-1.08H90.1v-.18h11.48v-1.41l.05-.1a2 2 0 011.8-1.06 2 2 0 011.79 1.06l.05.1v1.41h12.23v.18h-12.23v1.08h12.23v.18h-12.23v.72h12.23v.13h3.61v.17h-2.69v-.09h-13.15v1.02h40.19v-.93h-3.04v-.17h3.04v-7.11h-27.39v-.37h27.07v-4.68h-27.07v-.26h27.39zm-15.22-2h-5.08v-3.8h5.08v3.8zm0-13.16h-5.08v-3.8h5.08v3.8zm0-13.16h-5.08v-3.8h5.08v3.8zm0-13.15h-5.08v-3.8h5.08v3.8zm0-13.16h-5.08v-3.8h5.08v3.8zm0-13.16h-5.08v-3.8h5.08v3.8zm13.96 65.79h-5.08v-3.8h5.08v3.8zm0-13.16h-5.08v-3.8h5.08v3.8zm0-13.16h-5.08v-3.8h5.08v3.8zm0-13.15h-5.08v-3.8h5.08v3.8zm0-13.16h-5.08v-3.8h5.08v3.8zm0-13.16h-5.08v-3.8h5.08v3.8zm-11.48-10.49h11.48v4.16h-11.48v-4.16zm0 6.69h5.08v3.8h-5.08v-3.8zm0 6.46h11.48v4.17h-11.48v-4.17zm0 6.7h5.08v3.8h-5.08v-3.8zm0 6.46h11.48v4.17h-11.48V78.6zm0 6.7h5.08v3.8h-5.08v-3.8zm0 6.46h11.48v4.16h-11.48v-4.16zm0 6.69h5.08v3.8h-5.08v-3.8zm0 6.46h11.48v4.17h-11.48v-4.17zm0 6.7h5.08v3.8h-5.08v-3.8zm0 6.46h11.48v4.17h-11.48v-4.17zm0 6.7h5.08v3.8h-5.08v-3.8zm-1.3-68.18l.06-.01a.9.9 0 010 1.81l-.06-.01a.88.88 0 01-.84-.89.9.9 0 01.84-.9zm0 13.16l.06-.01a.9.9 0 010 1.81l-.06-.01a.9.9 0 01-.84-.9c0-.47.37-.87.84-.89zm.06 13.15a.9.9 0 010 1.81.9.9 0 010-1.81zm0 13.15a.9.9 0 010 1.81.9.9 0 010-1.81zm0 13.16a.9.9 0 010 1.81.9.9 0 010-1.81zm0 13.16a.9.9 0 010 1.81.9.9 0 010-1.81zm-12.72-70.08h11.48v4.16h-11.48v-4.16zm0 6.69h5.08v3.8h-5.08v-3.8zm0 6.46h11.48v4.17h-11.48v-4.17zm0 6.7h5.08v3.8h-5.08v-3.8zm0 6.46h11.48v4.17h-11.48V78.6zm0 6.7h5.08v3.8h-5.08v-3.8zm0 6.46h11.48v4.16h-11.48v-4.16zm0 6.69h5.08v3.8h-5.08v-3.8zm0 6.46h11.48v4.17h-11.48v-4.17zm0 6.7h5.08v3.8h-5.08v-3.8zm0 6.46h11.48v4.17h-11.48v-4.17zm0 6.7h5.08v3.8h-5.08v-3.8zm-91.94-5.29h4.97v7.68h-4.97v-7.68zm0 7.88h4.97v.71h-4.97v-.71zm2.72 3.54v3.07c0 .37-.33.67-.74.67s-.74-.3-.74-.67v-3.07h1.48zm-4.43 0h1.48v3.07c0 .37-.33.67-.74.67s-.74-.3-.74-.67v-3.07zm0 3.66a1.02 1.02 0 001.48 0 1.01 1.01 0 001.47 0c.18.19.45.32.74.32s.56-.13.74-.32a1.01 1.01 0 001.47 0c.17.18.41.29.67.31v5.26H20.92v-5.39a1 1 0 001.24-.18 1.02 1.02 0 001.48 0c.18.19.44.32.74.32a1 1 0 00.73-.32zm-2.95-.59v-3.07h1.48v3.07c0 .37-.33.67-.74.67s-.74-.3-.74-.67zm1.63-6.81h-4.97v-7.68h4.97v7.68zM7.46 130.9h1.47v3.07c0 .37-.33.67-.73.67-.41 0-.74-.3-.74-.67v-3.07zm.74 3.98c.29 0 .55-.13.73-.32.18.19.45.32.74.32s.56-.13.74-.32a1.01 1.01 0 001.47 0 1.02 1.02 0 001.25.18v5.39H2.36v-5.26c.27-.02.51-.13.68-.31a1 1 0 00.73.32c.3 0 .56-.13.74-.32.18.19.44.32.74.32a1 1 0 00.73-.32 1.02 1.02 0 001.48 0c.18.19.44.32.74.32zm2.21-.91v-3.07h1.47v3.07c0 .37-.33.67-.74.67-.4 0-.73-.3-.73-.67zm-5.9 0v-3.07h1.47v3.07c0 .37-.33.67-.73.67-.41 0-.74-.3-.74-.67zm-2.12-14.49h4.97v7.68H2.39v-7.68zm0 7.88h4.97v.71H2.39v-.71zm-.83 6.61v-3.07h1.48v3.07c0 .37-.34.67-.74.67-.41 0-.74-.3-.74-.67zm12.04 6.63H1.89v-5.81c.07.03.15.06.24.07v5.51h11.24v-5.8c.06.07.14.13.23.18v5.85zm1.23-6.63c0 .37-.33.67-.74.67-.4 0-.73-.3-.73-.67v-3.07h1.47v3.07zm.52-5.9h-4.96v-.71h4.96v.71zm0-.91h-4.96v-7.68h4.96v7.68zm2.39 6.81c0 .37-.32.66-.72.67-.4-.01-.71-.3-.71-.67v-3.07h1.43v3.07zm-4.95-18.16v-3.11l.05-.06a5.03 5.03 0 014.18-1.95c1.77 0 3.33.73 4.19 1.95l.04.06v3.11h-8.46zm6.03 12.26v-.71h4.97v.71h-4.97zm.4 5.9v-3.07h1.47v3.07c0 .37-.33.67-.74.67-.4 0-.73-.3-.73-.67zm12.93 6.63h-11.7v-5.85c.08-.05.16-.11.23-.18v5.8h11.24v-5.51a.88.88 0 00.23-.07v5.81zm.34-6.63c0 .37-.33.67-.74.67s-.74-.3-.74-.67v-3.07h1.48v3.07zm10.94-34.96a2.28 2.28 0 012.27-2.28h.04a2.28 2.28 0 012.28 2.28v2.12h-4.59v-2.12zm-4.89 15.51h5.14v.53h-5.14v-.53zm5.14 14.86h-5.14v-.54h5.14v.54zm.01-.71h-5.16v-7.65h5.16v7.65zm0-14.31h-5.15v-7.65h5.15v7.65zm9.22 15.02h-5.15v-.54h5.15v.54zm0-.74h-5.15v-7.65h5.15v7.65zm0-13.59h-5.15v-.53h5.15v.53zm.01-.72h-5.15v-7.65h5.15v7.65zm4.18 25.45h-1.19v1.17h1.19v.21h-1.4v-1.59h1.4v.21zm0-3.16h-1.79v1.65h1.79v.2h-2v-2.05h2v.2zm0-2.67h-1.19v1.18h1.19v.21h-1.4v-1.59h1.4v.2zm0-3.15h-1.79v1.64h1.79v.21h-2v-2.06h2v.21zm0-2.67h-1.19v1.17h1.19v.21h-1.4v-1.59h1.4v.21zm0-3.16h-1.79v1.64h1.79v.21h-2v-2.06h2v.21zm0-2.67h-1.19v1.18h1.19v.2h-1.4v-1.58h1.4v.2zm0-3.15h-1.79v1.64h1.79v.21h-2v-2.06h2v.21zm8.52 19.18h-5.01v-.78h5.01v.78zm0-1.04h-5.01v-6.48c0-.56.46-1.02 1.02-1.02h2.97c.56 0 1.02.46 1.02 1.02v6.48zm0-10.37h-5.01v-.79h5.01v.79zm0-1.04h-5.01v-6.48c0-.56.46-1.02 1.02-1.02h2.97c.56 0 1.02.46 1.02 1.02v6.48zm9.98 8.15h-4v-3.4c0-.45.37-.81.82-.81h2.36c.45 0 .82.36.82.81v3.4zm.5-6.87h-5v-.79h5v.79zm0-1.04h-5v-6.48c0-.56.45-1.02 1.02-1.02h2.96c.56 0 1.02.46 1.02 1.02v6.48zm-4.5-10.18v-3.4c0-.45.37-.81.82-.81h2.36c.45 0 .82.36.82.81v3.4h-4zm2-7.73a3.26 3.26 0 010-6.5 3.26 3.26 0 010 6.5zm12.99 30.12h-5.01v-.78h5.01v.78zm0-1.04h-5.01v-6.48c0-.56.46-1.02 1.02-1.02h2.97c.56 0 1.02.46 1.02 1.02v6.48zm0-10.37h-5.01v-.79h5.01v.79zm0-1.04h-5.01v-6.48c0-.56.46-1.02 1.02-1.02h2.97c.56 0 1.02.46 1.02 1.02v6.48zm25.11-25.74l.05-.09a2.08 2.08 0 011.79-.91c.77 0 1.44.34 1.79.91l.06.09v4.12h-3.69v-4.12zm-.02 4.28h3.72v.44h-3.72v-.44zm3.71 4.95v4.12h-3.69v-4.12l.05-.08a2.08 2.08 0 011.79-.91c.77 0 1.44.34 1.79.91l.06.08zm-3.71 4.29h3.72v.44h-3.72v-.44zm-4.66-14.52c.77 0 1.44.34 1.8.91l.05.09v3.96h.6c.34.93.34 1.97 0 2.9h-4.89a4.25 4.25 0 010-2.9h.6v-3.96l.05-.09a2.08 2.08 0 011.79-.91zm2.45 14.15c.34.93.34 1.97 0 2.9h-4.89a4.25 4.25 0 010-2.9h.6v-3.92l.05-.08a2.08 2.08 0 011.79-.91c.77 0 1.44.34 1.8.91l.05.08v3.92h.6zm-5.58-19.64a1.59 1.59 0 110 3.17 1.59 1.59 0 010-3.17zm-5.81 10.45h.58v-3.96l.06-.09a2.05 2.05 0 011.79-.91c.76 0 1.43.34 1.79.91l.05.09v3.96h.61c.35.93.35 1.97 0 2.9h-4.88a4.14 4.14 0 010-2.9zm0 9.19h.58v-3.92l.06-.08a2.05 2.05 0 011.79-.91c.76 0 1.43.34 1.79.91l.05.08v3.92h.61c.35.93.35 1.97 0 2.9h-4.88a4.14 4.14 0 010-2.9zm-5.94-13.15l.06-.09a2.05 2.05 0 011.79-.91c.76 0 1.43.34 1.79.91l.06.09v4.12h-3.7v-4.12zm-.01 4.28h3.72v.44h-3.72v-.44zm3.71 4.95v4.12h-3.7v-4.12l.06-.08a2.05 2.05 0 011.79-.91c.76 0 1.43.34 1.79.91l.06.08zm-3.71 4.29h3.72v.44h-3.72v-.44zm3.72 23.07h-3.72v-.44h3.72v.44zm-3.71-.61V132l.06-.08a2.05 2.05 0 011.79-.91c.76 0 1.43.34 1.79.91l.06.08v4.12h-3.7zm3.71-8.63h-3.72v-.44h3.72v.44zm-3.71-.6v-4.12l.06-.09a2.05 2.05 0 011.79-.91c.76 0 1.43.34 1.79.91l.06.09v4.12h-3.7zm10.21 9.23h-3.69V132l.06-.08a2.05 2.05 0 011.79-.91c.76 0 1.43.34 1.79.91l.05.08v4.12zm.61-6.33h-4.88a4.14 4.14 0 010-2.9h.58v-4.12l.06-.09a2.05 2.05 0 011.79-.91c.76 0 1.43.34 1.79.91l.05.09v4.12h.61c.35.93.35 1.97 0 2.9zm5.91 6.33h-3.69V132l.05-.08a2.08 2.08 0 011.79-.91c.77 0 1.44.34 1.8.91l.05.08v4.12zm.6-6.33h-4.89a4.25 4.25 0 010-2.9h.6v-4.12l.05-.09a2.08 2.08 0 011.79-.91c.77 0 1.44.34 1.8.91l.05.09v4.12h.6c.34.93.34 1.97 0 2.9zm5.93 6.94h-3.72v-.44h3.72v.44zm-3.7-.61V132l.05-.08a2.08 2.08 0 011.79-.91c.77 0 1.44.34 1.79.91l.06.08v4.12h-3.69zm3.7-8.63h-3.72v-.44h3.72v.44zm-3.7-.6v-4.12l.05-.09a2.08 2.08 0 011.79-.91c.77 0 1.44.34 1.79.91l.06.09v4.12h-3.69zm5.8-7.11H90.1v-.18h27.4v.18zm0-1.18H90.1v-.18h27.4v.18zm21.3 18.39h3.35v1.44h-3.35v-1.44zm0 1.67h3.35v2.82h-3.35v-2.82zm0 3.04h3.35v1.29h-3.35v-1.29zm-3.88-4.71h3.36v1.44h-3.36v-1.44zm0 1.67h3.36v2.82h-3.36v-2.82zm0 3.04h3.36v1.29h-3.36v-1.29zm-6.05 1.29h5.79v.17h-5.79v-.17zm-3.62-6h3.35v1.44h-3.35v-1.44zm0 1.67h3.35v2.82h-3.35v-2.82zm0 3.04h3.35v1.29h-3.35v-1.29zm-3.88-4.71h3.36v1.44h-3.36v-1.44zm0 1.67h3.36v2.82h-3.36v-2.82zm0 3.04h3.36v1.29h-3.36v-1.29zm20.16-10.7h3.35v4.34h-3.35V131zm-3.98 0h3.75v4.34h-3.75V131zm-3.97 0h3.75v4.34h-3.75V131zm-3.97 0h3.74v4.34h-3.74V131zm-3.98 0h3.75v4.34h-3.75V131zm-3.97 0h3.75v4.34h-3.75V131zm-3.58 0h3.35v4.34h-3.35V131zm-65.42-9.74h-4.64v7.17h4.64v-7.17zm-.36 6.81h-3.93v-4.47h3.93v4.47zm0-4.83h-3.93v-1.62h3.93v1.62zm.36-16.3h-4.64v7.16h4.64v-7.16zm-.36 6.8h-3.93v-4.47h3.93v4.47zm0-4.83h-3.93v-1.62h3.93v1.62zm-8.87 12.35h-4.64v7.17h4.64v-7.17zm-.36 6.81h-3.92v-4.47h3.92v4.47zm0-4.83h-3.92v-1.62h3.92v1.62zm.36-16.3h-4.64v7.16h4.64v-7.16zm-.36 6.8h-3.92v-4.47h3.92v4.47zm0-4.83h-3.92v-1.62h3.92v1.62zm-4.28-1.97v7.16h4.64v-7.16h-4.64zm4.28 6.8h-3.92v-4.47h3.92v4.47zm0-4.83h-3.92v-1.62h3.92v1.62zm4.95-1.97v7.16h4.64v-7.16h-4.64zm4.28 6.8h-3.93v-4.47h3.93v4.47zm0-4.83h-3.93v-1.62h3.93v1.62zm-4.28-1.97v7.16h4.64v-7.16h-4.64zm4.28 6.8h-3.93v-4.47h3.93v4.47zm0-4.83h-3.93v-1.62h3.93v1.62zm-13.51-1.97v7.16h4.64v-7.16h-4.64zm4.28 6.8h-3.92v-4.47h3.92v4.47zm0-4.83h-3.92v-1.62h3.92v1.62z"/><g><path class="st1" d="M118.92 52.5v3.74h11.16V52.5h-11.16zm2.82 3.52h-2.59V52.7h2.59v3.32zm2.67 0h-2.52V52.7h2.52v3.32zm2.68 0h-2.52V52.7h2.52v3.32zm2.74 0h-2.59V52.7h2.59v3.32zM118.91 59.17v3.42h4.76v-3.42h-4.76zm2.31 3.22h-2.12v-3.03h2.12v3.03zm2.26 0h-2.12v-3.03h2.12v3.03zM125.31 59.17v3.42h4.76v-3.42h-4.76zm2.31 3.22h-2.12v-3.03h2.12v3.03zm2.27 0h-2.13v-3.03h2.13v3.03zM132.88 52.5v3.74h11.16V52.5h-11.16zm2.82 3.52h-2.59V52.7h2.59v3.32zm2.67 0h-2.51V52.7h2.51v3.32zm2.68 0h-2.52V52.7h2.52v3.32zm2.75 0h-2.6V52.7h2.6v3.32zM132.87 59.17v3.42h4.76v-3.42h-4.76zm2.31 3.22h-2.12v-3.03h2.12v3.03zm2.26 0h-2.12v-3.03h2.12v3.03zM139.27 59.17v3.42h4.77v-3.42h-4.77zm2.32 3.22h-2.13v-3.03h2.13v3.03zm2.26 0h-2.13v-3.03h2.13v3.03zM131.48 56.74l-.06.01a.73.73 0 00-.68.74c0 .39.3.71.68.74h.06c.41 0 .74-.33.74-.74a.75.75 0 00-.74-.75zm0 1.38h-.06a.64.64 0 01-.57-.63c0-.33.25-.6.57-.63h.06c.35 0 .63.28.63.63 0 .34-.28.63-.63.63zM118.92 65.65v3.75h11.16v-3.75h-11.16zm2.82 3.53h-2.59v-3.32h2.59v3.32zm2.67 0h-2.52v-3.32h2.52v3.32zm2.68 0h-2.52v-3.32h2.52v3.32zm2.74 0h-2.59v-3.32h2.59v3.32zM118.91 72.33v3.42h4.76v-3.42h-4.76zm2.31 3.22h-2.12v-3.03h2.12v3.03zm2.26 0h-2.12v-3.03h2.12v3.03zM125.31 72.33v3.42h4.76v-3.42h-4.76zm2.31 3.22h-2.12v-3.03h2.12v3.03zm2.27 0h-2.13v-3.03h2.13v3.03zM132.88 65.65v3.75h11.16v-3.75h-11.16zm2.82 3.53h-2.59v-3.32h2.59v3.32zm2.67 0h-2.51v-3.32h2.51v3.32zm2.68 0h-2.52v-3.32h2.52v3.32zm2.75 0h-2.6v-3.32h2.6v3.32zM132.87 72.33v3.42h4.76v-3.42h-4.76zm2.31 3.22h-2.12v-3.03h2.12v3.03zm2.26 0h-2.12v-3.03h2.12v3.03zM139.27 72.33v3.42h4.77v-3.42h-4.77zm2.32 3.22h-2.13v-3.03h2.13v3.03zm2.26 0h-2.13v-3.03h2.13v3.03zM131.48 69.9h-.06a.74.74 0 00-.68.74c0 .4.3.72.68.75h.06c.41 0 .74-.33.74-.75a.74.74 0 00-.74-.74zm0 1.37h-.06a.63.63 0 010-1.25h.06a.63.63 0 110 1.25zM118.92 78.81v3.75h11.16v-3.75h-11.16zm2.82 3.53h-2.59v-3.33h2.59v3.33zm2.67 0h-2.52v-3.33h2.52v3.33zm2.68 0h-2.52v-3.33h2.52v3.33zm2.74 0h-2.59v-3.33h2.59v3.33zM118.91 85.49v3.42h4.76v-3.42h-4.76zm2.31 3.22h-2.12v-3.04h2.12v3.04zm2.26 0h-2.12v-3.04h2.12v3.04zM125.31 85.49v3.42h4.76v-3.42h-4.76zm2.31 3.22h-2.12v-3.04h2.12v3.04zm2.27 0h-2.13v-3.04h2.13v3.04zM132.88 78.81v3.75h11.16v-3.75h-11.16zm2.82 3.53h-2.59v-3.33h2.59v3.33zm2.67 0h-2.51v-3.33h2.51v3.33zm2.68 0h-2.52v-3.33h2.52v3.33zm2.75 0h-2.6v-3.33h2.6v3.33zM132.87 85.49v3.42h4.76v-3.42h-4.76zm2.31 3.22h-2.12v-3.04h2.12v3.04zm2.26 0h-2.12v-3.04h2.12v3.04zM139.27 85.49v3.42h4.77v-3.42h-4.77zm2.32 3.22h-2.13v-3.04h2.13v3.04zm2.26 0h-2.13v-3.04h2.13v3.04zM131.48 83.06a.74.74 0 00-.74.74c0 .41.33.75.74.75s.74-.34.74-.75a.74.74 0 00-.74-.74zm0 1.37a.63.63 0 01-.63-.63c0-.35.28-.63.63-.63s.63.28.63.63-.28.63-.63.63zM118.92 91.97v3.74h11.16v-3.74h-11.16zm2.82 3.53h-2.59v-3.33h2.59v3.33zm2.67 0h-2.52v-3.33h2.52v3.33zm2.68 0h-2.52v-3.33h2.52v3.33zm2.74 0h-2.59v-3.33h2.59v3.33zM118.91 98.64v3.42h4.76v-3.42h-4.76zm2.31 3.22h-2.12v-3.03h2.12v3.03zm2.26 0h-2.12v-3.03h2.12v3.03zM125.31 98.64v3.42h4.76v-3.42h-4.76zm2.31 3.22h-2.12v-3.03h2.12v3.03zm2.27 0h-2.13v-3.03h2.13v3.03zM132.88 91.97v3.74h11.16v-3.74h-11.16zm2.82 3.53h-2.59v-3.33h2.59v3.33zm2.67 0h-2.51v-3.33h2.51v3.33zm2.68 0h-2.52v-3.33h2.52v3.33zm2.75 0h-2.6v-3.33h2.6v3.33zM132.87 98.64v3.42h4.76v-3.42h-4.76zm2.31 3.22h-2.12v-3.03h2.12v3.03zm2.26 0h-2.12v-3.03h2.12v3.03zM139.27 98.64v3.42h4.77v-3.42h-4.77zm2.32 3.22h-2.13v-3.03h2.13v3.03zm2.26 0h-2.13v-3.03h2.13v3.03zM131.48 96.21a.75.75 0 00-.74.75.74.74 0 101.48 0 .75.75 0 00-.74-.75zm0 1.38a.63.63 0 01-.63-.63c0-.35.28-.63.63-.63s.63.28.63.63-.28.63-.63.63zM118.92 105.12v3.75h11.16v-3.75h-11.16zm2.82 3.53h-2.59v-3.32h2.59v3.32zm2.67 0h-2.52v-3.32h2.52v3.32zm2.68 0h-2.52v-3.32h2.52v3.32zm2.74 0h-2.59v-3.32h2.59v3.32zM118.91 111.8v3.42h4.76v-3.42h-4.76zm2.31 3.22h-2.12v-3.03h2.12v3.03zm2.26 0h-2.12v-3.03h2.12v3.03zM125.31 111.8v3.42h4.76v-3.42h-4.76zm2.31 3.22h-2.12v-3.03h2.12v3.03zm2.27 0h-2.13v-3.03h2.13v3.03zM132.88 105.12v3.75h11.16v-3.75h-11.16zm2.82 3.53h-2.59v-3.32h2.59v3.32zm2.67 0h-2.51v-3.32h2.51v3.32zm2.68 0h-2.52v-3.32h2.52v3.32zm2.75 0h-2.6v-3.32h2.6v3.32zM132.87 111.8v3.42h4.76v-3.42h-4.76zm2.31 3.22h-2.12v-3.03h2.12v3.03zm2.26 0h-2.12v-3.03h2.12v3.03zM139.27 111.8v3.42h4.77v-3.42h-4.77zm2.32 3.22h-2.13v-3.03h2.13v3.03zm2.26 0h-2.13v-3.03h2.13v3.03zM131.48 109.37a.74.74 0 00-.74.75.74.74 0 101.48 0 .74.74 0 00-.74-.75zm0 1.37a.63.63 0 110-1.25.63.63 0 110 1.25zM118.92 118.28v3.75h11.16v-3.75h-11.16zm2.82 3.53h-2.59v-3.33h2.59v3.33zm2.67 0h-2.52v-3.33h2.52v3.33zm2.68 0h-2.52v-3.33h2.52v3.33zm2.74 0h-2.59v-3.33h2.59v3.33zM118.91 124.96v3.42h4.76v-3.42h-4.76zm2.31 3.22h-2.12v-3.04h2.12v3.04zm2.26 0h-2.12v-3.04h2.12v3.04zM125.31 124.96v3.42h4.76v-3.42h-4.76zm2.31 3.22h-2.12v-3.04h2.12v3.04zm2.27 0h-2.13v-3.04h2.13v3.04zM132.88 118.28v3.75h11.16v-3.75h-11.16zm2.82 3.53h-2.59v-3.33h2.59v3.33zm2.67 0h-2.51v-3.33h2.51v3.33zm2.68 0h-2.52v-3.33h2.52v3.33zm2.75 0h-2.6v-3.33h2.6v3.33zM132.87 124.96v3.42h4.76v-3.42h-4.76zm2.31 3.22h-2.12v-3.04h2.12v3.04zm2.26 0h-2.12v-3.04h2.12v3.04zM139.27 124.96v3.42h4.77v-3.42h-4.77zm2.32 3.22h-2.13v-3.04h2.13v3.04zm2.26 0h-2.13v-3.04h2.13v3.04zM131.48 122.53a.74.74 0 00-.74.74c0 .41.33.75.74.75s.74-.34.74-.75a.74.74 0 00-.74-.74zm0 1.37a.63.63 0 01-.63-.63c0-.34.28-.63.63-.63s.63.29.63.63c0 .35-.28.63-.63.63zM119.7 48.99h23.55v1.74H119.7zM121.76 48.08h19.44v.75h-19.44z"/></g><g><path class="st1" d="M199.85 93.02h-1.65v2.47h1.65zM186.99 104.39v4.71h2.51v-4.71h-2.51zm2.33 4.52h-2.15v-4.33h2.15v4.33zM178.28 79.85v4.76h2.51v-4.76h-2.51zm2.33 4.55h-2.15v-4.34h2.15v4.34zM186.99 55.36v4.71h2.51v-4.71h-2.51zm2.33 4.53h-2.15v-4.34h2.15v4.34zM191.35 55.36v4.71h2.51v-4.71h-2.51zm2.32 4.53h-2.14v-4.34h2.14v4.34zM186.99 63.53v4.71h2.51v-4.71h-2.51zm2.33 4.53h-2.15v-4.34h2.15v4.34zM191.35 63.53v4.71h2.51v-4.71h-2.51zm2.32 4.53h-2.14v-4.34h2.14v4.34zM186.99 71.7v4.71h2.51V71.7h-2.51zm2.33 4.53h-2.15v-4.34h2.15v4.34zM191.35 71.7v4.71h2.51V71.7h-2.51zm2.32 4.53h-2.14v-4.34h2.14v4.34zM186.99 79.88v4.71h2.51v-4.71h-2.51zm2.33 4.52h-2.15v-4.34h2.15v4.34zM191.35 79.88v4.71h2.51v-4.71h-2.51zm2.32 4.52h-2.14v-4.34h2.14v4.34zM186.99 88.05v4.71h2.51v-4.71h-2.51zm2.33 4.52h-2.15v-4.34h2.15v4.34zM191.35 88.05v4.71h2.51v-4.71h-2.51zm2.32 4.52h-2.14v-4.34h2.14v4.34zM186.99 96.22v4.71h2.51v-4.71h-2.51zm2.33 4.52h-2.15V96.4h2.15v4.34zM191.35 96.22v4.71h2.51v-4.71h-2.51zm2.32 4.52h-2.14V96.4h2.14v4.34zM191.35 104.39v4.71h2.51v-4.71h-2.51zm2.32 4.52h-2.14v-4.33h2.14v4.33zM186.99 112.56v4.71h2.51v-4.71h-2.51zm2.33 4.53h-2.15v-4.34h2.15v4.34zM191.35 112.56v4.71h2.51v-4.71h-2.51zm2.32 4.53h-2.14v-4.34h2.14v4.34zM186.99 120.73v4.71h2.51v-4.71h-2.51zm2.33 4.53h-2.15v-4.34h2.15v4.34zM191.35 120.73v4.71h2.51v-4.71h-2.51zm2.32 4.53h-2.14v-4.34h2.14v4.34zM186.99 128.9v4.72h2.51v-4.72h-2.51zm2.33 4.53h-2.15v-4.34h2.15v4.34zM191.35 128.9v4.72h2.51v-4.72h-2.51zm2.32 4.53h-2.14v-4.34h2.14v4.34zM186.7 41.08v-6.81h-1.27v6.81h.64zM189.46 43.77v-2.51H182.68v2.51h3.39zM191.15 46.83v-2.85h-10.16v2.85h5.08zM173.93 57.83v-2.47h-1.64v2.47h.47zM173.93 63.21v-2.47h-1.64v2.47h.47zM173.93 68.59v-2.47h-1.64v2.47h.47zM173.93 73.97V71.5h-1.64v2.47h.47zM173.93 79.35v-2.47h-1.64v2.47h.47zM173.93 84.73v-2.47h-1.64v2.47h.47zM173.93 90.11v-2.47h-1.64v2.47h.47zM173.93 95.49v-2.47h-1.64v2.47h.47zM173.93 100.87V98.4h-1.64v2.47h.47zM173.93 106.25v-2.47h-1.64v2.47h.47zM178.28 55.34v4.76h2.51v-4.76h-2.51zm2.33 4.55h-2.15v-4.34h2.15v4.34zM182.64 55.34v4.76h2.51v-4.76h-2.51zm2.33 4.55h-2.15v-4.34h2.15v4.34zM178.28 63.51v4.76h2.51v-4.76h-2.51zm2.33 4.55h-2.15v-4.34h2.15v4.34zM182.64 63.51v4.76h2.51v-4.76h-2.51zm2.33 4.55h-2.15v-4.34h2.15v4.34zM178.28 71.68v4.76h2.51v-4.76h-2.51zm2.33 4.55h-2.15v-4.34h2.15v4.34zM182.64 71.68v4.76h2.51v-4.76h-2.51zm2.33 4.55h-2.15v-4.34h2.15v4.34zM182.64 79.85v4.76h2.51v-4.76h-2.51zm2.33 4.55h-2.15v-4.34h2.15v4.34zM178.28 88.02v4.76h2.51v-4.76h-2.51zm2.33 4.55h-2.15v-4.34h2.15v4.34zM182.64 88.02v4.76h2.51v-4.76h-2.51zm2.33 4.55h-2.15v-4.34h2.15v4.34zM178.28 96.19v4.76h2.51v-4.76h-2.51zm2.33 4.55h-2.15V96.4h2.15v4.34zM182.64 96.19v4.76h2.51v-4.76h-2.51zm2.33 4.55h-2.15V96.4h2.15v4.34zM178.28 104.36v4.77h2.51v-4.77h-2.51zm2.33 4.55h-2.15v-4.33h2.15v4.33zM182.64 104.36v4.77h2.51v-4.77h-2.51zm2.33 4.55h-2.15v-4.33h2.15v4.33zM178.28 112.54v4.76h2.51v-4.76h-2.51zm2.33 4.55h-2.15v-4.34h2.15v4.34zM182.64 112.54v4.76h2.51v-4.76h-2.51zm2.33 4.55h-2.15v-4.34h2.15v4.34zM178.28 120.71v4.76h2.51v-4.76h-2.51zm2.33 4.55h-2.15v-4.34h2.15v4.34zM182.64 120.71v4.76h2.51v-4.76h-2.51zm2.33 4.55h-2.15v-4.34h2.15v4.34zM178.28 128.88v4.76h2.51v-4.76h-2.51zm2.33 4.55h-2.15v-4.34h2.15v4.34zM182.64 128.88v4.76h2.51v-4.76h-2.51zm2.33 4.55h-2.15v-4.34h2.15v4.34zM191.35 48.49h-10.56l-3.44 3.62h17.44l-3.44-3.62zm-.2.2l1.36 1.43h-1.36v-1.43zm-10.16 3.21h-3.05l1.5-1.58h1.55v1.58zm0-1.78h-1.36l1.36-1.43v1.43zm1.93 1.78h-1.73v-1.58h1.73v1.58zm0-1.78h-1.73v-1.43h1.73v1.43zm2.05 1.78h-1.85v-1.58h1.85v1.58zm0-1.78h-1.85v-1.43h1.85v1.43zm2.01 1.78h-1.82v-1.58h1.82v1.58zm0-1.78h-1.82v-1.43h1.82v1.43zm2.04 1.78h-1.85v-1.58h1.85v1.58zm0-1.78h-1.85v-1.43h1.85v1.43zm1.93 1.78h-1.74v-1.58h1.74v1.58zm0-1.78h-1.74v-1.43h1.74v1.43zm.2.2h1.55l1.5 1.58h-3.05v-1.58zM221.96 105.37a.5.5 0 00.17.03h.01l.13-.02.03-.01a.31.31 0 00.1-.05l.03-.02.1-.11a.45.45 0 00-.12-.57l.14-.19.14.07.05.01.09.01h.01l.1-.02.05-.01a.42.42 0 00.23-.22l.04-.15c0-.05 0-.11-.02-.16l-.07-.15.16-.12.11.1.03.02a.5.5 0 00.13.05h.01a.3.3 0 00.1.01h.08a.4.4 0 00.14-.05.44.44 0 00.19-.57l.17-.06.08.13.03.03.08.06.05.02.09.03.05.01.03.01.11-.01c.11-.03.21-.1.26-.19a.5.5 0 00.07-.32l.18-.02c.01.06.02.11.05.16l.03.04.06.08.05.03.08.05.07.01a.3.3 0 00.09.02c.23 0 .42-.18.44-.41l.18.01c-.02.17.05.34.18.43a.41.41 0 00.25.08l.04-.01.06-.01.09-.03.05-.02.08-.06.03-.03.08-.13.13.05.05.02a.5.5 0 00-.01.32c.02.05.04.1.08.14.03.04.08.08.13.1.04.02.09.04.14.04h.06l.1-.01a.7.7 0 00.13-.05l.03-.02a.47.47 0 00.1-.1l.18.13a.43.43 0 00-.05.42c.02.05.04.09.08.13l.02.03.09.06.12.05.04.01.07.01h.01l.09-.01.04-.01.12-.06.17.22c-.14.12-.2.3-.15.47l.03.1c.02.04.05.07.08.09l.1.07.1.04.03.01.07.01h.04c.05 0 .1-.01.14-.03v.01l.57-.13.16-.04-.06-.14a4.75 4.75 0 00-1.32-1.74c-.16-.14-.33-.26-.5-.38a3.6 3.6 0 00-.93-.46 4.87 4.87 0 00-2.82-.2 5.3 5.3 0 00-.68.2l-.32.13a4.84 4.84 0 00-2.42 2.46l-.06.14.41.09.34.05zM204.79 106.62c-.32-.62-.94-.99-1.64-.99s-1.31.37-1.64.99l-.03.05v4.78h3.34v-4.78l-.03-.05zm-1.78 4.59h-1.29v-3.78h1.29v3.78zm1.58 0h-1.32v-3.78h1.32v3.78zm0-4.04h-2.87v-.44c.07-.15.16-.27.27-.38l.16-.15a1.78 1.78 0 01.76-.32l.24-.02c.24 0 .47.05.69.15l.24.14c.2.14.38.33.51.58v.44zM204.79 115.92c-.32-.62-.94-.99-1.64-.99s-1.31.37-1.64.99l-.03.05v4.78h3.34v-4.78l-.03-.05zm-1.78 4.59h-1.29v-3.78h1.29v3.78zm1.58 0h-1.32v-3.78h1.32v3.78zm0-4.04h-2.87v-.44c.07-.15.16-.27.27-.38l.16-.15a1.78 1.78 0 01.76-.32l.24-.02a1.66 1.66 0 011.44.87v.44zM212.34 115.92c-.32-.62-.94-.99-1.64-.99s-1.32.37-1.64.99l-.03.05v4.78h3.34v-4.78l-.03-.05zm-1.78 4.59h-1.3v-3.78h1.3v3.78zm1.58 0h-1.32v-3.78h1.32v3.78zm0-4.04h-2.88v-.44c.08-.15.17-.27.28-.38l.16-.15c.13-.1.28-.18.43-.23.1-.04.21-.07.32-.09l.25-.02a1.66 1.66 0 011.44.87v.44zM219.89 115.92a1.83 1.83 0 00-1.64-.99c-.7 0-1.32.37-1.64.99l-.03.05v4.78h3.34v-4.78l-.03-.05zm-1.78 4.59h-1.3v-3.78h1.3v3.78zm1.57 0h-1.31v-3.78h1.31v3.78zm0-4.04h-2.87v-.44c.08-.15.17-.27.28-.38l.16-.15c.13-.1.28-.18.43-.23a1.68 1.68 0 01.57-.11c.23 0 .47.06.68.16a1.52 1.52 0 01.75.71v.44zM227.44 115.92a1.83 1.83 0 00-1.64-.99c-.7 0-1.32.37-1.65.99l-.02.05v4.78h3.34v-4.78l-.03-.05zm-1.79 4.59h-1.29v-3.78h1.29v3.78zm1.58 0h-1.31v-3.78h1.31v3.78zm0-4.04h-2.87v-.44c.08-.15.17-.27.27-.38l.17-.15c.13-.1.28-.18.43-.23a1.68 1.68 0 01.57-.11 1.83 1.83 0 01.92.29c.2.14.38.33.51.58v.44zM204.79 125.4c-.32-.62-.94-.98-1.64-.98s-1.31.36-1.64.98l-.03.06v4.77h3.34v-4.77l-.03-.06zm-1.78 4.6h-1.29v-3.78h1.29V130zm1.58 0h-1.32v-3.78h1.32V130zm0-4.05h-2.87v-.44a1.58 1.58 0 011.43-.86c.24 0 .47.05.69.15.17.08.33.19.47.34.11.1.2.23.28.37v.44zM212.34 125.4c-.32-.62-.94-.98-1.64-.98s-1.32.36-1.64.98l-.03.06v4.77h3.34v-4.77l-.03-.06zm-1.78 4.6h-1.3v-3.78h1.3V130zm1.58 0h-1.32v-3.78h1.32V130zm0-4.05h-2.88v-.44a1.67 1.67 0 011.02-.81 1.65 1.65 0 011.11.1c.17.08.33.19.47.34.11.1.2.23.28.37v.44zM219.89 125.4a1.82 1.82 0 00-1.64-.98c-.7 0-1.32.36-1.64.98l-.03.06v4.77h3.34v-4.77l-.03-.06zm-1.78 4.6h-1.3v-3.78h1.3V130zm1.57 0h-1.31v-3.78h1.31V130zm0-4.05h-2.87v-.44a1.67 1.67 0 011.02-.81 1.6 1.6 0 011.58.44c.11.1.2.23.27.37v.44zM227.44 125.4a1.82 1.82 0 00-1.64-.98c-.7 0-1.32.36-1.65.98l-.02.06v4.77h3.34v-4.77l-.03-.06zm-1.79 4.6h-1.29v-3.78h1.29V130zm1.58 0h-1.31v-3.78h1.31V130zm0-4.05h-2.87v-.44c.12-.21.27-.39.44-.52a1.58 1.58 0 011-.34 1.6 1.6 0 011.43.86v.44zM227.44 106.62a1.83 1.83 0 00-1.64-.99c-.7 0-1.32.37-1.65.99l-.02.05v4.78h3.34v-4.78l-.03-.05zm-1.79 4.59h-1.29v-3.78h1.29v3.78zm1.58 0h-1.31v-3.78h1.31v3.78zm0-4.04h-2.87v-.44c.08-.15.17-.27.27-.38l.17-.15c.13-.1.28-.18.43-.23a1.68 1.68 0 01.57-.11c.23 0 .47.05.68.15.09.04.16.09.24.14.2.14.38.33.51.58v.44zM207.18 108.24h14.6v4.01h-14.6zM206.56 134.32a.57.57 0 00.33.11.53.53 0 00.35-.11.64.64 0 00.1-.13c.02-.05.03-.1.03-.16 0-.05-.01-.08-.03-.09-.02-.02-.05-.02-.09-.02a.19.19 0 00-.08.02c-.02.01-.03.03-.03.06l-.01.08c0 .03-.02.05-.03.08a.43.43 0 01-.07.06c-.03.02-.07.02-.13.02-.08 0-.15-.02-.19-.07-.04-.04-.07-.11-.07-.21v-.61c0-.09.02-.16.07-.21a.27.27 0 01.19-.07c.05 0 .1.01.13.03l.07.06a.1.1 0 01.03.07l.01.07c0 .03.01.04.03.06l.08.02.08-.02c.02-.01.03-.05.03-.09a.33.33 0 00-.03-.15.23.23 0 00-.1-.12.53.53 0 00-.35-.11.57.57 0 00-.33.11.4.4 0 00-.1.15.67.67 0 00-.04.22v.61c0 .09.01.16.04.22l.11.12zM208.64 133.13a.56.56 0 00-.1-.15.48.48 0 00-.16-.08.58.58 0 00-.37 0 .36.36 0 00-.25.23.69.69 0 00-.03.22v.61c0 .09.01.16.03.22a.3.3 0 00.1.14c.04.04.09.07.15.09l.19.02a1 1 0 00.18-.02.5.5 0 00.16-.09.39.39 0 00.1-.14.69.69 0 00.03-.22v-.61a.69.69 0 00-.03-.22zm-.19.83c0 .09-.02.16-.07.21-.04.04-.1.06-.18.06a.29.29 0 01-.19-.06.33.33 0 01-.06-.21v-.61c0-.1.02-.17.06-.21a.3.3 0 01.19-.07c.08 0 .14.03.18.07.05.04.07.11.07.21v.61zM209.21 134.42l.08-.02a.05.05 0 00.03-.05v-.97l.5.96c.02.03.03.05.06.06l.08.02.08-.02a.05.05 0 00.03-.05v-1.4c0-.03-.01-.04-.03-.05a.19.19 0 00-.08-.02l-.08.02a.05.05 0 00-.03.05v.97l-.47-.91a.53.53 0 00-.07-.1c-.02-.02-.06-.03-.1-.03l-.08.02c-.02.01-.03.03-.03.06v1.4c0 .02.01.04.03.05l.08.01zM210.62 134.42l.08-.02c.02-.01.03-.03.03-.06v-.61h.33c.03 0 .04-.01.05-.03l.02-.06-.02-.06a.05.05 0 00-.05-.03h-.33v-.48h.62c.02 0 .04-.01.05-.03a.14.14 0 00.02-.07.19.19 0 00-.02-.07.05.05 0 00-.05-.03h-.74a.19.19 0 00-.07.02.05.05 0 00-.03.05v1.4c0 .03.01.04.03.06l.08.02zM211.82 134.42h.75c.03 0 .04-.01.06-.03a.14.14 0 00.02-.07l-.02-.07c-.01-.02-.03-.03-.06-.03h-.63v-.49h.32c.03 0 .04-.01.06-.03l.02-.06-.02-.06c-.01-.02-.03-.03-.06-.03h-.32v-.48h.63l.06-.03a.14.14 0 00.02-.07.19.19 0 00-.02-.07c-.01-.02-.03-.03-.06-.03h-.75a.19.19 0 00-.07.02.05.05 0 00-.03.05v1.4c0 .02.01.04.03.05l.07.03zM213.09 134.32a.57.57 0 00.33.11.53.53 0 00.35-.11.41.41 0 00.1-.13c.02-.05.04-.1.04-.16 0-.05-.01-.08-.03-.09-.02-.02-.05-.02-.09-.02a.19.19 0 00-.08.02c-.02.01-.03.03-.03.06l-.01.08-.03.08a.43.43 0 01-.07.06c-.03.02-.07.02-.13.02-.08 0-.15-.02-.19-.07-.04-.04-.07-.11-.07-.21v-.61c0-.09.02-.16.07-.21a.27.27 0 01.19-.07c.05 0 .1.01.13.03l.07.06a.1.1 0 01.03.07l.01.07c0 .03.01.04.03.06l.08.02.08-.02c.02-.01.03-.05.03-.09a.33.33 0 00-.03-.15.23.23 0 00-.1-.12.53.53 0 00-.35-.11.57.57 0 00-.33.11.4.4 0 00-.1.15.67.67 0 00-.04.22v.61c0 .09.01.16.04.22.02.04.06.09.1.12zM214.23 133.08h.33v1.26c0 .02.01.04.03.05l.08.02.08-.02a.05.05 0 00.03-.05v-1.26h.33c.02 0 .04-.01.05-.03a.19.19 0 00.02-.07.19.19 0 00-.02-.07c-.01-.02-.03-.03-.06-.03h-.88c-.03 0-.04.01-.06.03a.14.14 0 00-.02.07l.02.07.07.03zM215.62 134.42l.08-.02a.05.05 0 00.03-.05v-1.4c0-.03-.01-.04-.03-.05l-.08-.02-.08.02a.05.05 0 00-.03.05v1.4c0 .02.01.04.03.05l.08.02zM217.07 133.13a.42.42 0 00-.11-.15.36.36 0 00-.15-.08.58.58 0 00-.37 0 .36.36 0 00-.25.23.69.69 0 00-.03.22v.61c0 .09.01.16.03.22a.3.3 0 00.1.14c.04.04.09.07.15.09l.19.02a1 1 0 00.18-.02.38.38 0 00.15-.09.31.31 0 00.11-.14.69.69 0 00.03-.22v-.61a.69.69 0 00-.03-.22zm-.19.83c0 .09-.02.16-.07.21-.04.04-.1.06-.18.06a.29.29 0 01-.19-.06.33.33 0 01-.06-.21v-.61c0-.1.02-.17.06-.21a.3.3 0 01.19-.07c.08 0 .14.03.18.07.05.04.07.11.07.21v.61zM217.64 134.42l.08-.02a.05.05 0 00.03-.05v-.97l.5.96c.02.03.03.05.06.06l.08.02.08-.02a.05.05 0 00.03-.05v-1.4c0-.03-.01-.04-.03-.05a.19.19 0 00-.08-.02l-.08.02a.05.05 0 00-.03.05v.97l-.48-.92a.53.53 0 00-.07-.1c-.02-.02-.06-.03-.1-.03l-.08.02c-.02.01-.03.03-.03.06v1.4c0 .02.01.04.03.05l.09.02zM219.03 134.42h.75c.03 0 .04-.01.06-.03a.14.14 0 00.02-.07l-.02-.07c-.01-.02-.03-.03-.06-.03h-.63v-.49h.33c.03 0 .04-.01.06-.03l.02-.06-.02-.06a.05.05 0 00-.05-.03h-.33v-.48h.63l.06-.03a.14.14 0 00.02-.07.19.19 0 00-.02-.07c-.01-.02-.03-.03-.06-.03h-.75a.19.19 0 00-.07.02.05.05 0 00-.03.05v1.4c0 .02.01.04.03.05l.06.03zM220.98 133.68c.03-.03.07-.05.09-.09a.23.23 0 00.06-.12c.02-.05.03-.1.03-.16 0-.09-.02-.15-.04-.21a.45.45 0 00-.1-.13.33.33 0 00-.16-.07.58.58 0 00-.19-.03h-.4a.05.05 0 00-.05.03c-.02.01-.02.03-.02.05v1.39c0 .03.01.05.03.06l.08.02.07-.02c.03-.01.04-.03.04-.06v-.58h.21l.31.6c.02.04.05.06.09.06l.05-.01.04-.02a.14.14 0 00.03-.04l.01-.04v-.03l-.3-.56a.56.56 0 00.12-.04zm-.56-.1v-.51h.25c.08 0 .14.02.19.06.05.04.07.1.07.19 0 .1-.02.16-.07.2a.29.29 0 01-.19.06h-.25zM221.86 133.79v.55c0 .02.01.04.03.05l.08.02.08-.02a.05.05 0 00.03-.05v-.53-.02l.44-.79.01-.02v-.01l-.01-.04-.03-.03-.05-.02-.05-.01a.08.08 0 00-.07.05l-.35.67-.35-.67-.03-.04-.04-.01-.05.01-.05.02-.03.03-.01.04.01.03.44.79z"/><path class="st1" d="M268.29 90.26V117l-3.97-4.97h-3.09v-.54h-1.96v.54h-20v-.54h-1.95v.54h-3.09l-4.6 5.74v-12.21a.45.45 0 01-.16.03.62.62 0 01-.32-.09.6.6 0 01-.24-.23c-.03-.04-.04-.09-.05-.14a.64.64 0 01.06-.49.68.68 0 01-.5-.07c-.03-.02-.08-.04-.12-.08l-.03-.05a.64.64 0 01-.15-.49c-.08.04-.18.06-.28.06s-.2-.02-.29-.07a.6.6 0 01-.32-.45.62.62 0 01-.39.14c-.05 0-.1 0-.15-.02a.62.62 0 01-.43-.34c-.11.15-.29.24-.49.24s-.38-.09-.49-.23a.64.64 0 01-.42.35c-.05.02-.11.02-.16.02a.58.58 0 01-.38-.13.63.63 0 01-.61.53.66.66 0 01-.25-.05.62.62 0 01-.62.69l-.13-.01c.09.18.09.4-.01.59a.65.65 0 01-.56.32.57.57 0 01-.18-.03v6.88h-14.97v-6.88a.48.48 0 01-.18.03.63.63 0 01-.55-.32.65.65 0 01-.01-.59l-.13.01a.62.62 0 01-.62-.69.7.7 0 01-.25.05.63.63 0 01-.61-.53.58.58 0 01-.38.13c-.06 0-.11 0-.16-.02a.64.64 0 01-.42-.35.64.64 0 01-.99-.01.58.58 0 01-.42.34c-.05.02-.1.02-.15.02a.62.62 0 01-.39-.14.62.62 0 01-.32.45.6.6 0 01-.29.07c-.1 0-.2-.02-.28-.06a.64.64 0 01-.14.48c-.01.02-.02.04-.05.06l-.12.09a.72.72 0 01-.49.06c.08.14.11.33.06.51l-.05.12a.6.6 0 01-.2.19v-.25l.04-.03c.02-.03.02-.07.03-.1.04-.12 0-.25-.07-.36v-.21l.09-.12c.04.03.08.05.13.06l.04.01.09.01.01.01.07-.01.04-.01a.56.56 0 00.12-.04l.09-.06.02-.04c.1-.11.13-.27.09-.41-.01-.05-.04-.09-.07-.14l.12-.08.06-.04c.03.04.07.07.11.09l.03.02.12.06.11.01h.03l.03-.01.14-.04c.2-.11.28-.35.2-.56l.19-.07c.01.05.04.09.07.13l.04.04.08.06.04.02.09.03.06.01.03.01.11-.02a.43.43 0 00.33-.5l.19-.01c0 .05.02.11.04.16.05.09.13.17.23.21.05.02.11.04.17.04l.1-.02.07-.01.08-.06.05-.03a.55.55 0 00.07-.09.14.14 0 00.03-.04l.05-.16.18.02c-.04.23.1.45.33.51l.11.02.03-.01.05-.01c.04 0 .07-.01.09-.03l.05-.02a.55.55 0 00.08-.06l.04-.04a.41.41 0 00.08-.13l.17.06a.47.47 0 00-.02.33c.04.1.11.19.21.25.05.02.09.04.14.04l.04.01h.03l.1-.01.13-.05.03-.02.11-.1.16.11c-.07.09-.1.2-.09.31l.03.15.1.13c.04.04.09.07.14.09l.05.02.1.02h.01l.09-.02h.05l.14-.07.15.19c-.13.1-.2.26-.18.41.01.06.03.11.06.16l.09.11.03.03.1.05.03.01c.05.02.09.02.13.02h.01c.06 0 .12-.01.17-.03l.32-.07.41-.09-.06-.14a5.8 5.8 0 00-1.01-1.47l-.3-.28a4.82 4.82 0 00-1.12-.71l-.32-.13a4.83 4.83 0 00-3.82.13c-.21.1-.41.21-.61.33l-.28.2c-.25.19-.48.41-.69.64h-1.31v2.47h1.13v.18h-1.31v-2.83h1.36v-2.55h-1.36v-2.83h1.36v-2.55h-1.36v-2.83h1.36v-2.55h-1.36v-2.83h1.36v-2.55h-1.36v-2.83h1.36v-2.55h-1.36V76.7h1.36v-2.55h-1.36v-2.83h1.36v-2.55h-1.36v-2.83h1.36v-2.55h-1.36v-2.83h1.36v-2.55h-1.36v-2.83h1.36v-2.13l-6.17-6.02h-14.28l-1.66 1.62-4.51 4.4v2.13h1.36v2.83h-1.36v2.55h1.36v2.83h-1.36v2.55h1.36v2.83h-1.36v2.55h1.36v2.83h-1.36v2.55h1.36v2.83h-1.36v2.55h1.36v2.83h-1.36v2.55h1.36v2.83h-1.36v2.55h1.36v2.83h-1.36v2.55h1.36v2.83h-1.36v2.55h1.36v2.83h-1.36v2.55h1.36v2.83h-1.36v2.55h1.36v2.83h-1.36v2.55h1.36v2.83h-1.36v2.55h1.36v2.83h-1.36v2.55h1.36v2.83h-1.36v2.55h1.36v2.83h-1.36v2.55h1.36v2.83h2.33V53.51h19.24v90.58h2.33v-2.83h1.31v.18h-1.13v2.47h1.13v.18h73.57v-2.89h-4.11v-.16h4.11v-2.08h2.94v5.13h4.63V90.26h-12.18zm-91.66-37.84l.64-.67 2.49-2.62.85-.9h10.92l1.02 1.07 2.95 3.12h-18.87zm22.7 83.64h-1.13v2.47h1.13v.18h-1.31v-2.83h1.31v.18zm0-5.38h-1.13v2.47h1.13v.18h-1.31v-2.83h1.31v.18zm0-5.38h-1.13v2.47h1.13v.18h-1.31v-2.83h1.31v.18zm0-5.38h-1.13v2.47h1.13v.18h-1.31v-2.83h1.31v.18zm0-5.38h-1.13v2.47h1.13v.18h-1.31v-2.83h1.31v.18zm0-5.38h-1.13v2.47h1.13v.18h-1.31v-2.83h1.31v.18zm1.9-2.56l.06-.1a2.06 2.06 0 011.86-1.12c.8 0 1.49.41 1.87 1.12l.05.1v5.1h-3.84v-5.1zm-.01 5.3h3.87v.54h-3.87v-.54zm3.85 4.01V121h-3.84v-5.09l.06-.11a2.08 2.08 0 011.86-1.12c.8 0 1.49.42 1.87 1.12l.05.11zm-3.85 5.3h3.87v.54h-3.87v-.54zm3.85 4.18v5.1h-3.84v-5.1l.06-.1a2.07 2.07 0 011.86-1.13c.8 0 1.49.42 1.87 1.13l.05.1zm-3.85 5.3h3.87v.54h-3.87v-.54zm3.67 11.06c-.03 0-.05-.12-.05-.26 0-.15.02-.26.05-.26.02 0 .05.11.05.26 0 .14-.03.26-.05.26zm.48 2.33h-.29v-5.59h-2.7v5.59h-.29v-1.95h-2.24v-.16h2.24v-3.8h3.28v5.91zm18.5-37.48l.06-.1a2.06 2.06 0 011.87-1.12c.79 0 1.49.41 1.86 1.12l.06.1v5.1h-3.85v-5.1zm-.01 5.3h3.87v.54h-3.87v-.54zm3.86 4.01V121h-3.85v-5.09l.06-.11a2.08 2.08 0 011.87-1.12c.79 0 1.49.42 1.86 1.12l.06.11zm-3.86 5.3h3.87v.54h-3.87v-.54zm3.86 4.18v5.1h-3.85v-5.1l.06-.1a2.07 2.07 0 011.87-1.13c.79 0 1.49.42 1.86 1.13l.06.1zm-3.86 5.3h3.87v.54h-3.87v-.54zm-7.53-14.78l.05-.11a2.1 2.1 0 011.87-1.12c.79 0 1.49.42 1.86 1.12l.06.11V121h-3.84v-5.09zm-.02 5.3h3.87v.54h-3.87v-.54zm3.86 4.18v5.1h-3.84v-5.1l.05-.1a2.08 2.08 0 011.87-1.13c.79 0 1.49.42 1.86 1.13l.06.1zm-3.86 5.3h3.87v.54h-3.87v-.54zm-7.53-14.78l.05-.11c.38-.7 1.07-1.12 1.87-1.12s1.49.42 1.87 1.12l.05.11V121h-3.84v-5.09zm-.02 5.3h3.88v.54h-3.88v-.54zm3.86 4.18v5.1h-3.84v-5.1l.05-.1c.38-.71 1.07-1.13 1.87-1.13s1.49.42 1.87 1.13l.05.1zm-3.86 5.3h3.88v.54h-3.88v-.54zm11.68 12.59h-11.92v-4.26c.05.06.11.11.18.16v3.92h11.56v-3.92c.07-.05.13-.1.18-.16v4.26zm-10.29-3.99c.21 0 .41-.11.54-.27.14.16.33.27.55.27.21 0 .41-.11.54-.27.14.16.33.27.55.27.21 0 .41-.11.54-.27.13.16.33.27.54.27.22 0 .41-.11.55-.27.12.16.31.26.51.27.22-.01.4-.12.53-.27.13.16.33.27.54.27.22 0 .41-.11.55-.27.13.16.33.27.54.27.22 0 .41-.11.55-.27.13.16.33.27.54.27.22 0 .41-.11.55-.27a.7.7 0 00.54.27.7.7 0 00.54-.27c.14.16.33.27.55.27l.18-.03v3.64h-11.2v-3.64l.18.03a.7.7 0 00.54-.27c.14.16.33.27.55.27zm-.55-.8v-2.8h1.09v2.8c0 .34-.24.61-.54.61s-.55-.27-.55-.61zm2.18 0v-2.8h1.09v2.8c0 .34-.24.61-.54.61s-.55-.27-.55-.61zm2.18 0v-2.8H215v2.8c0 .33-.23.6-.52.61-.29-.01-.52-.28-.52-.61zm2.13 0v-2.8h1.09v2.8c0 .34-.25.61-.55.61-.3 0-.54-.27-.54-.61zm2.18 0v-2.8h1.08v2.8c0 .34-.24.61-.54.61-.3 0-.54-.27-.54-.61zm4.9-3.52h-17.38v-2.63h17.38v2.63zm2.8 6.78c-.02 0-.05-.12-.05-.26 0-.15.03-.26.05-.26.03 0 .05.11.05.26 0 .14-.02.26-.05.26zm3.65.38h-3.16v1.95h-.29v-5.59h-2.7v5.59h-.29v-5.91h3.28v3.8h3.16v.16zm20.94 1.74h-2.58v-6.02h2.58v6.02zm17.73-1.08h-17.35v1.08h-.13v-6.23h-3.08v6.23h-.13v-1.08h-17.97v-.18h17.97v-5.15h3.34v5.15h17.35v.18zm-37.34-7.74a.7.7 0 01-.7-.69v-1.5a.7.7 0 01.7-.69h15.1a.7.7 0 01.69.69v1.5a.7.7 0 01-.69.69h-15.1zm14.85.68v6h-6v-6h6zm-8.85 0v6h-6v-6h6zm30.9 5.78v-3.01c.08-.04.16-.1.22-.18v3.41h-15.76v-3.29c.06.05.14.08.22.11v2.96h15.32zm-15.07-.25v-2.7a.7.7 0 00.46-.25c.13.16.32.26.53.26.21 0 .4-.1.53-.26.13.16.32.26.53.26.21 0 .4-.1.53-.26.13.16.32.26.53.26.21 0 .4-.1.53-.26.13.16.32.26.53.26.21 0 .4-.1.53-.26.13.16.32.26.53.26.21 0 .4-.1.53-.26.13.16.32.26.53.26.21 0 .4-.1.53-.26.13.16.32.26.53.26.21 0 .4-.1.53-.26.13.16.32.26.53.26.21 0 .4-.1.53-.26.13.16.32.26.53.26.21 0 .4-.1.53-.26.13.16.32.26.53.26.21 0 .4-.1.53-.26.13.16.32.26.53.26.21 0 .4-.1.53-.26.13.16.32.26.53.26.21 0 .4-.1.53-.26.13.16.32.26.53.26.21 0 .4-.1.53-.26.13.16.32.26.53.26h.05v2.69h-14.82zm15-6.24a.7.7 0 01-.2.03h-.56v2.74c0 .33-.23.6-.53.6-.29 0-.53-.27-.53-.6v-2.74h-1.06v2.74c0 .33-.23.6-.53.6l-.1-.01a.56.56 0 01-.19-.09l-.08-.08a.63.63 0 01-.16-.42v-2.74h-1.06v2.74c0 .33-.23.6-.53.6-.29 0-.53-.27-.53-.6v-2.74h-1.06v2.74c0 .33-.24.6-.53.6-.29 0-.53-.27-.53-.6v-2.74h-1.06v2.74c0 .16-.06.31-.15.42a.52.52 0 01-.38.18c-.29 0-.53-.27-.53-.6v-2.74h-1.06v2.74c0 .33-.24.6-.53.6-.29 0-.53-.27-.53-.6v-2.74h-1.06v2.74c0 .33-.24.6-.53.6-.29 0-.53-.27-.53-.6v-2.74h-.75a.58.58 0 01-.19-.03.77.77 0 01-.31-.19.71.71 0 01-.19-.47v-1.5a.7.7 0 01.69-.69h15.09a.7.7 0 01.69.69v1.5c0 .18-.07.35-.19.47a.73.73 0 01-.3.19zm.51-3.46h-38.66v-.18h38.66v.18zm0-1.4h-38.66v-.19h38.66v.19zm-32.6-1.85v.45h-4.36v-.45h4.36zm-4.14-.23v-6.07h3.93v6.07h-3.93zm11.85 0h-3.93v-6.07h3.93v6.07zm.22.23v.45h-4.37v-.45h4.37zm-8-8.73l.01-.19a2.79 2.79 0 015.56 0l.01.19h-5.58zm15.92 8.73v.45h-4.37v-.45h4.37zm-4.15-.23v-6.07h3.93v6.07h-3.93zm11.85-6.07v6.07h-3.93v-6.07h3.93zm-1.89-2.43v-.19a2.79 2.79 0 015.56 0l.01.19h-5.57zm2.11 8.73v.45h-4.37v-.45h4.37zm7.92 0v.45h-4.36v-.45h4.36zm-4.15-.23v-6.07h3.93v6.07h-3.93zm5.06-8.19h-4.55v-.28c0-.37-.06-.74-.18-1.09a3.52 3.52 0 00-1.76-2.09 3.45 3.45 0 00-1.66-.41h-.1a3.66 3.66 0 00-2.37.98 3.56 3.56 0 00-1.13 2.61v.28h-14.55v-.28a3.56 3.56 0 00-2.9-3.52 3.66 3.66 0 00-.6-.07h-.1a3.45 3.45 0 00-1.66.41 3.57 3.57 0 00-1.94 3.18v.28l-5.16-.01v-.19l4.98.01v-.09a3.74 3.74 0 01.81-2.34 3.95 3.95 0 011.86-1.27c.36-.11.73-.17 1.11-.17l.11.01a3.88 3.88 0 012.48 1.03c.77.72 1.19 1.7 1.19 2.74v.09h14.19v-.09a3.72 3.72 0 011.82-3.23 3.88 3.88 0 011.86-.54l.1-.01a3.78 3.78 0 013.78 3.78v.09h4.37v.19zm11.3 16.79h-10v-3.67h10v3.67zm0-5.84h-10v-3.66h10v3.66zm0-5.83h-10v-3.67h10v3.67zm0-5.83h-9.55l-.17-.22-.28-.35v-3.1h10v3.67zm0-5.84h-10v-3.66h10v3.66zm0-5.83h-10v-3.67h10v3.67zm0-5.83h-10v-3.67h10v3.67zm0-5.84h-10v-3.66h10v3.66zM282.35 80.31v6.2h14.5v-6.2h-14.5zm12.24 4.32h-10v-2.41h10v2.41z"/><path class="st1" d="M265.97 80.31v6.2h14.5v-6.2h-14.5zm12.26 4.32h-10v-2.41h10v2.41zM280.64 141.04V144.09h1.54V90.26h-1.54zM280.64 86.51h1.54V76.06h-1.54v4.25zM294.53 90.09l2.32-3.41h-30.88l2.32 3.41zM269.87 92.4v3.22h9.44V92.4h-9.44zm2.85 3.05h-2.63v-2.88h2.63v2.88zm3.54 0h-3.35v-2.88h3.35v2.88zm2.83 0h-2.63v-2.88h2.63v2.88zM269.87 98.23v3.22h9.44v-3.22h-9.44zm2.85 3.06h-2.63V98.4h2.63v2.89zm3.54 0h-3.35V98.4h3.35v2.89zm2.83 0h-2.63V98.4h2.63v2.89zM269.87 104.07v3.22h9.44v-3.22h-9.44zm2.85 3.05h-2.63v-2.89h2.63v2.89zm3.54 0h-3.35v-2.89h3.35v2.89zm2.83 0h-2.63v-2.89h2.63v2.89zM269.87 109.9v3.22h9.44v-3.22h-9.44zm2.85 3.06h-2.63v-2.89h2.63v2.89zm3.54 0h-3.35v-2.89h3.35v2.89zm2.83 0h-2.63v-2.89h2.63v2.89zM269.87 115.73v3.23h9.44v-3.23h-9.44zm2.85 3.06h-2.63v-2.89h2.63v2.89zm3.54 0h-3.35v-2.89h3.35v2.89zm2.83 0h-2.63v-2.89h2.63v2.89zM269.87 121.57v3.22h9.44v-3.22h-9.44zm2.85 3.05h-2.63v-2.89h2.63v2.89zm3.54 0h-3.35v-2.89h3.35v2.89zm2.83 0h-2.63v-2.89h2.63v2.89zM269.87 127.4v3.22h9.44v-3.22h-9.44zm2.85 3.06h-2.63v-2.89h2.63v2.89zm3.54 0h-3.35v-2.89h3.35v2.89zm2.83 0h-2.63v-2.89h2.63v2.89zM269.87 133.23v3.23h9.44v-3.23h-9.44zm2.85 3.06h-2.63v-2.89h2.63v2.89zm3.54 0h-3.35v-2.89h3.35v2.89zm2.83 0h-2.63v-2.89h2.63v2.89zM283.51 92.4v3.22h9.45V92.4h-9.45zm2.85 3.05h-2.63v-2.88h2.63v2.88zm3.55 0h-3.35v-2.88h3.35v2.88zm2.82 0h-2.63v-2.88h2.63v2.88zM283.51 98.23v3.22h9.45v-3.22h-9.45zm2.85 3.06h-2.63V98.4h2.63v2.89zm3.55 0h-3.35V98.4h3.35v2.89zm2.82 0h-2.63V98.4h2.63v2.89zM283.51 104.07v3.22h9.45v-3.22h-9.45zm2.85 3.05h-2.63v-2.89h2.63v2.89zm3.55 0h-3.35v-2.89h3.35v2.89zm2.82 0h-2.63v-2.89h2.63v2.89zM283.51 109.9v3.22h9.45v-3.22h-9.45zm2.85 3.06h-2.63v-2.89h2.63v2.89zm3.55 0h-3.35v-2.89h3.35v2.89zm2.82 0h-2.63v-2.89h2.63v2.89zM283.51 115.73v3.23h9.45v-3.23h-9.45zm2.85 3.06h-2.63v-2.89h2.63v2.89zm3.55 0h-3.35v-2.89h3.35v2.89zm2.82 0h-2.63v-2.89h2.63v2.89zM283.51 121.57v3.22h9.45v-3.22h-9.45zm2.85 3.05h-2.63v-2.89h2.63v2.89zm3.55 0h-3.35v-2.89h3.35v2.89zm2.82 0h-2.63v-2.89h2.63v2.89zM283.51 127.4v3.22h9.45v-3.22h-9.45zm2.85 3.06h-2.63v-2.89h2.63v2.89zm3.55 0h-3.35v-2.89h3.35v2.89zm2.82 0h-2.63v-2.89h2.63v2.89zM283.51 133.23v3.23h9.45v-3.23h-9.45zm2.85 3.06h-2.63v-2.89h2.63v2.89zm3.55 0h-3.35v-2.89h3.35v2.89zm2.82 0h-2.63v-2.89h2.63v2.89z"/><path class="st1" d="M268.63 82.55v2.02h9.49v-2.02h-9.49zm9.27 1.83h-9.05v-1.64h9.05v1.64zM284.71 82.55v2.02h9.48v-2.02h-9.48zm9.26 1.83h-9.05v-1.64h9.05v1.64zM269.72 76.06h3.36v3.86h-3.36zM276.84 76.06h3.46v3.86h-3.46zM273.28 76.06h3.36v3.86h-3.36zM265.97 76.06h3.56v3.86h-3.56zM286.17 76.06h3.36v3.86h-3.36zM282.52 76.06h3.46v3.86h-3.46zM289.73 76.06h3.36v3.86h-3.36zM293.29 76.06h3.56v3.86h-3.56zM290.07 72.02h-1.77v-2.07h-1.68v2.07H276.2v-2.07h-1.67v2.07h-1.78v2.11h17.32zM273.15 139.17v4.92h2.44v-4.92h-2.44zm2.29 3.02h-.11v-.5h.11v.5zM287.23 139.17v4.92h2.44v-4.92h-2.44zm.26 3.02h-.1v-.5h.1v.5zM282.35 75.91h11.61v-1.65h-25.1v1.65h11.61zM199.85 55.36h-1.65v2.47h1.65zM199.85 60.74h-1.65v2.47h1.65zM199.85 66.12h-1.65v2.47h1.65zM199.85 71.5h-1.65v2.47h1.65zM199.85 76.88h-1.65v2.47h1.65zM199.85 82.26h-1.65v2.47h1.65zM199.85 87.64h-1.65v2.47h1.65zM198.2 98.4v2.47h1.65V98.4h-.47zM253.16 133.01c.06-.06.13-.08.23-.08s.17.02.22.07c.05.05.08.11.09.2l.02.04.05.01.05-.02.02-.06a.33.33 0 00-.03-.15.27.27 0 00-.09-.12.53.53 0 00-.34-.11.48.48 0 00-.18.03.44.44 0 00-.15.08.56.56 0 00-.1.15.67.67 0 00-.04.22v.69c0 .09.01.16.04.22a.4.4 0 00.1.15c.04.04.09.07.15.08a.57.57 0 00.36 0 .36.36 0 00.15-.08.56.56 0 00.1-.15.67.67 0 00.04-.22v-.33l-.01-.04-.04-.02h-.39l-.04.02-.01.04.01.04.04.02h.3v.27c0 .12-.03.2-.08.26-.06.06-.13.08-.23.08a.32.32 0 01-.23-.08c-.06-.06-.08-.14-.08-.26v-.69c-.02-.12.01-.21.07-.26zM255.08 134.32l-.35-.66.14-.04a.31.31 0 00.11-.09.36.36 0 00.08-.12.9.9 0 00.02-.18.41.41 0 00-.04-.21c-.02-.06-.06-.1-.1-.14-.05-.03-.1-.06-.15-.07-.06-.02-.12-.02-.19-.02h-.39c-.04 0-.06.02-.06.05v1.52l.02.04.05.02.05-.02c.02-.01.03-.02.03-.04v-.68h.28l.34.67.04.05.04.02c.02 0 .04 0 .06-.02.02-.02.03-.03.03-.05l-.01-.03zm-.78-.77v-.63h.3c.1 0 .18.03.24.07.06.05.1.13.1.24 0 .12-.04.2-.1.25a.43.43 0 01-.24.07h-.3zM256.21 133.04a.39.39 0 00-.1-.14.38.38 0 00-.15-.09 1.1 1.1 0 00-.18-.02l-.19.02a.42.42 0 00-.14.09.24.24 0 00-.1.14.5.5 0 00-.04.22v.69c0 .09.01.17.04.23.02.06.05.11.1.14.04.04.09.07.14.09l.19.02.18-.02a.38.38 0 00.15-.09.39.39 0 00.1-.14.75.75 0 00.03-.23v-.69a.73.73 0 00-.03-.22zm-.12.91c0 .12-.02.21-.08.26-.06.06-.13.09-.23.09s-.18-.03-.24-.09c-.05-.05-.08-.14-.08-.26v-.69c0-.11.03-.2.08-.25.06-.06.14-.09.24-.09s.17.03.23.09c.06.05.08.14.08.25v.69zM256.77 133.01c.06-.06.13-.08.24-.08.07 0 .12.01.16.03.04.02.07.04.09.07.02.03.04.06.04.09l.01.08.02.04.05.02.06-.02.02-.07c0-.05-.01-.1-.03-.14a.47.47 0 00-.09-.12.64.64 0 00-.14-.08.6.6 0 00-.38 0 .36.36 0 00-.25.23.48.48 0 00-.04.22v.69c0 .09.01.16.04.22a.4.4 0 00.1.15c.04.04.09.07.15.08l.18.03a.53.53 0 00.35-.11.34.34 0 00.12-.26c0-.04-.01-.06-.02-.07l-.06-.02c-.04 0-.07.02-.07.06l-.02.09-.04.09a.22.22 0 01-.09.07.35.35 0 01-.16.03.37.37 0 01-.25-.08c-.06-.06-.08-.14-.08-.26v-.69c.01-.15.04-.24.09-.29zM258.59 132.92l.04-.02.01-.05-.01-.04-.04-.02h-.79l-.05.01-.02.04v1.52l.02.04.05.01h.79l.04-.02.01-.05-.01-.05-.04-.02h-.71v-.62h.35l.04-.02.01-.04-.01-.05-.04-.02h-.35v-.61h.71zM259.45 133.66l.14-.04a.31.31 0 00.11-.09c.03-.03.05-.07.07-.12s.03-.11.03-.18a.56.56 0 00-.04-.21.38.38 0 00-.11-.14.35.35 0 00-.15-.07c-.06-.02-.12-.02-.18-.02h-.4c-.04 0-.06.02-.06.05v1.52c0 .02.01.03.03.04l.05.02.05-.02.02-.04v-.68h.29l.34.67.03.05.05.02c.02 0 .04 0 .06-.02l.02-.05-.01-.03-.34-.66zm-.44-.11v-.63h.31c.1 0 .18.03.24.07.06.05.09.13.09.24 0 .12-.03.2-.09.25a.43.43 0 01-.24.07h-.31zM260.94 132.79c-.02 0-.04.01-.06.04l-.41.81-.41-.81c-.01-.03-.03-.04-.06-.04a.08.08 0 00-.05.02.05.05 0 00-.03.05v.02l.01.02.46.89v.59l.02.04.05.01.05-.01c.02-.01.02-.02.02-.04v-.57-.02l.46-.89.01-.02v-.02c0-.02-.01-.03-.03-.05 0-.02-.01-.02-.03-.02zM262.32 133.59a.6.6 0 00-.18-.09 1.34 1.34 0 01-.18-.07l-.14-.09c-.04-.04-.05-.09-.05-.16 0-.05.01-.09.03-.12a.27.27 0 01.07-.08.3.3 0 01.1-.04l.12-.01.13.01.09.03.06.03.04.01c.02 0 .04-.01.05-.03l.02-.05a.05.05 0 00-.03-.05c-.02-.02-.05-.03-.09-.04l-.12-.03-.13-.01a.88.88 0 00-.16.02.34.34 0 00-.15.06.32.32 0 00-.11.12.4.4 0 00-.04.2c0 .09.02.16.05.21.04.05.08.09.14.13.06.03.11.06.18.08l.18.07.14.11c.04.05.05.11.05.19 0 .1-.03.18-.09.23a.36.36 0 01-.24.08.4.4 0 01-.17-.03l-.1-.06a.17.17 0 01-.06-.06l-.04-.03c-.02 0-.03.01-.05.03l-.02.05.03.07.09.08c.04.02.09.05.14.06.06.02.12.03.19.03s.13-.01.19-.03a.53.53 0 00.15-.08l.1-.14a.66.66 0 00-.02-.45.57.57 0 00-.17-.15zM263.59 132.79h-.89l-.04.02-.01.05.01.05.04.02h.38v1.44l.02.04.05.01.05-.01c.02-.01.02-.02.02-.04v-1.44h.37l.04-.02.01-.05-.01-.05c0-.02-.02-.02-.04-.02zM264.69 133.04a.3.3 0 00-.1-.14.42.42 0 00-.14-.09l-.19-.02-.18.02a.38.38 0 00-.15.09.39.39 0 00-.1.14.73.73 0 00-.03.22v.69c0 .09.01.17.03.23.03.06.06.11.1.14.04.04.09.07.15.09l.18.02.19-.02c.05-.02.1-.05.14-.09a.3.3 0 00.1-.14.73.73 0 00.04-.23v-.69a.72.72 0 00-.04-.22zm-.11.91c0 .12-.03.21-.08.26a.32.32 0 01-.24.09.3.3 0 01-.23-.09c-.06-.05-.08-.14-.08-.26v-.69c0-.11.02-.2.08-.25a.3.3 0 01.23-.09c.1 0 .18.03.24.09.05.05.08.14.08.25v.69zM265.98 134.32l-.35-.66.14-.04a.31.31 0 00.11-.09.24.24 0 00.07-.12.48.48 0 00.03-.18.41.41 0 00-.04-.21c-.02-.06-.06-.1-.1-.14-.05-.03-.1-.06-.16-.07-.05-.02-.12-.02-.18-.02h-.4c-.03 0-.05.02-.05.05v1.52l.02.04.05.02.05-.02c.02-.01.03-.02.03-.04v-.68h.28l.34.67.04.05.04.02c.02 0 .04 0 .06-.02s.03-.03.03-.05l-.01-.03zm-.78-.77v-.63h.3c.1 0 .18.03.24.07.06.05.09.13.09.24 0 .12-.03.2-.09.25a.43.43 0 01-.24.07h-.3zM267.09 132.92l.04-.02.01-.05-.01-.04-.04-.02h-.79l-.05.01-.02.04v1.52l.02.04.05.01h.79l.04-.02.01-.05-.01-.05-.04-.02h-.71v-.62h.35l.04-.02.01-.04-.01-.05-.04-.02h-.35v-.61h.71zM231.18 135.95v5.56h5.55v-5.56h-5.55zm5.3 5.31h-5.05v-5.05h5.05v5.05zM240.02 135.95v5.56h5.56v-5.56h-5.56zm5.31 5.31h-5.06v-5.05h5.06v5.05zM232.8 133.05a.56.56 0 00-.1-.15.5.5 0 00-.16-.09c-.06-.02-.12-.02-.19-.02h-.4c-.02 0-.04 0-.06.02-.02.01-.02.02-.02.04v1.52c0 .01 0 .03.02.04l.06.02h.4l.19-.02a.5.5 0 00.16-.09.56.56 0 00.1-.15.73.73 0 00.04-.23v-.66a.73.73 0 00-.04-.23zm-.15.89c0 .11-.03.19-.08.24a.31.31 0 01-.22.08h-.29v-1.3h.29c.09 0 .17.02.22.07.05.06.08.14.08.25v.66zM233.72 132.84a.12.12 0 00-.05-.05.19.19 0 00-.07-.02l-.07.02c-.03.01-.04.03-.05.05l-.46 1.49v.02c0 .03.01.05.04.06l.07.02c.04 0 .06-.01.07-.04l.1-.34h.59l.1.34.03.03.04.01.08-.02c.02-.02.04-.04.04-.06v-.01-.01l-.46-1.49zm-.38 1.06l.26-.85.25.85h-.51zM235.16 132.79c-.03 0-.05.02-.07.05l-.39.77-.4-.77-.03-.04-.04-.01a.19.19 0 00-.07.02c-.03.01-.04.03-.04.06l.01.04.47.87.01.02v.57c0 .02.01.04.03.05l.07.02.07-.02a.05.05 0 00.03-.05v-.57-.02l.47-.87.01-.04c0-.02-.01-.04-.04-.06s-.07-.02-.09-.02zM236.49 132.84c0-.02-.02-.04-.04-.05a.19.19 0 00-.07-.02l-.08.02-.04.05-.46 1.49v.02c0 .03.01.05.03.06l.08.02c.04 0 .06-.01.07-.04l.1-.34h.59l.1.34.03.03.04.01.08-.02.03-.06v-.01-.01l-.46-1.49zm-.37 1.06l.26-.85.25.85h-.51zM238.05 132.79a.19.19 0 00-.07.02.05.05 0 00-.03.05V134l-.56-1.1a.35.35 0 00-.06-.09.11.11 0 00-.08-.03l-.07.01a.05.05 0 00-.03.05v1.51c0 .02.01.04.03.05l.07.02.07-.02a.05.05 0 00.03-.05v-1.15l.59 1.13a.1.1 0 00.05.06c.02.02.04.02.07.02l.07-.02a.05.05 0 00.03-.05v-1.51a.05.05 0 00-.03-.05l-.08.01zM239.4 133.05a.42.42 0 00-.11-.15.38.38 0 00-.15-.09c-.06-.02-.13-.02-.19-.02h-.4c-.03 0-.05 0-.06.02-.02.01-.03.02-.03.04v1.52l.03.04.06.02h.4l.19-.02a.38.38 0 00.15-.09.42.42 0 00.11-.15.75.75 0 00.03-.23v-.66a.75.75 0 00-.03-.23zm-.16.89c0 .11-.02.19-.07.24a.33.33 0 01-.22.08h-.3v-1.3h.3c.09 0 .16.02.22.07.05.06.07.14.07.25v.66zM241.08 132.79a.19.19 0 00-.07.02.05.05 0 00-.03.05V134l-.56-1.1a.35.35 0 00-.06-.09.11.11 0 00-.08-.03l-.07.01a.05.05 0 00-.03.05v1.51c0 .02.01.04.03.05l.07.02.07-.02a.05.05 0 00.03-.05v-1.15l.59 1.13a.1.1 0 00.05.06c.02.02.04.02.07.02l.07-.02a.05.05 0 00.03-.05v-1.51a.05.05 0 00-.03-.05l-.08.01zM241.59 132.79a.19.19 0 00-.07.02.05.05 0 00-.03.05v1.51c0 .02.01.04.03.05l.07.02.07-.02a.05.05 0 00.03-.05v-1.51a.05.05 0 00-.03-.05c-.03-.02-.05-.02-.07-.02zM242.25 133.03a.3.3 0 01.22-.08c.1 0 .17.02.21.07a.3.3 0 01.08.19c0 .02.01.04.03.05l.07.01.07-.02c.02-.01.02-.04.02-.07a.3.3 0 00-.04-.16c-.02-.05-.06-.09-.1-.13a.34.34 0 00-.16-.08.64.64 0 00-.39 0 .53.53 0 00-.15.08.4.4 0 00-.1.15.73.73 0 00-.04.23v.68c0 .09.01.17.04.23s.06.11.1.15c.04.04.09.07.15.08.06.02.12.03.19.03s.13-.01.19-.03l.16-.08a.4.4 0 00.1-.15.73.73 0 00.04-.23v-.32l-.02-.05a.08.08 0 00-.05-.02h-.39a.08.08 0 00-.05.02l-.02.05.02.06c.01.02.03.02.05.02h.27v.23c0 .11-.03.19-.08.24a.31.31 0 01-.22.08.31.31 0 01-.22-.08c-.05-.05-.08-.13-.08-.24v-.68c.03-.09.05-.17.1-.23zM244.13 132.79a.19.19 0 00-.07.02.05.05 0 00-.03.05v.65h-.61v-.65a.05.05 0 00-.03-.05.14.14 0 00-.07-.02.19.19 0 00-.07.02.05.05 0 00-.03.05v1.51c0 .02.01.04.03.05l.07.02.07-.02a.05.05 0 00.03-.05v-.71h.61v.71c0 .02.01.04.03.05l.07.02.07-.02a.05.05 0 00.03-.05v-1.51a.05.05 0 00-.03-.05c-.02-.02-.05-.02-.07-.02zM245.4 132.79h-.92a.05.05 0 00-.05.03l-.02.06.02.06c.01.02.03.03.05.03h.36v1.4c0 .02.01.04.03.05l.07.02.07-.02a.05.05 0 00.03-.05v-1.4h.36c.02 0 .04-.01.05-.03l.02-.06-.02-.06a.05.05 0 00-.05-.03zM238.39 116.96a2.58 2.58 0 00-2.58 2.44h5.2c-.03-1.35-1.26-2.44-2.62-2.44zm-1.51 2.18h-.72a2 2 0 01.72-1.35v1.35zm2.76 0h-2.44v-1.58c.37-.22.78-.34 1.2-.34s.86.13 1.24.36v1.56zm.32-1.33a2 2 0 01.73 1.33h-.73v-1.33zM260.12 116.96a2.58 2.58 0 00-2.59 2.44h5.2c-.03-1.35-1.26-2.44-2.61-2.44zm-1.52 2.18h-.72c.04-.5.3-.98.72-1.35v1.35zm2.77 0h-2.45v-1.58c.37-.22.79-.34 1.2-.34.42 0 .86.13 1.25.36v1.56zm.32-1.33c.42.37.68.84.72 1.33h-.72v-1.33zM231.7 122.16v5.77h3.63v-5.77h-3.63zm3.26 5.4h-2.89v-3.36h2.89v3.36zm0-3.81h-2.89v-1.14h2.89v1.14zM239.62 122.16v5.77h3.63v-5.77h-3.63zm3.26 5.4h-2.89v-3.36h2.89v3.36zm0-3.81h-2.89v-1.14h2.89v1.14zM247.54 122.16v5.77h3.63v-5.77h-3.63zm3.26 5.4h-2.89v-3.36h2.89v3.36zm0-3.81h-2.89v-1.14h2.89v1.14zM255.46 122.16v5.77h3.63v-5.77h-3.63zm3.26 5.4h-2.89v-3.36h2.89v3.36zm0-3.81h-2.89v-1.14h2.89v1.14zM263.38 122.16v5.77h3.63v-5.77h-3.63zm3.26 5.4h-2.89v-3.36h2.89v3.36zm0-3.81h-2.89v-1.14h2.89v1.14z"/></g><g><path class="st1" d="M101.89 139.38v4.71h3.07v-4.71a1.75 1.75 0 00-3.07 0zm2.72 2.53c-.09 0-.15-.08-.15-.16 0-.09.06-.16.15-.16.08 0 .15.07.15.16 0 .08-.07.16-.15.16zM103.89 93.8a1.43 1.43 0 101.44 1.43c0-.79-.65-1.43-1.44-1.43zm-.08 2.69a1.25 1.25 0 01-1.17-1.17h1.17v1.17zm0-1.34h-1.17c.04-.63.54-1.13 1.17-1.17v1.17zm.16-1.17c.63.04 1.13.54 1.17 1.17h-1.17v-1.17zm0 2.51v-1.17h1.17a1.25 1.25 0 01-1.17 1.17zM95.57 100.14c-.32-.5-.91-.8-1.58-.8s-1.26.3-1.58.8l-.03.05v3.86h3.21v-3.86l-.02-.05zm-1.72 3.72h-1.24v-3.06h1.24v3.06zm1.52 0h-1.26v-3.06h1.26v3.06zm0-3.27h-2.76v-.36l.12-.16a1.62 1.62 0 01.86-.49 1.68 1.68 0 011.66.49l.12.16v.36zM102.09 100.14c-.32-.5-.91-.8-1.58-.8-.68 0-1.27.3-1.58.8l-.03.05v3.86h3.21v-3.86l-.02-.05zm-1.72 3.72h-1.24v-3.06h1.24v3.06zm1.52 0h-1.27v-3.06h1.27v3.06zm0-3.27h-2.76v-.36l.12-.16a1.65 1.65 0 01.85-.49 1.7 1.7 0 011.48.32l.04.03c.1.09.19.19.27.3v.36zM108.6 100.14c-.31-.5-.9-.8-1.58-.8-.67 0-1.26.3-1.57.8l-.03.05v3.86h3.21v-3.86l-.03-.05zm-1.71 3.72h-1.24v-3.06h1.24v3.06zm1.51 0h-1.26v-3.06h1.26v3.06zm0-3.27h-2.75v-.36a1.25 1.25 0 01.42-.42 1.83 1.83 0 01.95-.28c.4 0 .78.13 1.08.37l.04.03c.1.09.19.19.26.3v.36zM115.12 100.14c-.31-.5-.9-.8-1.58-.8-.67 0-1.26.3-1.58.8l-.02.05v3.86h3.21v-3.86l-.03-.05zm-1.71 3.72h-1.25v-3.06h1.25v3.06zm1.51 0h-1.26v-3.06h1.26v3.06zm0-3.27h-2.76v-.36a1.93 1.93 0 01.31-.33c.09-.08.18-.14.29-.19l.18-.08c.13-.04.26-.07.4-.08l.2-.02c.21 0 .41.04.6.1a1.52 1.52 0 01.66.44l.12.16v.36zM95.57 109.38c-.32-.5-.91-.8-1.58-.8s-1.26.3-1.58.8l-.03.04v3.87h3.21v-3.87l-.02-.04zm-1.72 3.72h-1.24v-3.06h1.24v3.06zm1.52 0h-1.26v-3.06h1.26v3.06zm0-3.27h-2.76v-.36c.07-.12.16-.22.26-.31.15-.13.33-.23.52-.29l.2-.06.21-.03.19-.01a1.75 1.75 0 011.12.39c.1.09.18.19.26.31v.36zM102.09 109.38c-.32-.5-.91-.8-1.58-.8-.68 0-1.27.3-1.58.8l-.03.04v3.87h3.21v-3.87l-.02-.04zm-1.72 3.72h-1.24v-3.06h1.24v3.06zm1.52 0h-1.27v-3.06h1.27v3.06zm0-3.27h-2.76v-.36c.07-.12.16-.22.26-.31.15-.13.33-.23.52-.29l.19-.06.21-.03.2-.01a1.75 1.75 0 01.99.3c.15.11.29.24.39.4v.36zM108.6 109.38c-.31-.5-.9-.8-1.58-.8-.67 0-1.26.3-1.57.8l-.03.04v3.87h3.21v-3.87l-.03-.04zm-1.71 3.72h-1.24v-3.06h1.24v3.06zm1.51 0h-1.26v-3.06h1.26v3.06zm0-3.27h-2.75v-.36c.07-.12.16-.22.26-.31.15-.13.33-.23.52-.29l.19-.06.21-.03.19-.01c.28 0 .55.06.79.18l.21.12c.15.11.28.24.38.4v.36zM115.12 109.38c-.31-.5-.9-.8-1.58-.8-.67 0-1.26.3-1.58.8l-.02.04v3.87h3.21v-3.87l-.03-.04zm-1.71 3.72h-1.25v-3.06h1.25v3.06zm1.51 0h-1.26v-3.06h1.26v3.06zm0-3.27h-2.76v-.36c.1-.16.24-.29.39-.4.06-.04.13-.09.21-.12l.18-.08a1.8 1.8 0 011.2 0c.19.06.37.16.52.29.1.09.19.19.26.31v.36zM95.57 122.77c-.32-.5-.91-.8-1.58-.8s-1.26.3-1.58.8l-.03.05v3.86h3.21v-3.86l-.02-.05zm-1.72 3.72h-1.24v-3.06h1.24v3.06zm1.52 0h-1.26v-3.06h1.26v3.06zm0-3.27h-2.76v-.36l.12-.16a1.62 1.62 0 01.86-.49 1.68 1.68 0 011.66.49l.12.16v.36zM102.09 122.77c-.32-.5-.91-.8-1.58-.8-.68 0-1.27.3-1.58.8l-.03.05v3.86h3.21v-3.86l-.02-.05zm-1.72 3.72h-1.24v-3.06h1.24v3.06zm1.52 0h-1.27v-3.06h1.27v3.06zm0-3.27h-2.76v-.36l.12-.16a1.65 1.65 0 01.85-.49 1.7 1.7 0 011.48.32l.04.03c.1.09.19.19.27.3v.36zM108.6 122.77c-.31-.5-.9-.8-1.58-.8-.67 0-1.26.3-1.57.8l-.03.05v3.86h3.21v-3.86l-.03-.05zm-1.71 3.72h-1.24v-3.06h1.24v3.06zm1.51 0h-1.26v-3.06h1.26v3.06zm0-3.27h-2.75v-.36a1.25 1.25 0 01.42-.42 1.83 1.83 0 01.95-.28c.4 0 .78.13 1.08.37l.04.03c.1.09.19.19.26.3v.36zM115.12 122.77c-.31-.5-.9-.8-1.58-.8-.67 0-1.26.3-1.58.8l-.02.05v3.86h3.21v-3.86l-.03-.05zm-1.71 3.72h-1.25v-3.06h1.25v3.06zm1.51 0h-1.26v-3.06h1.26v3.06zm0-3.27h-2.76v-.36a1.93 1.93 0 01.31-.33c.09-.08.18-.14.29-.19l.18-.08c.13-.04.26-.07.4-.08l.2-.02c.21 0 .41.04.6.1a1.52 1.52 0 01.66.44l.12.16v.36zM95.57 132.01c-.32-.5-.91-.8-1.58-.8s-1.26.3-1.58.8l-.03.04v3.87h3.21v-3.87l-.02-.04zm-1.72 3.72h-1.24v-3.06h1.24v3.06zm1.52 0h-1.26v-3.06h1.26v3.06zm0-3.27h-2.76v-.36c.07-.12.16-.22.26-.31.15-.13.33-.23.52-.29l.2-.06.21-.03.19-.01a1.75 1.75 0 011.12.39c.1.09.18.19.26.31v.36zM102.09 132.01c-.32-.5-.91-.8-1.58-.8-.68 0-1.27.3-1.58.8l-.03.04v3.87h3.21v-3.87l-.02-.04zm-1.72 3.72h-1.24v-3.06h1.24v3.06zm1.52 0h-1.27v-3.06h1.27v3.06zm0-3.27h-2.76v-.36c.07-.12.16-.22.26-.31.15-.13.33-.23.52-.29l.19-.06.21-.03.2-.01a1.75 1.75 0 01.99.3c.15.11.29.24.39.4v.36zM108.6 132.01c-.31-.5-.9-.8-1.58-.8-.67 0-1.26.3-1.57.8l-.03.04v3.87h3.21v-3.87l-.03-.04zm-1.71 3.72h-1.24v-3.06h1.24v3.06zm1.51 0h-1.26v-3.06h1.26v3.06zm0-3.27h-2.75v-.36c.07-.12.16-.22.26-.31.15-.13.33-.23.52-.29l.19-.06.21-.03.19-.01c.28 0 .55.06.79.18l.21.12c.15.11.28.24.38.4v.36zM115.12 132.01c-.31-.5-.9-.8-1.58-.8-.67 0-1.26.3-1.58.8l-.02.04v3.87h3.21v-3.87l-.03-.04zm-1.71 3.72h-1.25v-3.06h1.25v3.06zm1.51 0h-1.26v-3.06h1.26v3.06zm0-3.27h-2.76v-.36c.1-.16.24-.29.39-.4.06-.04.13-.09.21-.12l.18-.08a1.8 1.8 0 011.2 0c.19.06.37.16.52.29.1.09.19.19.26.31v.36zM98.52 106.71a5.4 5.4 0 01-.01-2.3h-.17c-.18.75-.18 1.55.01 2.3h.17zM99.04 106.71a7.1 7.1 0 01-.01-2.3h-.17c-.14.75-.13 1.55.01 2.3h.17zM99.55 104.42h-.17a9.83 9.83 0 000 2.3h.17c-.07-.75-.08-1.55 0-2.3zM100.07 104.42h-.17c-.05.75-.05 1.55 0 2.3h.17a29.4 29.4 0 010-2.3zM100.42 104.42v2.3h.17v-2.3h-.17zM100.94 104.42c.03.75.03 1.55 0 2.3h.17c.05-.75.05-1.55 0-2.3h-.17zM101.46 104.42c.08.75.08 1.55 0 2.3h.17c.09-.75.1-1.55 0-2.3h-.17zM101.98 106.71h.17c.14-.75.14-1.55.01-2.3h-.17a7.7 7.7 0 01-.01 2.3zM102.66 106.71c.18-.75.19-1.55.01-2.3h-.17a5.4 5.4 0 01-.01 2.3h.17zM105.02 104.42h-.17c-.18.75-.18 1.55.01 2.3h.17a5.25 5.25 0 01-.01-2.3zM105.54 106.71a7.1 7.1 0 01-.01-2.3h-.17c-.14.75-.13 1.55.01 2.3h.17zM106.06 104.42h-.17a9.83 9.83 0 000 2.3h.17c-.08-.75-.08-1.55 0-2.3zM106.58 104.42h-.17c-.05.75-.05 1.55 0 2.3h.17c-.04-.75-.04-1.55 0-2.3zM106.93 104.42v2.3h.17v-2.3h-.17zM107.45 104.42c.03.75.03 1.55 0 2.3h.17c.05-.75.05-1.55 0-2.3h-.17zM107.96 104.42c.08.75.08 1.55 0 2.3h.17c.09-.75.1-1.55 0-2.3h-.17zM108.48 106.71h.17c.14-.75.14-1.55.01-2.3h-.17c.12.76.11 1.56-.01 2.3zM109.17 106.71c.18-.75.19-1.55.01-2.3h-.17a5.4 5.4 0 01-.01 2.3h.17zM98.52 115.91a5.4 5.4 0 01-.01-2.3h-.17c-.18.75-.18 1.55.01 2.3h.17zM99.04 115.91a7.1 7.1 0 01-.01-2.3h-.17c-.14.75-.13 1.55.01 2.3h.17zM99.55 113.61h-.17a9.83 9.83 0 000 2.3h.17c-.07-.75-.08-1.55 0-2.3zM100.07 113.61h-.17c-.05.75-.05 1.55 0 2.3h.17a29.4 29.4 0 010-2.3zM100.42 113.61v2.3h.17v-2.3h-.17zM100.94 113.61c.03.75.03 1.55 0 2.3h.17c.05-.75.05-1.55 0-2.3h-.17zM101.46 113.61c.08.75.08 1.55 0 2.3h.17c.09-.75.1-1.55 0-2.3h-.17zM101.98 115.91h.17c.14-.75.14-1.55.01-2.3h-.17c.11.75.11 1.55-.01 2.3zM102.66 115.91c.18-.75.19-1.55.01-2.3h-.17a5.4 5.4 0 01-.01 2.3h.17zM105.02 113.61h-.17c-.18.75-.18 1.55.01 2.3h.17a5.25 5.25 0 01-.01-2.3zM105.54 113.61h-.17c-.14.75-.13 1.55.01 2.3h.17a7.1 7.1 0 01-.01-2.3zM106.06 113.61h-.17a9.83 9.83 0 000 2.3h.17c-.08-.75-.08-1.55 0-2.3zM106.58 113.61h-.17c-.05.75-.05 1.55 0 2.3h.17c-.04-.75-.04-1.55 0-2.3zM106.93 113.61v2.3h.17v-2.3h-.17zM107.45 113.61c.03.75.03 1.55 0 2.3h.17c.05-.75.05-1.55 0-2.3h-.17zM107.96 113.61c.08.75.08 1.55 0 2.3h.17c.09-.75.1-1.55 0-2.3h-.17zM108.48 113.61a7.1 7.1 0 01-.01 2.3h.17c.14-.75.14-1.55.01-2.3h-.17zM109.17 115.91c.18-.75.19-1.55.01-2.3h-.17a5.4 5.4 0 01-.01 2.3h.17zM98.51 127.21h-.17c-.18.75-.18 1.55.01 2.3h.17a5.4 5.4 0 01-.01-2.3zM99.03 127.21h-.17c-.14.75-.13 1.55.01 2.3h.17a7.1 7.1 0 01-.01-2.3zM99.55 127.21h-.17a9.83 9.83 0 000 2.3h.17c-.07-.75-.08-1.55 0-2.3zM100.07 127.21h-.17c-.05.75-.05 1.55 0 2.3h.17a29.4 29.4 0 010-2.3zM100.42 127.21v2.3h.17v-2.3h-.17zM100.94 127.21c.03.75.03 1.55 0 2.3h.17c.05-.75.05-1.55 0-2.3h-.17zM101.46 127.21c.08.75.08 1.55 0 2.3h.17c.09-.75.1-1.55 0-2.3h-.17zM101.98 127.21a7.1 7.1 0 01-.01 2.3h.17c.14-.75.14-1.55.01-2.3h-.17zM102.5 127.21a5.4 5.4 0 01-.01 2.3h.17c.18-.75.19-1.55.01-2.3h-.17zM105.02 127.21h-.17c-.18.75-.18 1.55.01 2.3h.17a5.25 5.25 0 01-.01-2.3zM105.54 127.21h-.17c-.14.75-.13 1.55.01 2.3h.17a7.1 7.1 0 01-.01-2.3zM106.06 127.21h-.17a9.83 9.83 0 000 2.3h.17c-.08-.75-.08-1.55 0-2.3zM106.58 127.21h-.17c-.05.75-.05 1.55 0 2.3h.17c-.04-.75-.04-1.55 0-2.3zM106.93 127.21v2.3h.17v-2.3h-.17zM107.45 127.21c.03.75.03 1.55 0 2.3h.17c.05-.75.05-1.55 0-2.3h-.17zM107.96 127.21c.08.75.08 1.55 0 2.3h.17c.09-.75.1-1.55 0-2.3h-.17zM108.48 127.21a7.1 7.1 0 01-.01 2.3h.17c.14-.75.14-1.55.01-2.3h-.17zM109 127.21a5.4 5.4 0 01-.01 2.3h.17c.18-.75.19-1.55.01-2.3H109zM79.43 99.34l-5.83-7.73-5.83 7.73v.05h11.66zM85.55 118.66h-2.93a.73.73 0 00-.71.75v6.14h4.35v-6.14a.73.73 0 00-.71-.75zm-1.58 6.66h-1.83v-4.57h1.83v4.57zm0-4.81h-1.83v-1.1c0-.29.21-.53.48-.53h1.35v1.63zm2.06 4.81H84.2v-4.57h1.83v4.57zm0-4.81H84.2v-1.63h1.35c.27 0 .48.24.48.53v1.1zM64.58 118.66h-2.93c-.4 0-.72.33-.72.75v6.14h4.36v-6.14a.73.73 0 00-.71-.75zM63 125.32h-1.84v-4.57H63v4.57zm0-4.81h-1.84v-1.1c0-.29.22-.53.49-.53H63v1.63zm2.06 4.81h-1.83v-4.57h1.83v4.57zm0-4.81h-1.83v-1.63h1.35c.27 0 .48.24.48.53v1.1zM75.07 118.9h-2.94a.73.73 0 00-.71.75v6.14h4.36v-6.14a.73.73 0 00-.71-.75zm-1.59 6.66h-1.83v-4.57h1.83v4.57zm0-4.81h-1.83v-1.1c0-.29.22-.52.48-.52h1.35v1.62zm2.07 4.81h-1.83v-4.57h1.83v4.57zm0-4.81h-1.83v-1.62h1.35c.26 0 .48.23.48.52v1.1zM74.77 111.95h-2.34a.58.58 0 00-.57.6v3.12h3.48v-3.12c0-.33-.26-.6-.57-.6zm-1.26 3.54h-1.47v-1.87h1.47v1.87zm0-2.06h-1.47v-.88c0-.23.18-.42.39-.42h1.08v1.3zm1.65 2.06h-1.47v-1.87h1.47v1.87zm0-2.06h-1.47v-1.3h1.08c.21 0 .39.19.39.42v.88zM74.77 130.04h-2.34a.58.58 0 00-.57.6v3.12h3.48v-3.12c0-.33-.26-.6-.57-.6zm-1.26 3.54h-1.47v-1.87h1.47v1.87zm0-2.06h-1.47v-.88c0-.23.18-.42.39-.42h1.08v1.3zm1.65 2.06h-1.47v-1.87h1.47v1.87zm0-2.06h-1.47v-1.3h1.08c.21 0 .39.19.39.42v.88zM64.58 130.07h-2.93c-.4 0-.72.33-.72.75v6.14h4.36v-6.14a.73.73 0 00-.71-.75zM63 136.73h-1.84v-4.57H63v4.57zm0-4.8h-1.84v-1.11a.5.5 0 01.49-.52H63v1.63zm2.06 4.8h-1.83v-4.57h1.83v4.57zm0-4.8h-1.83v-1.63h1.35c.27 0 .48.23.48.52v1.11zM85.55 130.07h-2.93a.73.73 0 00-.71.75v6.14h4.35v-6.14a.73.73 0 00-.71-.75zm-1.58 6.66h-1.83v-4.57h1.83v4.57zm0-4.8h-1.83v-1.11c0-.29.21-.52.48-.52h1.35v1.63zm2.06 4.8H84.2v-4.57h1.83v4.57zm0-4.8H84.2v-1.63h1.35c.27 0 .48.23.48.52v1.11zM73.6 102.01a2.95 2.95 0 100 5.9 2.95 2.95 0 000-5.9zm0 5.54a2.6 2.6 0 110-5.18 2.6 2.6 0 010 5.18z"/><path class="st1" d="M74.63 103.6l-.98 1.07-.06-.01-.11.02-1.56-1.23-.2.25 1.56 1.23-.01.03c0 .17.14.31.31.31.17 0 .31-.14.31-.31a.19.19 0 00-.02-.08l.98-1.07-.22-.21zM71.53 104.76a.2.2 0 00-.2.2c0 .11.09.2.2.2a.2.2 0 00.2-.2.2.2 0 00-.2-.2zM75.7 105.16a.2.2 0 00.2-.2.2.2 0 00-.2-.2.2.2 0 00-.2.2c0 .11.09.2.2.2zM73.62 106.84a.2.2 0 00-.2.2c0 .11.09.2.2.2s.2-.09.2-.2a.2.2 0 00-.2-.2z"/><circle class="st1" cx="73.62" cy="102.88" r=".2"/><path class="st1" d="M73.71 136.25h-.22c-1.15 0-2.08.91-2.08 2.04v5.8h4.38v-5.8c0-1.13-.94-2.04-2.08-2.04zm1.56 4.38c-.12 0-.21-.1-.21-.23s.09-.23.21-.23c.11 0 .21.1.21.23s-.1.23-.21.23z"/></g><g><path class="st1" d="M29.45 105.5l-3.44 2.13v2.13l6.88 3.86v-5.99l-3.44-2.13zm.05 5.14a1.74 1.74 0 010-3.47 1.74 1.74 0 110 3.47zM4.6 105.5l-3.45 2.13v5.99l6.89-3.86v-2.13L4.6 105.5zm-.06 5.14a1.73 1.73 0 110-3.47 1.73 1.73 0 010 3.47zM2.65 119.72v7.16H7.1v-7.16H2.65zm3.98 6.69H3.12v-4.08h3.51v4.08zm0-4.61H3.12v-1.61h3.51v1.61zM27.08 119.72v7.16h4.45v-7.16h-4.45zm3.98 6.69h-3.51v-4.08h3.51v4.08zm0-4.61h-3.51v-1.61h3.51v1.61zM10.65 119.72v7.16h4.45v-7.16h-4.45zm3.98 6.69h-3.52v-4.08h3.52v4.08zm0-4.61h-3.52v-1.61h3.52v1.61zM19.08 119.72v7.16h4.45v-7.16h-4.45zm3.99 6.69h-3.52v-4.08h3.52v4.08zm0-4.61h-3.52v-1.61h3.52v1.61zM17.61 110.95a5.83 5.83 0 00-1.75.09 4.47 4.47 0 00-2.83 1.74v2.8h7.99v-2.8a4.66 4.66 0 00-3.41-1.83zm-2.1 4.16h-2.02v-1.34h2.02v1.34zm0-1.68h-2.02v-.5a3.92 3.92 0 012.02-1.32v1.82zm2.65 1.68h-2.27v-1.34h2.27v1.34zm0-1.68h-2.27v-1.92a5.22 5.22 0 012.27 0v1.92zm2.39 1.68h-2.01v-1.34h2.01v1.34zm0-1.68h-2.01v-1.82c.83.25 1.54.7 2.01 1.32v.5z"/><path class="st1" d="M29.45 105.22l3.7 2.28.24-.39-3.94-2.44-3.94 2.44.24.39zM4.54 107.39a1.52 1.52 0 10.01 3.03 1.52 1.52 0 00-.01-3.03zm-.13 2.78a1.27 1.27 0 01-1.14-1.16h1.14v1.16zm0-1.42H3.27a1.3 1.3 0 011.14-1.12v1.12zm.26-1.12c.6.07 1.07.53 1.14 1.12H4.67v-1.12zm0 2.54v-1.16h1.14c-.05.61-.53 1.1-1.14 1.16z"/><path class="st1" d="M29.5 107.39a1.52 1.52 0 10.01 3.03 1.52 1.52 0 00-.01-3.03zm-.13 2.78a1.27 1.27 0 01-1.14-1.16h1.14v1.16zm0-1.42h-1.13c.07-.59.54-1.05 1.13-1.12v1.12zm.27-1.12c.59.07 1.06.53 1.13 1.12h-1.13v-1.12zm0 2.54v-1.16h1.14c-.05.61-.53 1.1-1.14 1.16zM.9 107.5l.25-.15 3.45-2.13 3.7 2.28.15-.24.09-.15-3.94-2.44-3.95 2.44.07.1zM23.93 137.79l.15.06c.06.02.12.02.19.02s.13-.01.19-.03a.53.53 0 00.15-.08.36.36 0 00.1-.14c.02-.06.04-.12.04-.2a.45.45 0 00-.05-.22.35.35 0 00-.13-.14.5.5 0 00-.16-.09.77.77 0 01-.16-.07l-.13-.08a.17.17 0 01-.05-.12c0-.07.02-.12.07-.15a.36.36 0 01.19-.05.37.37 0 01.19.04l.06.03.04.01.04-.01.03-.03.02-.04.01-.04c0-.03-.01-.05-.04-.07l-.1-.05-.12-.03-.12-.01-.17.02a.33.33 0 00-.16.07.32.32 0 00-.11.12.38.38 0 00-.04.19c0 .08.02.15.05.2.03.05.08.09.13.13l.16.08.16.07.13.09c.03.04.05.09.05.15a.2.2 0 01-.08.17c-.05.04-.11.05-.19.05a.26.26 0 01-.14-.03.35.35 0 01-.09-.06l-.07-.06-.05-.03-.04.01-.03.03-.02.04-.01.04c0 .03.01.05.03.08.01.08.04.11.08.13zM25.22 137.86l.08-.02a.05.05 0 00.03-.05v-.63h.52v.63c0 .02.01.04.03.05l.08.02.08-.02a.05.05 0 00.03-.05v-1.38c0-.03-.01-.04-.03-.05a.19.19 0 00-.08-.02l-.08.02a.05.05 0 00-.03.05v.58h-.52v-.58c0-.03-.01-.04-.03-.05a.19.19 0 00-.08-.02l-.08.02a.05.05 0 00-.03.05v1.38c0 .02.01.04.03.05l.08.02zM27.39 136.58a.24.24 0 00-.1-.14.28.28 0 00-.15-.08.58.58 0 00-.37 0 .37.37 0 00-.15.08.28.28 0 00-.09.14.48.48 0 00-.04.22v.61c0 .08.01.15.04.21.02.06.05.11.09.15l.15.08.19.02a1 1 0 00.18-.02.53.53 0 00.15-.08.3.3 0 00.1-.15.46.46 0 00.04-.21v-.61a.48.48 0 00-.04-.22zm-.18.83c0 .09-.02.16-.07.2-.04.04-.1.07-.18.07s-.14-.03-.18-.07c-.05-.04-.07-.11-.07-.2v-.61c0-.09.02-.16.07-.21.04-.04.1-.06.18-.06s.14.02.18.06c.05.05.07.12.07.21v.61zM28.76 136.58a.24.24 0 00-.1-.14.29.29 0 00-.14-.08.57.57 0 00-.18-.03h-.41a.1.1 0 00-.06.02c-.02.02-.02.03-.02.05v1.39c0 .02.01.04.03.05l.08.02.07-.02c.03-.01.04-.03.04-.05v-.52h.26l.18-.02a.53.53 0 00.15-.08.4.4 0 00.1-.15.65.65 0 00.04-.21v-.02a.46.46 0 00-.04-.21zm-.18.24c0 .1-.03.16-.07.21a.27.27 0 01-.18.07h-.26v-.57h.26c.07 0 .14.02.18.06.04.05.07.12.07.21v.02zM4.51 136.74a.27.27 0 01.19-.07c.05 0 .1.01.13.03l.07.06a.1.1 0 01.03.07l.01.07c0 .03.01.04.03.06l.08.02.08-.02c.02-.01.03-.05.03-.09a.33.33 0 00-.03-.15.23.23 0 00-.1-.12.53.53 0 00-.34-.11.57.57 0 00-.33.11.45.45 0 00-.1.14.67.67 0 00-.04.22v.61c0 .09.01.16.04.22a.3.3 0 00.1.14c.04.04.09.06.15.08.06.02.12.02.18.02a.54.54 0 00.34-.11c.04-.03.07-.08.1-.12.02-.05.03-.1.03-.16 0-.05-.01-.08-.03-.09-.02-.02-.05-.02-.09-.02a.19.19 0 00-.08.02c-.02.01-.03.03-.03.06l-.01.08c0 .03-.02.05-.03.08a.43.43 0 01-.07.06c-.03.02-.07.02-.13.02-.08 0-.15-.02-.19-.07-.04-.04-.06-.11-.06-.2v-.61c0-.12.02-.19.07-.23zM6.41 136.73a.36.36 0 00-.25-.23c-.06-.02-.12-.02-.18-.02-.07 0-.13 0-.19.02a.36.36 0 00-.15.08.56.56 0 00-.1.15.66.66 0 00-.03.21v.61c0 .09.01.16.03.22.03.06.06.1.1.14.04.04.09.07.15.08a.58.58 0 00.37 0 .28.28 0 00.15-.08c.04-.04.08-.08.1-.14s.04-.13.04-.22v-.61a.65.65 0 00-.04-.21zm-.19.82c0 .09-.02.16-.06.2-.04.05-.11.07-.18.07a.25.25 0 01-.19-.07c-.04-.04-.06-.11-.06-.2v-.61c0-.09.02-.16.06-.2a.25.25 0 01.19-.07c.07 0 .14.02.18.07.04.04.06.11.06.2v.61zM6.97 138l.08-.02c.02-.01.03-.03.03-.06v-.6h.32c.03 0 .04-.01.05-.03l.02-.06-.02-.06a.05.05 0 00-.05-.03h-.32v-.48h.61c.02 0 .04-.01.05-.03a.14.14 0 00.02-.07.19.19 0 00-.02-.07.05.05 0 00-.05-.03h-.73a.19.19 0 00-.07.02.05.05 0 00-.03.05v1.38c0 .03.01.04.03.06.03.03.06.03.08.03zM8.18 138l.08-.02c.02-.01.03-.03.03-.06v-.6h.32c.03 0 .04-.01.05-.03l.02-.06-.02-.06a.05.05 0 00-.05-.03h-.32v-.48h.61c.02 0 .04-.01.05-.03a.14.14 0 00.02-.07.19.19 0 00-.02-.07.05.05 0 00-.05-.03h-.73a.19.19 0 00-.07.02.05.05 0 00-.03.05v1.38c0 .03.01.04.03.06.03.03.05.03.08.03zM9.37 138h.74l.06-.03a.14.14 0 00.02-.07l-.02-.07a.05.05 0 00-.05-.03H9.5v-.48h.32c.03 0 .04-.01.06-.03l.02-.06-.02-.06a.05.05 0 00-.05-.03H9.5v-.48h.62c.02 0 .04-.01.05-.03a.14.14 0 00.02-.07.19.19 0 00-.02-.07c-.01-.02-.03-.03-.06-.03h-.74a.19.19 0 00-.07.02.05.05 0 00-.03.05v1.38c0 .02.01.04.03.05.03.04.05.04.07.04zM10.62 138h.74c.03 0 .04-.01.06-.03a.14.14 0 00.02-.07l-.02-.07a.05.05 0 00-.05-.03h-.62v-.48h.32c.03 0 .04-.01.06-.03l.02-.06-.02-.06a.05.05 0 00-.05-.03h-.32v-.48h.62c.02 0 .04-.01.05-.03a.14.14 0 00.02-.07.19.19 0 00-.02-.07c-.01-.02-.03-.03-.06-.03h-.74a.19.19 0 00-.07.02.05.05 0 00-.03.05v1.38c0 .02.01.04.03.05.02.04.04.04.06.04zM47.66 144.08v-7.18h-3.88v7.18h-.2v.01h4.29v-.01h-.21zm-.28-2.99c-.04 0-.07-.15-.07-.34 0-.18.03-.34.07-.34.04 0 .07.16.07.34 0 .19-.03.34-.07.34zM34.2 142.45v-.61H19.14v2.24h-.37v-6.37a.83.83 0 00-.83-.83h-1.83a.83.83 0 00-.83.83v6.37h-.37v-2.24H.01v2.25h43.36v-1.64H34.2zM34.04 111.82h1.5v-1.17h-1.5zM36.14 109.14v-1.65h-2.1v1.65h.18zM35.54 106v-1.18h-1.5V106h.18zM36.14 103.31v-1.64h-1.42l-.17.15-.37.34-.14.12v1.03h.18zM55.91 110.65v1.17h1.49v-1.17h-.17zM57.4 107.49h-2.09v1.65h2.09zM57.4 104.82h-1.49V106h1.49zM57.4 102.26l-.14-.13-.34-.31-.17-.15h-1.44v1.64h2.09z"/><path class="st1" d="M34.04 102l.37-.33 11.31-10.32 11.34 10.32.34.31.83.75 1.01-.9-13.52-12.41-13.52 12.41.93 1.01z"/><path class="st1" d="M45.74 96.86h-.04c-1.18 0-2.14.96-2.14 2.15V101h4.33v-1.99c0-1.19-.96-2.15-2.15-2.15zm-.22 3.8H43.9v-1.47h1.62v1.47zm0-1.81h-1.61c.08-.86.76-1.54 1.61-1.63v1.63zm.34-1.63c.89.05 1.59.75 1.67 1.63h-1.67v-1.63zm1.69 3.44h-1.69v-1.47h1.69v1.47zM38.79 106.94v7.16h4.64v-7.16h-4.64zm4.28 6.8h-3.92v-4.47h3.92v4.47zm0-4.83h-3.92v-1.62h3.92v1.62zM48.02 106.94v7.16h4.64v-7.16h-4.64zm4.28 6.8h-3.93v-4.47h3.93v4.47zm0-4.83h-3.93v-1.62h3.93v1.62zM38.79 121.26v7.17h4.64v-7.17h-4.64zm4.28 6.81h-3.92v-4.47h3.92v4.47zm0-4.83h-3.92v-1.62h3.92v1.62zM48.02 121.26v7.17h4.64v-7.17h-4.64zm4.28 6.81h-3.93v-4.47h3.93v4.47zm0-4.83h-3.93v-1.62h3.93v1.62z"/></g></g></g></svg>