<svg xmlns="http://www.w3.org/2000/svg" viewBox="0 0 2661 453"><g opacity=".5"><linearGradient id="a" gradientUnits="userSpaceOnUse" x1="1351.5" y1="1" x2="1351.5" y2="454"><stop offset="0" stop-color="#a6cbff"/><stop offset="1" stop-color="#d2ecfd"/></linearGradient><path d="M2397 1h48v125h23.2V34.3c4.7-.5 9.2-1.2 13.7-1.3 23.5-.1 47-.1 70.5-.1h4.7v156.9h9v-5c0-17.8.1-35.7-.1-53.5 0-4.3 1.4-8 2.9-11.8 3-7.3 8.6-12.3 14.9-16.6 3.2-2.2 7.1-3.6 10.8-3.9 8.1-.6 16.2-.2 24.5-.2v90.8c1.1.2 2 .3 3 .5v5.9h24v164.7c4.6 3.6 7.2 8.2 7.9 13.8.8 7.8-2 14.1-8 18.9v17.8c0 .1.1.3.2.4.1.1.2.2.3.4h16.5v42H40v-42h8.5l1.5-1.5v-4.6V203c0-3 .7-6.2-.9-9.1-.4-.8-.4-2.2 0-2.9 1.5-2.3 1-4.8.9-7.1-.1-2.5.8-5.1-.8-7.6-.6-.9-.4-2.9.2-3.8.8-1.1.7-2.2.7-3.2-.4-11.3-1.2-22.6-1.3-34-1.2-.1-2.5-.2-3.5-.3v-8.8h96c.1 0 .3-.1.4-.2.1-.1.2-.2.4-.3V88.2 50.4c13.5-.6 44.9-.4 49 .3V82c17 .7 49.9.4 54-.4V1.1h49V124h22v-2c.4-18.5-1-37.1 1.1-54.9.9-2.4 1.6-4.3 2.4-6.1 3.2-7 7.3-13 13.6-17.9 6.4-5.1 13.6-7.9 21.3-8.8 5.5-.7 11.3-.8 17.1.6 5.6 1.4 14.4 6.1 17.1 8.3 1.3 1.1 2.4 2.3 3.6 3.5 1.1 1.1 2.2 2 3.2 3.2 1 1.2 2.7 2.9 2.4 3.8-.7 2.4 1.7 2.3 2.4 3.6 1.5 3.2 2.3 6.4 3 9.8 1 5.1 1.9 10 1.9 15.2-.1 25.8 0 51.7 0 77.5v5h9.1V98.1h51.5c.5.5 1 .9 1.5 1.3v29.1c0 1.7.2 3.4.8 5.1 1 3.1 1.1 6.7 1.1 10 .1 15.8 0 31.7 0 47.5v3.8h6.2c.8-.4 1.3-.7 1.9-1 5.2-2.5 10-5.4 13.1-10.6 1.7-2.8 3.4-5.7 3.8-8.9.7-5.8 1-11.7 1.1-17.6.1-21.5 0-43 0-64.5v-4.5c8.3.6 16-1.4 23.9-1 8.6.4 17.3.1 26 .1h7.2v83.2h11.9v9.7h13.6l1.5-1.5V142c3.7-.3 7.3.2 11-.2v-8.9h28.9v-78h22c.3-2 .8-3.8.8-5.7.1-3.2 0-6.3 0-9.5 0-1.9.1-3.9.1-5.7h69.4l1.6 1.6v88.5h59v10.8h2.9V44.1h80v11h14.1v69.7h17.9v-18.6c.1-6.1-.3-12.2.2-18h34.9v64.9h52.9c0 3.8.1 7.3 0 10.8-.2 3.4 1.7 6.6 1.1 10.1-.6 3.4.7 6.6 1.4 9.9l10.2 10.1c3.5-.2 6.8 2.2 10.6.5V50.3h49v31.8h26.6c.7 0 1.3.1 2 0 .8-.1 1.6-.3 2.3-.5 2-.8 4-2.2 6-2.3 2.8-.1 3.5-2.6 5.6-3.5 3-1.3 7-8.2 8.4-11.9.9-2.4 1.5-4.7 2.1-7.2.7-2.7.8-5.4.8-8.1V1.1h48V126h23V34.1c9-.2 17.7.5 26.4-1h62.7v156.8h8.9v-5.1-53.5c0-4 1-7.8 2.7-11.4 4.1-8.7 10.4-15.1 19.4-18.9 2.6-1.1 5.2-2.1 8.2-2 6.3.1 12.7 0 19 0 1.3 0 2.5.1 4 .2v90.7c1 .1 1.7.2 2.9.3v5.7h17.6l1.2-1.2c.6-14.1.4-55.6-.4-59.9h-3.3v-8.9h97V50.2h49v31.6c12.8.6 49.8.4 53.9-.3V1h49v122.9h22v-2c.4-18.5-1-37.1 1.1-54.9.9-2.4 1.6-4.3 2.4-6.1 3.2-7 7.3-13 13.6-17.9 6.4-5.1 13.6-7.9 21.3-8.8 5.5-.7 11.3-.8 17.1.6 5.6 1.4 14.4 6.1 17.1 8.3 1.3 1.1 2.4 2.3 3.6 3.5 1.1 1.1 2.2 2 3.2 3.2 1 1.2 2.7 2.9 2.4 3.8-.7 2.4 1.7 2.3 2.4 3.6 1.5 3.2 2.3 6.4 3 9.8 1 5.1 1.9 10 1.9 15.2-.1 25.8 0 51.7 0 77.5v5h9.1V98h51.5c.5.5 1 .9 1.5 1.3v29.1c0 1.7.2 3.4.8 5.1 1 3.1 1.1 6.7 1.1 10 .1 15.8 0 31.7 0 47.5v3.8h6.5c.1-.1.2-.2.4-.3.4-.2.8-.5 1.2-.7 5.2-2.5 10-5.4 13.1-10.6 1.7-2.8 3.4-5.7 3.8-8.9.7-5.8 1-11.7 1.1-17.6.1-21.5 0-43 0-64.5v-4.5c9.3.8 18-1.5 26.9-1 7 .4 14 .1 21 .1h9.2V170h11.9v9.7h13.6l1.5-1.5v-36.3c3.7-.3 7.3.2 11-.2v-8.9h28.9v-78h22c.3-2 .8-3.8.8-5.7.1-3.2 0-6.3 0-9.5 0-1.9.1-3.9.1-5.7h69.4l1.6 1.6V124h59v10.8h2.9V44h80v11h14.1v69.7h17.9v-18.6c.1-6.1-.3-12.2.2-18h34.9V153h52.7c.3 5.2 1.5 10 1.3 14.9-.3 5.3-.5 10.7 1.4 16l10.1 10c3.5-.2 6.8 2.2 10.6.5V50.2h49V82h26.6c.7 0 1.3.1 2 0 .8-.1 1.6-.3 2.3-.5 2-.8 4-2.2 6-2.3 2.8-.1 3.5-2.6 5.6-3.5 3-1.3 7-8.2 8.4-11.9.9-2.4 1.5-4.7 2.1-7.2.7-2.7.8-5.4.8-8.1-.4-15.8-.4-31.7-.4-47.5z" fill="url(#a)"/><linearGradient id="b" gradientUnits="userSpaceOnUse" x1="20.12" y1="411.25" x2="25.14" y2="411.25"><stop offset="0" stop-color="#c3e2fd"/><stop offset="1" stop-color="#a6cbff"/></linearGradient><path fill="url(#b)" d="M20.1 410.7h5v1.2h-5z"/></g><linearGradient id="c" gradientUnits="userSpaceOnUse" x1="1381.5" y1="96" x2="1381.5" y2="454"><stop offset="0" stop-color="#a6cbff"/><stop offset="1" stop-color="#d6f3fd"/></linearGradient><path d="M2622 358v95H417v1H141V329h8V190.8c0-.2.1-.3.2-.4.1-.1.2-.2.6-.5H191v-10.6h46v10.5h8v-65.6c13-.6 71.7-.4 76 .3V230c6.1-.2 12 .2 17.8-.2V96h42v49c2.3 4.5 4.3 8.7 6.1 12.2 1.4 1.1 2.2 1.8 3 2.4 3.5 2.7 7.4 5 11.8 5.2 7.9.5 15.9.1 24.1.1v-26.8h42v190.6h5v-67.5c2.8-1.8 5.5-3.4 8.1-5.1 3-1.9 3.3-5.8 5.9-8v-23.3h45v-54.7h31.1V202h7.1c2.3-.1 4.5.3 6.9-.3v-59.8h11.9v-8.8H658v23.1c0 7.6-.2 15.2.1 22.6H702v-23.9h8.1v-30.7h62.1V135h21.1c6.9 0 13.8-.1 20.9 0v36.8h32.6c.2-1 .3-1.9.4-2.7h48.6c.2 1.1.4 2 .6 3H924v6.9h40.1v149.7h8V215.6c1.8-1.4 3.3-2.6 4.9-3.6 3.5-2.4 7.1-4.6 10.5-7.1 7.9-5.8 16.1-11.2 24.1-16.8 9-6.3 18.2-12.4 27.3-18.6a404 404 0 019.2-5.8v65h18V97.1h41.9v27h87.1v65.1h131.6c.2.3.3.5.3.6v138.5c0 .1.1.3.1.4.1.1.2.3.2.2h13.7v-133h104.1v-6h42.1v-10.7c13.2-.6 41.8-.4 46 .4v10.3h6.9v-66.7h77.1v107.7h17.9V97.2h42v44.1c0 1.6 0 3.1.9 4.6 1.8 3 3.5 6.2 4.9 9.5.8 2 2.1 2.9 3.9 3.8 3.5 1.8 6.7 3.9 9.7 5.6h25.7v-26.7h42.1v190.7h4.8v-5.1c0-18.8.1-37.7-.1-56.5 0-3.8 1.2-6.9 4.2-8.7 3.2-1.9 5.2-4.9 7.5-7.4.7-1.5 1.4-3.1 2.5-5.5v-20.8h45V170h30.9v31.8h14v-60h12.1v-8.7h68.9v47.6h52.1v-56.5h61.1V135h42.1c.1 0 .3.1.4.2.1.1.2.2.5.6V172h32.1c.2 0 .4-.4.6-.6.2-.5.3-.9.4-1.3h48.4c.3.7.4 1.3.7 2h28.6v6.9h39.1v54.7h7.1v-17.5c8.6-5.9 17.1-11.7 25.5-17.4 8.4-5.8 16.7-11.8 25.4-17.3 8.6-5.4 16.4-12 25.9-17.1V228h17.3c.1 0 .3-.1.4-.1.1-.1.2-.2.4-.3V96h42v30.2h93.1v66.9H2619v164.1c0 .1.1.3.1.4.1.1.2.3.3.4h2.6z" fill="url(#c)"/></svg>