<svg xmlns="http://www.w3.org/2000/svg" viewBox="0 0 512 512"><path d="M256 0C115.4 0 0 115.4 0 256c0 119.99 84.2 228.98 196 256v-84.7c-11.08 2.43-21.27 2.5-32.55-.82-15.13-4.47-27.42-14.55-36.55-29.91-5.81-9.82-16.12-20.46-26.88-19.68l-2.63-29.88c23.25-1.99 43.37 14.17 55.3 34.23 5.31 8.92 11.42 14.15 19.26 16.47 7.57 2.23 15.7 1.16 25.18-2.19 2.38-18.97 11.07-26.07 17.64-36.07v-.02c-66.68-9.95-93.26-45.32-103.8-73.24-13.98-37.08-6.48-83.4 18.23-112.66.48-.57 1.35-2.07 1.01-3.1-11.33-34.24 2.48-62.55 2.99-65.56 13.08 3.87 15.2-3.89 56.8 21.39l7.2 4.32c3 1.8 2.06.77 5.07.54a217.25 217.25 0 0153.73-7.56 218.2 218.2 0 0154.46 7.75l2.33.24c-.2-.03.63-.15 2.03-.99 51.98-31.48 50.11-21.19 64.05-25.72.5 3 14.13 31.79 2.92 65.58-1.52 4.66 45.05 47.3 19.24 115.76-10.55 27.93-37.12 63.3-103.8 73.25v.02c8.55 13.02 18.82 19.95 18.77 46.83V512c111.8-27.02 196-136.01 196-256C512 115.4 396.6 0 256 0zm0 0" data-original="#000000" data-old_color="#000000" fill="#FFF"/></svg>