<svg fill="#74d14c" xmlns="http://www.w3.org/2000/svg" viewBox="0 0 512 512"><path d="M328.72 366.51a10.65 10.65 0 00-8.2-3.84H191.48a10.65 10.65 0 00-10.5 12.6C196.33 458.33 225.79 512 256 512s59.68-53.67 75.01-136.73c.57-3.11-.26-6.32-2.3-8.76zM499.83 178.08a10.65 10.65 0 00-10.15-7.41H369.56a10.65 10.65 0 00-10.61 11.73c2.47 24.5 3.72 49.28 3.72 73.6s-1.25 49.1-3.72 73.6a10.65 10.65 0 0010.61 11.73h120.12c4.64 0 8.75-3 10.15-7.42a255.8 255.8 0 000-155.83zM353.3 140.44c.86 5.13 5.3 8.9 10.51 8.9h107.67a10.68 10.68 0 009.37-15.77C448.82 74.87 393.8 30.18 329.9 10.93a10.66 10.66 0 00-12.39 15.4c15.54 27.86 27.92 67.3 35.78 114.1zM326.72 170.67H185.28c-5.45 0-10.02 4.1-10.6 9.52-2.66 24.62-4.01 50.13-4.01 75.81s1.35 51.19 4 75.81a10.66 10.66 0 0010.61 9.52h141.44c5.45 0 10.02-4.1 10.6-9.52 2.66-24.62 4.01-50.13 4.01-75.8s-1.35-51.2-4-75.82a10.66 10.66 0 00-10.61-9.52zM40.52 149.33H148.2c5.2 0 9.65-3.76 10.52-8.9 7.86-46.78 20.24-86.23 35.78-114.09a10.64 10.64 0 00-12.38-15.4C118.19 30.19 63.18 74.89 31.16 133.56a10.68 10.68 0 009.36 15.77zM150.34 337.82a10.66 10.66 0 002.71-8.23c-2.47-24.5-3.72-49.27-3.72-73.59s1.25-49.1 3.72-73.6a10.65 10.65 0 00-10.61-11.73H22.32c-4.64 0-8.75 3-10.15 7.41a255.78 255.78 0 000 155.84 10.65 10.65 0 0010.15 7.41h120.12c3 0 5.88-1.27 7.9-3.5zM158.7 371.56a10.67 10.67 0 00-10.51-8.9H40.52a10.68 10.68 0 00-9.36 15.77c32.02 58.68 87.03 103.38 150.94 122.63a10.7 10.7 0 0011.39-3.52c2.72-3.4 3.12-8.1 1-11.88-15.54-27.86-27.92-67.3-35.78-114.1zM471.48 362.67H363.8c-5.2 0-9.65 3.76-10.52 8.9-7.86 46.78-20.24 86.23-35.78 114.09a10.69 10.69 0 009.31 15.86c1.02 0 2.07-.15 3.08-.46 63.91-19.25 118.92-63.95 150.94-122.62a10.68 10.68 0 00-9.36-15.77zM183.28 145.49a10.65 10.65 0 008.2 3.84h129.04a10.65 10.65 0 0010.5-12.6C315.67 53.67 286.21 0 256 0s-59.68 53.67-75.01 136.73c-.57 3.11.26 6.32 2.3 8.76z"/></svg>