<svg xmlns="http://www.w3.org/2000/svg" viewBox="0 0 310 310"><path d="M72.16 99.73H9.93a5 5 0 00-5 5v199.93a5 5 0 005 5h62.23a5 5 0 005-5V104.73a5 5 0 00-5-5zM41.07.34A41.09 41.09 0 000 41.36 41.1 41.1 0 0041.07 82.4 41.08 41.08 0 0082.1 41.36 41.07 41.07 0 0041.07.34zM230.45 94.76c-25 0-43.47 10.75-54.67 22.95v-12.98a5 5 0 00-5-5h-59.6a5 5 0 00-5 5v199.93a5 5 0 005 5h62.1a5 5 0 005-5v-98.92c0-33.33 9.05-46.32 32.28-46.32 25.3 0 27.32 20.82 27.32 48.04v97.2a5 5 0 005 5H305a5 5 0 005-5V194.99c0-49.56-9.45-100.23-79.55-100.23z" data-original="#000000" class="active-path" data-old_color="#000000" fill="#FFF"/></svg>