<svg xmlns="http://www.w3.org/2000/svg" viewBox="0 0 306.4 55.2"><path d="M74.7 21.6h4v17.7h11v3.3h-15v-21zm27.8 17.8v3.2h-9.8v-21H108V25H96.6v5.5h8.4v3.2h-8.4v5.8h5.9zm27.9-5.8c.7.9 1 2 1 3.3 0 1.8-.6 3.2-2 4.2s-3.5 1.5-6.2 1.5h-10.4v-21h9.9c2.4 0 4.3.5 5.7 1.5 1.3 1 2 2.3 2 4 0 1-.3 2-.7 2.7s-1.2 1.4-2 1.9c1.1.4 2 1 2.7 1.9zm-13.7-9v5.9h5.5c1.4 0 2.4-.3 3.2-.8.7-.5 1-1.2 1-2.1 0-1-.3-1.7-1-2.2-.8-.5-1.8-.7-3.2-.7h-5.5zm10.8 12c0-2-1.5-3.1-4.5-3.1h-6.3v6h6.3c3 0 4.5-1 4.5-3zm12.2 4.9a10.3 10.3 0 01-5.6-9.4c0-2 .5-3.9 1.5-5.5 1-1.7 2.3-3 4-3.9 1.8-1 3.7-1.4 5.9-1.4s4 .5 5.7 1.4a10.4 10.4 0 015.6 9.4 10.4 10.4 0 01-5.5 9.4c-1.8 1-3.7 1.4-5.9 1.4s-4-.4-5.7-1.4zm9.5-3c1.2-.6 2-1.5 2.7-2.6.6-1.1 1-2.4 1-3.8s-.4-2.7-1-3.8-1.6-2-2.7-2.6a7.6 7.6 0 00-7.6 0 7.2 7.2 0 00-3.6 6.4 8 8 0 001 3.8c.7 1.1 1.6 2 2.7 2.6 1 .7 2.3 1 3.7 1s2.7-.3 3.8-1zm30.4-16.9v21h-3.2l-11.6-14.2v14.2h-3.9v-21h3.2l11.6 14.2V21.6h3.9zm19.4 21l-4.4-6.1a8 8 0 01-.8 0h-4.7v6.1h-3.9v-21h8.6c1.9 0 3.4.3 4.8 1 1.3.5 2.4 1.4 3 2.5.8 1.1 1.2 2.4 1.2 4s-.4 3-1.2 4c-.8 1.2-1.9 2-3.3 2.6l4.8 7H199zM197.4 26c-.8-.7-2.1-1-3.8-1H189v8.3h4.6c1.7 0 3-.4 3.8-1.1 1-.7 1.4-1.8 1.4-3.1s-.5-2.4-1.4-3.1zM229 42.2c-1.5-.4-2.7-1-3.5-1.8l1.3-3a13.7 13.7 0 006.9 2.3c1.6 0 2.8-.3 3.5-.8.8-.5 1.2-1.1 1.2-2 0-.5-.2-1-.7-1.4-.4-.4-1-.7-1.6-1l-2.7-.7-3.9-1.1c-1-.4-1.8-1-2.5-1.8s-1-2-1-3.3c0-1.2.2-2.2.9-3.2.6-1 1.5-1.7 2.8-2.2a11 11 0 014.7-.9c1.3 0 2.5.2 3.8.5 1.2.3 2.3.8 3.2 1.4l-1.3 3a12.1 12.1 0 00-5.7-1.6c-1.6 0-2.7.2-3.5.7s-1.1 1.2-1.1 2.1c0 .6.2 1 .6 1.5.5.4 1 .7 1.7.9l2.7.7c1.5.4 2.8.7 3.8 1.1 1 .4 1.9 1 2.6 1.8.7.8 1 2 1 3.3a5 5 0 01-1 3.1c-.5 1-1.5 1.7-2.8 2.3s-2.8.8-4.7.8a16 16 0 01-4.7-.7zm26.8-2.8v3.2h-9.7v-21h15.3V25H250v5.5h8v3.2h-8v5.8h5.8zm24-1.6h-10.5l-2 4.8h-4l9.4-21h3.8l9.5 21h-4l-2.2-4.8zm-1.3-3.1l-4-9.2-3.9 9.2h8zm12 5.8a9.8 9.8 0 01-2.5-7V21.6h4v11.7c0 4.1 1.7 6.2 5.3 6.2 3.5 0 5.3-2 5.3-6.2V21.6h3.8v11.9c0 3-.8 5.3-2.4 7a9 9 0 01-6.8 2.4c-2.8 0-5.1-.8-6.7-2.4zM20.7 44.6H10V34h10.6v10.6zm-6.6-4h2.6V38H14v2.6z" fill="#fff"/><path d="M216.9 39.4v3.2H207v-21h15.4V25H211v5.5h8v3.2h-8v5.8h5.9zM26 44.5V25.9l-4.4 1.2-14.4 3.7-2.9.7v19.4H56v4.3H0v-27l7.2-1.9 14.4-3.7 8.7-2.2v19.8h21.4V23L17.3 7v9.9L12.9 18V0L56 20.4v24.1z" fill="#74d14c"/></svg>