<svg xmlns="http://www.w3.org/2000/svg" viewBox="0 0 578.11 578.11"><path d="M577.83 456.13c1.23 9.38-1.64 17.54-8.57 24.48l-81.4 80.78c-3.67 4.08-8.46 7.55-14.37 10.4a59.43 59.43 0 01-17.44 5.51c-.41 0-1.64.1-3.68.31-2.04.2-4.69.3-7.95.3-7.76 0-20.3-1.32-37.64-3.97s-38.56-9.18-63.65-19.59c-25.1-10.4-53.55-26-85.37-46.81-31.83-20.8-65.7-49.37-101.6-85.68-28.56-28.16-52.22-55.08-70.99-80.79-18.77-25.7-33.86-49.47-45.29-71.3-11.42-21.82-19.99-41.61-25.7-59.36s-9.59-33.05-11.63-45.9-2.86-22.95-2.45-30.3c.41-7.34.61-11.42.61-12.23.82-5.72 2.66-11.53 5.51-17.45s6.33-10.7 10.4-14.38l81.4-81.4C103.73 3.06 110.26.2 117.61.2c5.3 0 10 1.53 14.07 4.59s7.55 6.83 10.4 11.32l65.49 124.24c3.67 6.52 4.7 13.66 3.06 21.42a38.15 38.15 0 01-10.4 19.58l-30 29.99c-.8.81-1.52 2.14-2.13 3.98s-.92 3.36-.92 4.59c1.63 8.56 5.3 18.36 11.01 29.37 4.9 9.8 12.45 21.73 22.65 35.8s24.68 30.3 43.45 48.66c18.36 18.77 34.68 33.35 48.96 43.76 14.28 10.4 26.21 18.05 35.8 22.95 9.6 4.9 16.93 7.85 22.03 8.87l7.65 1.53c.82 0 2.15-.3 3.98-.92 1.84-.61 3.16-1.33 3.98-2.14l34.88-35.5a37.5 37.5 0 0125.7-9.79c6.95 0 12.45 1.22 16.53 3.67h.61l118.12 69.77c8.57 5.3 13.67 12.04 15.3 20.2z" fill="#74d14c"/></svg>