<?xml version="1.0" encoding="utf-8"?>
<!-- Generator: Adobe Illustrator 23.0.0, SVG Export Plug-In . SVG Version: 6.00 Build 0)  -->
<svg version="1.1" id="Слой_1" fill="#f7f9fb" xmlns="http://www.w3.org/2000/svg" xmlns:xlink="http://www.w3.org/1999/xlink" x="0px" y="0px"
	 viewBox="0 0 449.46 144.1" style="enable-background:new 0 0 449.46 144.1;" xml:space="preserve">
<path class="st0" d="M445.19,101.81l-0.6-0.9c-0.11-0.16-1.29-0.02-1.48-0.02c-0.83,0-0.62-0.21-0.62-1.15
	c0-0.44-0.99-0.21-1.31-0.21c-0.74,0,0.03,0.94-0.31,1.37c-0.15,0.21-1.54,0-1.79,0c-0.42,0-0.54,0.16-0.54-0.3v-6.79
	c0-0.66-0.39-2.41,0.49-2.18c-0.65-1.37-1.71-2.64-2.53-3.9c-0.85-1.29-1.7-2.57-2.53-3.87c-0.89,1.37-1.79,2.71-2.67,4.08
	c-0.79,1.19-1.77,2.39-2.4,3.69c0.85-0.23,0.51,1.15,0.51,1.79v4.72c0,0.37,0.25,2.43,0,2.69c-0.15,0.16-1.16,0-1.33,0h-1.5
	c-0.09,0,0.06-1.29-0.06-1.29h-1.46c-0.12,0,0.06,1.29-0.06,1.29h-1.66c-0.63,0-1.26,1.54-1.62,2.09c-0.57,0.89-1.16,1.79-1.74,2.7
	V78.56c0-0.41-0.42-0.21-0.72-0.21c-0.76,0-0.72,0.11-0.72-0.74v-4.49c0-0.78-0.59-0.48-1.16-0.48h-2.27c-0.4,0-0.18-2-0.18-2.41
	V57.52c0-0.05-1.53-0.02-1.68-0.02c-0.52,0-0.26-1.29-0.26-1.81c0-0.09-1.63-0.04-1.8-0.04c-0.96,0-0.72,0.19-0.72,1.28
	c0,0.8-0.23,0.57-0.91,0.57h-2.59c-0.48,0-0.26-0.69-0.26-1.15V53.7c0-0.05-1.56-0.04-1.73-0.04c-0.25,0-0.11-1.74-0.11-2.04
	c0-0.64,0.08-0.62-0.43-0.62h-6.49c-0.03,0-0.02,1.88-0.02,2.04c0,0.96-0.45,0.62-1.23,0.62c-0.76,0-0.62,0.05-0.62,0.92v2.82
	c0,0.19-1.14,0.09-1.31,0.09h-2.37c-0.15,0-0.08-1.56-0.08-1.81c0-0.09-1.8-0.04-1.99-0.04c-0.79,0-0.52,0.41-0.52,1.28
	c0,0.44,0.11,0.57-0.26,0.57h-1.25c-0.43,0-0.43-0.11-0.43,0.35v14.7c0,0.2-2.57,0.09-2.99,0.09c-0.83,0-0.63,0.23-0.63,1.12v2.48
	c0,0.34,0.2,1.86,0,2.11c-0.14,0.19-1.43-0.21-1.43,0.07v4.56c-7.12-6.54-18.35-6.4-25.28,0.43V43.14c0-0.82-1.34-0.37-1.9-0.37
	c-0.12,0,0.06-0.82-0.03-0.92c-0.08-0.09-0.77,0-0.89,0c-0.23,0-0.66,0.11-0.88,0c-0.08-0.02,0.08-0.37-0.05-0.37h-16.56
	c-0.32,0-0.34,0.37-0.34,0.37c-0.23,0-1.74-0.07-1.74,0.07c0,0.25,0.12,0.85-0.12,0.85h-1.17c-0.23,0-0.63-0.16-0.63,0.16v27.22
	c-0.42-0.83-0.83-1.65-1.25-2.48c-0.15-0.28-0.8-2.02-1.09-2.02h-2.87c-0.31,0-0.55,0.14-0.55-0.23c0-0.62,0.11-0.69-0.42-0.69
	h-1.33c-0.23,0-0.12,0.46-0.12,0.69c0,0.37-0.25,0.23-0.55,0.23h-10.64c-0.02,0-0.02-0.76-0.02-0.85c0-0.14-0.51-0.07-0.62-0.07
	h-1.22c-0.06,0-0.03,0.74-0.03,0.85c0,0.14-1.36,0.07-1.53,0.07c-0.42,0-1.59-0.25-1.96,0c-0.18,0.12-0.35,0.71-0.46,0.9
	c-1.42,2.8-2.82,5.62-4.24,8.42c0.45,0,0.88-0.27,0.88,0.32v12.36c0,0.37-2.71,0.16-3.13,0.16c-0.11,0-0.54,0.09-0.54-0.05
	c0-0.12,0.05-0.85-0.03-0.85c-0.31,0-1.65-0.21-1.83,0c-0.06,0.09,0.08,0.9-0.02,0.9h-3.11c-0.34,0-0.17-2.82-0.17-3.48V19.89
	c0-0.3,0.08-4.4-0.08-4.4c-0.52,0-0.48,0.05-0.48-0.53v-1.21c0-0.18-0.42-0.51-0.51-0.62c-2.17-2.45-4.35-4.88-6.52-7.32
	c-0.48-0.53-1.85-0.21-2.56-0.18v-3.1h-1.97V0h-7.91v2.53h-1.97v3.1c-0.76-0.02-2.07-0.37-2.62,0.25c-1.05,1.17-2.1,2.34-3.13,3.51
	c-1.14,1.28-2.28,2.55-3.42,3.83c-0.28,0.3-0.43,0.37-0.43,0.82v1.31c0,0.39-0.39-0.05-0.54,0.14c-0.18,0.23,0,1.49,0,1.88v57.98
	c0,0.9,0.12,7.16-0.14,7.16h-18.05c-0.65,0-0.03-2.77-0.28-2.77c-0.37,0-3.76,0.02-3.76-0.04V65.94c0-0.67-0.29-2.41,0.08-3.01
	c0.85-1.44,1.68-2.85,2.53-4.29c0.43-0.73,0.12-2.48,0.12-3.32V46.2c0-0.28,0.18-1.88,0-2.09c-0.22-0.21-1.53,0-1.8,0
	c-0.51,0-1.39,0.21-1.59-0.19c-0.22-0.44,0-1.67,0-2.2c0-0.07-3.61-0.04-3.96-0.04c-0.59,0-0.6,0.09-0.6-0.57V38.7
	c0-0.07-1.76-0.04-1.96-0.04c-0.26,0-0.12-1.61-0.12-1.9c0-1.13-0.11-0.89-1.09-0.89c-0.89,0-0.86-0.14-0.86,0.89
	c0,0.2,0.06,1.9-0.05,1.9h-12.13c-0.12,0-0.06-1.47-0.06-1.65c0-1.15,0.15-1.13-0.86-1.13c-0.79,0-1.08-0.3-1.08,0.64
	c0,0.32,0.14,2.15-0.12,2.15c-0.35,0-1.73-0.25-1.97,0c-0.22,0.23,0,2.07,0,2.45c0,0.57,0.06,0.57-0.45,0.57h-2.59
	c-0.23,0-1.34-0.18-1.53,0c-0.31,0.35,0.23,1.77,0,2.23c-0.18,0.37-0.88,0.19-1.36,0.19c-0.32,0-1.79-0.25-2.02,0
	c-0.17,0.18,0,1.6,0,1.84v11.77c0,0.25-0.06,0.6,0.06,0.82c0.85,1.44,1.7,2.85,2.54,4.29c0.23,0.39,0.12,1.13,0.12,1.6v24.72
	c0,0.18-4.18,0.09-4.52,0.09h-19.53c-0.65,0-1.2,0.3-1.2-0.51c0-0.57-1.34-0.28-1.76-0.28c-0.09,0-0.65-0.07-0.71,0
	c-0.06,0.09,0.06,0.8-0.02,0.8h-2.16c-0.43,0-1.34-0.21-1.73,0c-0.45,0.23-0.94,1.35-1.25,1.77c-0.37,0.53-0.74,1.05-1.09,1.58
	V41.22c0-0.85-0.28-0.53-1.08-0.53c-0.76,0,0.17-1.1-0.63-1.1c-0.23,0-0.76,0.11-0.96,0c-0.08-0.05,0.11-0.48-0.05-0.48h-12.02
	c-0.17,0,0.06,0.48-0.09,0.48h-1.08c-0.51,0,0.23,1.1-0.46,1.1c-1,0-1.08-0.27-1.08,0.76v34.33c0,0.67-1.54,0.48-1.54,0
	c0-0.37,0.18-1.91-0.17-1.91h-2.31c-0.89,0-0.79-0.05-0.79,0.99c0,0.87,0.25,1.22-0.52,1.22c-0.15,0-2,0-2,0V21.03
	c0-0.34-0.94-0.14-1.17-0.14c-0.79,0-0.49-0.62-0.49-1.45c0-0.23-1.54,0.16-1.54-0.16c0-0.57,0.08-0.55-0.35-0.55h-13.58
	c-0.09,0-0.65-0.09-0.72,0c-0.15,0.19,0.22,0.66-0.12,0.66h-1.13c-0.66,0-0.08,1.51-0.32,1.51c-0.17,0-1.62-0.02-1.62,0.02v54.17
	c0,1.29-0.08,1.01-1.3,1.01h-5.84c-0.42,0-0.99,0.25-0.99-0.3c0-0.37,0.2-1.91-0.17-1.91h-2.31c-0.89,0-0.79-0.05-0.79,0.99
	c0,0.62,0.25,1.22-0.35,1.22h-2.62c-0.25,0-1.09-0.16-1.26,0.05c-0.89,1.12-1.79,2.23-2.7,3.33v-7.48c0.25,0.32,0.51,0.64,0.76,0.96
	c0.23-0.35,1.19-1.31,0.88-1.7c-0.43-0.55-0.85-1.1-1.28-1.63c-1.73-2.22-3.44-4.42-5.16-6.61c-2.74-3.51-5.49-7.02-8.23-10.51
	c-2.73,3.49-5.47,7-8.22,10.51c-1.73,2.2-3.45,4.4-5.16,6.61c-0.43,0.53-0.86,1.08-1.28,1.63c-0.31,0.39,0.72,1.21,0.99,1.52
	c0.19-0.23,0.35-0.46,0.54-0.69V91.9c-1.74-1.51-3.36-3.28-5.04-4.91c-0.54-0.51-0.97-1.26-1.7-1.26h-4.16c-0.54,0-7.92,0.02-7.92,0
	v-13.3c0-0.07,3.24-0.05,3.61-0.05c-1.51-2.16-3.02-4.34-4.53-6.51c-2.27-3.26-4.53-6.52-6.81-9.79c-0.79-1.15-1.59-2.29-2.39-3.44
	c-0.2-0.28-0.54-1.06-0.88-1.06h-6.75c-0.57,0-0.4-0.18-0.4-0.85c0-0.83-0.15-0.62-0.85-0.62h-4.3c-0.06,0,0.06,1.47-0.05,1.47
	h-4.16c-0.42,0-2.85-0.35-3.11,0.02c-1.33,1.91-2.67,3.83-3.99,5.74c-3.48,5.02-6.97,10.02-10.45,15.04c1.06,0,2.13,0.02,3.19,0.02
	c0.45,0,0.4-0.05,0.4,0.46v21.21c0,0.32,0.22,2.02,0,2.27c-0.17,0.21-1.51,0-1.76,0h-2.42c-0.49,0-0.45-0.05-0.45,0.51v7.11
	c-1.2-0.78-2.4-1.56-3.62-2.32c-0.8-0.53-1.62-1.05-2.44-1.58c-0.11-0.07-0.69-0.57-0.8-0.5c-0.04,0.02-0.08,0.05-0.11,0.07V79.35H0
	v32.55h0v31.17h1.27v1.03h447.05v-35.52c0-0.3,0.91-0.12,1.13-0.12C448.04,106.24,446.6,104.02,445.19,101.81z"/>
</svg>
