<svg xmlns="http://www.w3.org/2000/svg" viewBox="0 0 2661 453">
	<style type="text/css">
		.st0 {
			opacity: 0.5;
		}

		.st1 {
			fill: url(#SVGID_1_);
		}

		.st2 {
			fill: url(#SVGID_2_);
		}

		.st3 {
			fill: url(#SVGID_3_);
		}
	</style>
	<g>
		<g class="st0">
			<linearGradient id="SVGID_1_" gradientUnits="userSpaceOnUse" x1="1351.5" y1="1" x2="1351.5" y2="454">
				<stop offset="0" style="stop-color:#A6CBFF" />
				<stop offset="1" style="stop-color:#D2ECFD" />
			</linearGradient>
			<path class="st1"
				d="M2397,1c16,0,32,0,48,0c0,41.6,0,83.2,0,125c7.9,0,15.4,0,23.2,0c0-30.9,0-61.4,0-91.7
												c4.7-0.5,9.2-1.2,13.7-1.3c23.5-0.1,47-0.1,70.5-0.1c1.5,0,2.9,0,4.7,0c0,52.4,0,104.7,0,156.9c3.1,0,5.9,0,9,0c0-1.7,0-3.4,0-5
												c0-17.8,0.1-35.7-0.1-53.5c0-4.3,1.4-8,2.9-11.8c3-7.3,8.6-12.3,14.9-16.6c3.2-2.2,7.1-3.6,10.8-3.9c8.1-0.6,16.2-0.2,24.5-0.2
												c0,30.5,0,60.6,0,90.8c1.1,0.2,2,0.3,3,0.5c0,2,0,3.7,0,5.9c8.1,0,16,0,24,0c0,55.1,0,109.9,0,164.7c4.6,3.6,7.2,8.2,7.9,13.8
												c0.8,7.8-2,14.1-8,18.9c0,6.1,0,11.9,0,17.8c0,0.1,0.1,0.3,0.2,0.4c0.1,0.1,0.2,0.2,0.3,0.4c5.5,0,11,0,16.5,0c0,14,0,28,0,42
												c-874.3,0-1748.7,0-2623,0c0-13.9,0-27.9,0-42c3.1,0,5.9,0,8.5,0c0.5-0.5,0.9-0.9,1.5-1.5c0-1.4,0-3,0-4.6
												c0-67.6,0-135.3,0-202.9c0-3,0.7-6.2-0.9-9.1c-0.4-0.8-0.4-2.2,0-2.9c1.5-2.3,1-4.8,0.9-7.1c-0.1-2.5,0.8-5.1-0.8-7.6
												c-0.6-0.9-0.4-2.9,0.2-3.8c0.8-1.1,0.7-2.2,0.7-3.2c-0.4-11.3-1.2-22.6-1.3-34c-1.2-0.1-2.5-0.2-3.5-0.3c0-3.1,0-5.9,0-8.8
												c32.1,0,64.1,0,96,0c0.1,0,0.3-0.1,0.4-0.2c0.1-0.1,0.2-0.2,0.4-0.3c0-12.5,0-25,0-37.5c0-12.6,0-25.2,0-37.8
												c13.5-0.6,44.9-0.4,49,0.3c0,5.2,0,10.3,0,15.5c0,5.3,0,10.6,0,15.8c17,0.7,49.9,0.4,54-0.4c0-26.8,0-53.6,0-80.5
												c16.3,0,32.7,0,49,0c0,40.9,0,81.9,0,122.9c7.5,0,14.6,0,22,0c0-0.7,0-1.3,0-2c0.4-18.5-1-37.1,1.1-54.9c0.9-2.4,1.6-4.3,2.4-6.1
												c3.2-7,7.3-13,13.6-17.9c6.4-5.1,13.6-7.9,21.3-8.8c5.5-0.7,11.3-0.8,17.1,0.6c5.6,1.4,14.4,6.1,17.1,8.3
												c1.3,1.1,2.4,2.3,3.6,3.5c1.1,1.1,2.2,2,3.2,3.2c1,1.2,2.7,2.9,2.4,3.8c-0.7,2.4,1.7,2.3,2.4,3.6c1.5,3.2,2.3,6.4,3,9.8
												c1,5.1,1.9,10,1.9,15.2c-0.1,25.8,0,51.7,0,77.5c0,1.6,0,3.3,0,5c3.1,0,6,0,9.1,0c0-22.3,0-44.4,0-66.7c17.3,0,34.4,0,51.5,0
												c0.5,0.5,1,0.9,1.5,1.3c0,9.7,0,19.4,0,29.1c0,1.7,0.2,3.4,0.8,5.1c1,3.1,1.1,6.7,1.1,10c0.1,15.8,0,31.7,0,47.5
												c0,1.3,0,2.5,0,3.8c2.5,0,4.5,0,6.2,0c0.8-0.4,1.3-0.7,1.9-1c5.2-2.5,10-5.4,13.1-10.6c1.7-2.8,3.4-5.7,3.8-8.9
												c0.7-5.8,1-11.7,1.1-17.6c0.1-21.5,0-43,0-64.5c0-1.5,0-2.9,0-4.5c8.3,0.6,16-1.4,23.9-1c8.6,0.4,17.3,0.1,26,0.1
												c2.3,0,4.6,0,7.2,0c0,27.9,0,55.4,0,83.2c4.1,0,7.9,0,11.9,0c0,3.3,0,6.4,0,9.7c4.6,0,9.1,0,13.6,0c0.4-0.4,0.8-0.8,1.5-1.5
												c0-11.9,0-24.1,0-36.3c3.7-0.3,7.3,0.2,11-0.2c0-3.1,0-5.9,0-8.9c9.6,0,19.1,0,28.9,0c0-26.1,0-52,0-78c7.5,0,14.6,0,22,0
												c0.3-2,0.8-3.8,0.8-5.7c0.1-3.2,0-6.3,0-9.5c0-1.9,0.1-3.9,0.1-5.7c23.4,0,46.4,0,69.4,0c0.5,0.5,1,1,1.6,1.6
												c0,29.3,0,58.7,0,88.5c19.7,0,39.3,0,59,0c0,3.8,0,7.3,0,10.8c1,0,1.7,0,2.9,0c0-30.3,0-60.6,0-90.8c26.8,0,53.2,0,80,0
												c0,3.7,0,7.3,0,11c4.8,0,9.3,0,14.1,0c0,23.4,0,46.6,0,69.7c6.1,0,11.9,0,17.9,0c0-6.3,0-12.5,0-18.6c0.1-6.1-0.3-12.2,0.2-18
												c11.8,0,23.3,0,34.9,0c0,21.6,0,43.1,0,64.9c17.7,0,35.3,0,52.9,0c0,3.8,0.1,7.3,0,10.8c-0.2,3.4,1.7,6.6,1.1,10.1
												c-0.6,3.4,0.7,6.6,1.4,9.9c0,0,10.2,10.1,10.2,10.1c3.5-0.2,6.8,2.2,10.6,0.5c0-48,0-96.1,0-144.2c16.4,0,32.6,0,49,0
												c0,10.7,0,21.1,0,31.8c9,0,17.8,0,26.6,0c0.7,0,1.3,0.1,2,0c0.8-0.1,1.6-0.3,2.3-0.5c2-0.8,4-2.2,6-2.3c2.8-0.1,3.5-2.6,5.6-3.5
												c3-1.3,7-8.2,8.4-11.9c0.9-2.4,1.5-4.7,2.1-7.2c0.7-2.7,0.8-5.4,0.8-8.1c0-15.8,0-31.7,0-47.5c16,0,32,0,48,0
												c0,41.6,0,83.2,0,124.9c7.8,0,15.2,0,23,0c0-30.7,0-61.2,0-91.9c9-0.2,17.7,0.5,26.4-1c19.5,0,39,0,58.5,0c1.3,0,2.6,0,4.2,0
												c0,52.5,0,104.7,0,156.8c3.1,0,5.9,0,8.9,0c0-1.8,0-3.4,0-5.1c0-17.8,0-35.7,0-53.5c0-4,1-7.8,2.7-11.4
												c4.1-8.7,10.4-15.1,19.4-18.9c2.6-1.1,5.2-2.1,8.2-2c6.3,0.1,12.7,0,19,0c1.3,0,2.5,0.1,4,0.2c0,30.5,0,60.6,0,90.7
												c1,0.1,1.7,0.2,2.9,0.3c0,1.9,0,3.8,0,5.7c6.1,0,11.9,0,17.6,0c0.5-0.5,0.8-0.8,1.2-1.2c0.6-14.1,0.4-55.6-0.4-59.9
												c-1.1,0-2.2,0-3.3,0c0-3,0-5.8,0-8.9c32.3,0,64.6,0,97,0c0-25.5,0-50.6,0-75.7c16.4,0,32.6,0,49,0c0,10.7,0,21.1,0,31.6
												c12.8,0.6,49.8,0.4,53.9-0.3c0-26.8,0-53.7,0-80.5c16.3,0,32.7,0,49,0c0,40.9,0,81.9,0,122.9c7.5,0,14.6,0,22,0c0-0.7,0-1.3,0-2
												c0.4-18.5-1-37.1,1.1-54.9c0.9-2.4,1.6-4.3,2.4-6.1c3.2-7,7.3-13,13.6-17.9c6.4-5.1,13.6-7.9,21.3-8.8c5.5-0.7,11.3-0.8,17.1,0.6
												c5.6,1.4,14.4,6.1,17.1,8.3c1.3,1.1,2.4,2.3,3.6,3.5c1.1,1.1,2.2,2,3.2,3.2c1,1.2,2.7,2.9,2.4,3.8c-0.7,2.4,1.7,2.3,2.4,3.6
												c1.5,3.2,2.3,6.4,3,9.8c1,5.1,1.9,10,1.9,15.2c-0.1,25.8,0,51.7,0,77.5c0,1.6,0,3.3,0,5c3.1,0,6,0,9.1,0c0-22.3,0-44.4,0-66.7
												c17.3,0,34.4,0,51.5,0c0.5,0.5,1,0.9,1.5,1.3c0,9.7,0,19.4,0,29.1c0,1.7,0.2,3.4,0.8,5.1c1,3.1,1.1,6.7,1.1,10
												c0.1,15.8,0,31.7,0,47.5c0,1.3,0,2.5,0,3.8c2.5,0,4.5,0,6.5,0c0.1-0.1,0.2-0.2,0.4-0.3c0.4-0.2,0.8-0.5,1.2-0.7
												c5.2-2.5,10-5.4,13.1-10.6c1.7-2.8,3.4-5.7,3.8-8.9c0.7-5.8,1-11.7,1.1-17.6c0.1-21.5,0-43,0-64.5c0-1.5,0-2.9,0-4.5
												c9.3,0.8,18-1.5,26.9-1c7,0.4,14,0.1,21,0.1c3,0,5.9,0,9.2,0c0,27.9,0,55.4,0,83.2c4.1,0,7.9,0,11.9,0c0,3.3,0,6.4,0,9.7
												c4.6,0,9.1,0,13.6,0c0.4-0.4,0.8-0.8,1.5-1.5c0-11.9,0-24.1,0-36.3c3.7-0.3,7.3,0.2,11-0.2c0-3.1,0-5.9,0-8.9
												c9.6,0,19.1,0,28.9,0c0-26.1,0-52,0-78c7.5,0,14.6,0,22,0c0.3-2,0.8-3.8,0.8-5.7c0.1-3.2,0-6.3,0-9.5c0-1.9,0.1-3.9,0.1-5.7
												c23.4,0,46.4,0,69.4,0c0.5,0.5,1,1,1.6,1.6c0,29.3,0,58.7,0,88.5c19.7,0,39.3,0,59,0c0,3.8,0,7.3,0,10.8c1,0,1.7,0,2.9,0
												c0-30.3,0-60.6,0-90.8c26.8,0,53.2,0,80,0c0,3.7,0,7.3,0,11c4.8,0,9.3,0,14.1,0c0,23.4,0,46.6,0,69.7c6.1,0,11.9,0,17.9,0
												c0-6.3,0-12.5,0-18.6c0.1-6.1-0.3-12.2,0.2-18c11.8,0,23.3,0,34.9,0c0,21.6,0,43.1,0,64.9c17.7,0,35.3,0,52.7,0
												c0.3,5.2,1.5,10,1.3,14.9c-0.3,5.3-0.5,10.7,1.4,16c0,0,10.1,10,10.1,10c3.5-0.2,6.8,2.2,10.6,0.5c0-48,0-96.1,0-144.2
												c16.4,0,32.6,0,49,0c0,10.7,0,21.1,0,31.8c9,0,17.8,0,26.6,0c0.7,0,1.3,0.1,2,0c0.8-0.1,1.6-0.3,2.3-0.5c2-0.8,4-2.2,6-2.3
												c2.8-0.1,3.5-2.6,5.6-3.5c3-1.3,7-8.2,8.4-11.9c0.9-2.4,1.5-4.7,2.1-7.2c0.7-2.7,0.8-5.4,0.8-8.1C2397,32.7,2397,16.8,2397,1z" />
			<linearGradient id="SVGID_2_" gradientUnits="userSpaceOnUse" x1="20.12" y1="411.25" x2="25.14" y2="411.25">
				<stop offset="0" style="stop-color:#C3E2FD" />
				<stop offset="1" style="stop-color:#A6CBFF" />
			</linearGradient>
			<rect x="20.1" y="410.7" class="st2" width="5" height="1.2" />
		</g>
		<linearGradient id="SVGID_3_" gradientUnits="userSpaceOnUse" x1="1381.5" y1="96" x2="1381.5" y2="454">
			<stop offset="0" style="stop-color:#A6CBFF" />
			<stop offset="1" style="stop-color:#D6F3FD" />
		</linearGradient>
		<path class="st3" d="M2622,358v95H417v1H141V329h8c0-46.3,0-92.3,0-138.2c0-0.2,0.1-0.3,0.2-0.4c0.1-0.1,0.2-0.2,0.6-0.5H191
											v-10.6h46v10.5h8v-65.6c13-0.6,71.7-0.4,76,0.3V230c6.1-0.2,12,0.2,17.8-0.2V96h42v49c2.3,4.5,4.3,8.7,6.1,12.2
											c1.4,1.1,2.2,1.8,3,2.4c3.5,2.7,7.4,5,11.8,5.2c7.9,0.5,15.9,0.1,24.1,0.1v-26.8h42v190.6h5v-67.5c2.8-1.8,5.5-3.4,8.1-5.1
											c3-1.9,3.3-5.8,5.9-8v-23.3h45v-54.7h31.1V202c2.5,0,4.8,0,7.1,0c2.3-0.1,4.5,0.3,6.9-0.3v-59.8h11.9v-8.8H658
											c0,7.8,0,15.4,0,23.1c0,7.6-0.2,15.2,0.1,22.6H702v-23.9h8.1v-30.7h62.1V135c7.1,0,14.1,0,21.1,0c6.9,0,13.8-0.1,20.9,0v36.8h32.6
											c0.2-1,0.3-1.9,0.4-2.7h48.6c0.2,1.1,0.4,2,0.6,3H924v6.9h40.1v149.7h8V215.6c1.8-1.4,3.3-2.6,4.9-3.6c3.5-2.4,7.1-4.6,10.5-7.1
											c7.9-5.8,16.1-11.2,24.1-16.8c9-6.3,18.2-12.4,27.3-18.6c2.9-1.9,5.8-3.7,9.2-5.8v65h18V97.1h41.9v27h87.1v65.1h131.6
											c0.2,0.3,0.3,0.5,0.3,0.6c0,46.2,0,92.3,0,138.5c0,0.1,0.1,0.3,0.1,0.4c0.1,0.1,0.2,0.3,0.2,0.2h13.7V195.9h104.1v-6h42.1v-10.7
											c13.2-0.6,41.8-0.4,46,0.4v10.3h6.9v-66.7h77.1v107.7h17.9V97.2h42c0,14.8,0,29.5,0,44.1c0,1.6,0,3.1,0.9,4.6
											c1.8,3,3.5,6.2,4.9,9.5c0.8,2,2.1,2.9,3.9,3.8c3.5,1.8,6.7,3.9,9.7,5.6h25.7v-26.7h42.1v190.7h4.8v-5.1c0-18.8,0.1-37.7-0.1-56.5
											c0-3.8,1.2-6.9,4.2-8.7c3.2-1.9,5.2-4.9,7.5-7.4c0.7-1.5,1.4-3.1,2.5-5.5v-20.8h45v-54.8h30.9v31.8h14v-60h12.1v-8.7h68.9v47.6
											h52.1v-56.5h61.1V135c14.2,0,28.1,0,42.1,0c0.1,0,0.3,0.1,0.4,0.2c0.1,0.1,0.2,0.2,0.5,0.6V172c10.8,0,21.5,0,32.1,0
											c0.2,0,0.4-0.4,0.6-0.6c0.2-0.5,0.3-0.9,0.4-1.3h48.4c0.3,0.7,0.4,1.3,0.7,2h28.6v6.9h39.1v54.7h7.1v-17.5
											c8.6-5.9,17.1-11.7,25.5-17.4c8.4-5.8,16.7-11.8,25.4-17.3c8.6-5.4,16.4-12,25.9-17.1V228c6,0,11.6,0,17.3,0
											c0.1,0,0.3-0.1,0.4-0.1c0.1-0.1,0.2-0.2,0.4-0.3V96h42v30.2h93.1v66.9H2619c0,54.9,0,109.5,0,164.1c0,0.1,0.1,0.3,0.1,0.4
											c0.1,0.1,0.2,0.3,0.3,0.4H2622z" />
	</g>
</svg>